<svg width="16" height="17" viewBox="0 0 16 17" fill="none" xmlns="http://www.w3.org/2000/svg">
    <mask id="mask0_115_14245" style="mask-type:alpha" maskUnits="userSpaceOnUse" x="0" y="0" width="16" height="17">
        <rect y="0.5" width="16" height="16" fill="#D9D9D9"/>
    </mask>
    <g mask="url(#mask0_115_14245)">
        <path d="M2.6665 9.16663C2.11095 9.16663 1.63873 8.97218 1.24984 8.58329C0.860948 8.1944 0.666504 7.72218 0.666504 7.16663C0.666504 6.61107 0.860948 6.13885 1.24984 5.74996C1.63873 5.36107 2.11095 5.16663 2.6665 5.16663C3.22206 5.16663 3.69428 5.36107 4.08317 5.74996C4.47206 6.13885 4.6665 6.61107 4.6665 7.16663C4.6665 7.72218 4.47206 8.1944 4.08317 8.58329C3.69428 8.97218 3.22206 9.16663 2.6665 9.16663ZM1.99984 13.1666C1.81095 13.1666 1.65262 13.1027 1.52484 12.975C1.39706 12.8472 1.33317 12.6888 1.33317 12.5C1.33317 12.3111 1.39706 12.1527 1.52484 12.025C1.65262 11.8972 1.81095 11.8333 1.99984 11.8333H13.9998C14.1887 11.8333 14.3471 11.8972 14.4748 12.025C14.6026 12.1527 14.6665 12.3111 14.6665 12.5C14.6665 12.6888 14.6026 12.8472 14.4748 12.975C14.3471 13.1027 14.1887 13.1666 13.9998 13.1666H1.99984ZM7.99984 9.16663C7.44428 9.16663 6.97206 8.97218 6.58317 8.58329C6.19428 8.1944 5.99984 7.72218 5.99984 7.16663C5.99984 6.61107 6.19428 6.13885 6.58317 5.74996C6.97206 5.36107 7.44428 5.16663 7.99984 5.16663C8.55539 5.16663 9.02762 5.36107 9.4165 5.74996C9.80539 6.13885 9.99984 6.61107 9.99984 7.16663C9.99984 7.72218 9.80539 8.1944 9.4165 8.58329C9.02762 8.97218 8.55539 9.16663 7.99984 9.16663ZM13.3332 9.16663C12.7776 9.16663 12.3054 8.97218 11.9165 8.58329C11.5276 8.1944 11.3332 7.72218 11.3332 7.16663C11.3332 6.61107 11.5276 6.13885 11.9165 5.74996C12.3054 5.36107 12.7776 5.16663 13.3332 5.16663C13.8887 5.16663 14.3609 5.36107 14.7498 5.74996C15.1387 6.13885 15.3332 6.61107 15.3332 7.16663C15.3332 7.72218 15.1387 8.1944 14.7498 8.58329C14.3609 8.97218 13.8887 9.16663 13.3332 9.16663Z"
              fill="#DDDDDD"/>
    </g>
</svg>
