<svg width="16" height="16" viewBox="0 0 16 16" fill="none" xmlns="http://www.w3.org/2000/svg">
    <mask id="mask0_115_13204" style="mask-type:alpha" maskUnits="userSpaceOnUse" x="0" y="0" width="16" height="16">
        <rect width="16" height="16" fill="#D9D9D9"/>
    </mask>
    <g mask="url(#mask0_115_13204)">
        <path d="M2.66634 13.3333C2.29967 13.3333 1.98579 13.2027 1.72467 12.9416C1.46356 12.6805 1.33301 12.3666 1.33301 12V3.99996C1.33301 3.63329 1.46356 3.3194 1.72467 3.05829C1.98579 2.79718 2.29967 2.66663 2.66634 2.66663H13.333C13.6997 2.66663 14.0136 2.79718 14.2747 3.05829C14.5358 3.3194 14.6663 3.63329 14.6663 3.99996V12C14.6663 12.3666 14.5358 12.6805 14.2747 12.9416C14.0136 13.2027 13.6997 13.3333 13.333 13.3333H2.66634ZM7.99967 8.54996C8.05523 8.54996 8.11356 8.54163 8.17467 8.52496C8.23579 8.50829 8.29412 8.48329 8.34967 8.44996L13.0663 5.49996C13.1552 5.4444 13.2219 5.37496 13.2663 5.29163C13.3108 5.20829 13.333 5.11663 13.333 5.01663C13.333 4.7944 13.2386 4.62774 13.0497 4.51663C12.8608 4.40551 12.6663 4.41107 12.4663 4.53329L7.99967 7.33329L3.53301 4.53329C3.33301 4.41107 3.13856 4.40829 2.94967 4.52496C2.76079 4.64163 2.66634 4.80552 2.66634 5.01663C2.66634 5.12774 2.68856 5.22496 2.73301 5.30829C2.77745 5.39163 2.84412 5.45551 2.93301 5.49996L7.64967 8.44996C7.70523 8.48329 7.76356 8.50829 7.82467 8.52496C7.88579 8.54163 7.94412 8.54996 7.99967 8.54996Z"
              fill="#DDDDDD"/>
    </g>
</svg>
