<svg width="16" height="16" viewBox="0 0 16 16" fill="none" xmlns="http://www.w3.org/2000/svg">
    <mask id="mask0_115_13192" style="mask-type:alpha" maskUnits="userSpaceOnUse" x="0" y="0" width="16" height="16">
        <rect width="16" height="16" fill="#D9D9D9"/>
    </mask>
    <g mask="url(#mask0_115_13192)">
        <path d="M3.99967 12H7.99967V11.7C7.99967 11.5112 7.9469 11.3362 7.84134 11.175C7.73579 11.0139 7.58856 10.8889 7.39967 10.8C7.17745 10.7 6.95245 10.625 6.72467 10.575C6.4969 10.525 6.25523 10.5 5.99967 10.5C5.74412 10.5 5.50245 10.525 5.27467 10.575C5.0469 10.625 4.8219 10.7 4.59967 10.8C4.41079 10.8889 4.26356 11.0139 4.15801 11.175C4.05245 11.3362 3.99967 11.5112 3.99967 11.7V12ZM9.83301 11H11.4997C11.6441 11 11.7636 10.9528 11.858 10.8584C11.9525 10.7639 11.9997 10.6445 11.9997 10.5C11.9997 10.3556 11.9525 10.2362 11.858 10.1417C11.7636 10.0473 11.6441 10 11.4997 10H9.83301C9.68856 10 9.56912 10.0473 9.47467 10.1417C9.38023 10.2362 9.33301 10.3556 9.33301 10.5C9.33301 10.6445 9.38023 10.7639 9.47467 10.8584C9.56912 10.9528 9.68856 11 9.83301 11ZM5.99967 10C6.27745 10 6.51356 9.90282 6.70801 9.70837C6.90245 9.51393 6.99967 9.27782 6.99967 9.00004C6.99967 8.72226 6.90245 8.48615 6.70801 8.29171C6.51356 8.09726 6.27745 8.00004 5.99967 8.00004C5.7219 8.00004 5.48579 8.09726 5.29134 8.29171C5.0969 8.48615 4.99967 8.72226 4.99967 9.00004C4.99967 9.27782 5.0969 9.51393 5.29134 9.70837C5.48579 9.90282 5.7219 10 5.99967 10ZM9.83301 9.00004H11.4997C11.6441 9.00004 11.7636 8.95282 11.858 8.85837C11.9525 8.76393 11.9997 8.64448 11.9997 8.50004C11.9997 8.3556 11.9525 8.23615 11.858 8.14171C11.7636 8.04726 11.6441 8.00004 11.4997 8.00004H9.83301C9.68856 8.00004 9.56912 8.04726 9.47467 8.14171C9.38023 8.23615 9.33301 8.3556 9.33301 8.50004C9.33301 8.64448 9.38023 8.76393 9.47467 8.85837C9.56912 8.95282 9.68856 9.00004 9.83301 9.00004ZM2.66634 14.6667C2.29967 14.6667 1.98579 14.5362 1.72467 14.275C1.46356 14.0139 1.33301 13.7 1.33301 13.3334V6.00004C1.33301 5.63337 1.46356 5.31948 1.72467 5.05837C1.98579 4.79726 2.29967 4.66671 2.66634 4.66671H5.99967V2.66671C5.99967 2.30004 6.13023 1.98615 6.39134 1.72504C6.65245 1.46393 6.96634 1.33337 7.33301 1.33337H8.66634C9.03301 1.33337 9.3469 1.46393 9.60801 1.72504C9.86912 1.98615 9.99967 2.30004 9.99967 2.66671V4.66671H13.333C13.6997 4.66671 14.0136 4.79726 14.2747 5.05837C14.5358 5.31948 14.6663 5.63337 14.6663 6.00004V13.3334C14.6663 13.7 14.5358 14.0139 14.2747 14.275C14.0136 14.5362 13.6997 14.6667 13.333 14.6667H2.66634ZM7.33301 6.00004H8.66634V2.66671H7.33301V6.00004Z"
              fill="#DDDDDD"/>
    </g>
</svg>
