<svg width="16" height="16" viewBox="0 0 16 16" fill="none" xmlns="http://www.w3.org/2000/svg">
    <mask id="mask0_115_13186" style="mask-type:alpha" maskUnits="userSpaceOnUse" x="0" y="0" width="16" height="16">
        <rect width="16" height="16" fill="#D9D9D9"/>
    </mask>
    <g mask="url(#mask0_115_13186)">
        <path d="M8.00033 7.99996C7.26699 7.99996 6.63921 7.73885 6.11699 7.21663C5.59477 6.6944 5.33366 6.06663 5.33366 5.33329C5.33366 4.59996 5.59477 3.97218 6.11699 3.44996C6.63921 2.92774 7.26699 2.66663 8.00033 2.66663C8.73366 2.66663 9.36144 2.92774 9.88366 3.44996C10.4059 3.97218 10.667 4.59996 10.667 5.33329C10.667 6.06663 10.4059 6.6944 9.88366 7.21663C9.36144 7.73885 8.73366 7.99996 8.00033 7.99996ZM2.66699 12V11.4666C2.66699 11.0888 2.76421 10.7416 2.95866 10.425C3.1531 10.1083 3.41144 9.86663 3.73366 9.69996C4.42255 9.35552 5.12255 9.09718 5.83366 8.92496C6.54477 8.75274 7.26699 8.66663 8.00033 8.66663C8.73366 8.66663 9.45588 8.75274 10.167 8.92496C10.8781 9.09718 11.5781 9.35552 12.267 9.69996C12.5892 9.86663 12.8475 10.1083 13.042 10.425C13.2364 10.7416 13.3337 11.0888 13.3337 11.4666V12C13.3337 12.3666 13.2031 12.6805 12.942 12.9416C12.6809 13.2027 12.367 13.3333 12.0003 13.3333H4.00033C3.63366 13.3333 3.31977 13.2027 3.05866 12.9416C2.79755 12.6805 2.66699 12.3666 2.66699 12Z"
              fill="#DDDDDD"/>
    </g>
</svg>
