<svg width="32" height="32" viewBox="0 0 32 32" fill="none" xmlns="http://www.w3.org/2000/svg">
    <mask id="mask0_558_4996" style="mask-type:alpha" maskUnits="userSpaceOnUse" x="0" y="0" width="32" height="32">
        <rect width="32" height="32" fill="#D9D9D9"/>
    </mask>
    <g mask="url(#mask0_558_4996)">
        <path d="M5.33333 9.33341C4.95556 9.33341 4.63889 9.20564 4.38333 8.95008C4.12778 8.69453 4 8.37786 4 8.00008C4 7.6223 4.12778 7.30564 4.38333 7.05008C4.63889 6.79453 4.95556 6.66675 5.33333 6.66675H26.6667C27.0444 6.66675 27.3611 6.79453 27.6167 7.05008C27.8722 7.30564 28 7.6223 28 8.00008C28 8.37786 27.8722 8.69453 27.6167 8.95008C27.3611 9.20564 27.0444 9.33341 26.6667 9.33341H5.33333ZM5.33333 25.3334C4.95556 25.3334 4.63889 25.2056 4.38333 24.9501C4.12778 24.6945 4 24.3779 4 24.0001C4 23.6223 4.12778 23.3056 4.38333 23.0501C4.63889 22.7945 4.95556 22.6667 5.33333 22.6667H26.6667C27.0444 22.6667 27.3611 22.7945 27.6167 23.0501C27.8722 23.3056 28 23.6223 28 24.0001C28 24.3779 27.8722 24.6945 27.6167 24.9501C27.3611 25.2056 27.0444 25.3334 26.6667 25.3334H5.33333ZM5.33333 17.3334C4.95556 17.3334 4.63889 17.2056 4.38333 16.9501C4.12778 16.6945 4 16.3779 4 16.0001C4 15.6223 4.12778 15.3056 4.38333 15.0501C4.63889 14.7945 4.95556 14.6667 5.33333 14.6667H26.6667C27.0444 14.6667 27.3611 14.7945 27.6167 15.0501C27.8722 15.3056 28 15.6223 28 16.0001C28 16.3779 27.8722 16.6945 27.6167 16.9501C27.3611 17.2056 27.0444 17.3334 26.6667 17.3334H5.33333Z"
              fill="white"/>
    </g>
</svg>
