<svg width="32" height="32" viewBox="0 0 32 32" fill="none" xmlns="http://www.w3.org/2000/svg">
    <mask id="mask0_558_5006" style="mask-type:alpha" maskUnits="userSpaceOnUse" x="0" y="0" width="32" height="32">
        <rect width="32" height="32" fill="#D9D9D9"/>
    </mask>
    <g mask="url(#mask0_558_5006)">
        <path d="M7.79935 22.8001C8.93268 21.9334 10.1993 21.2501 11.5993 20.7501C12.9993 20.2501 14.466 20.0001 15.9993 20.0001C17.5327 20.0001 18.9993 20.2501 20.3993 20.7501C21.7993 21.2501 23.066 21.9334 24.1993 22.8001C24.9771 21.889 25.5827 20.8556 26.016 19.7001C26.4493 18.5445 26.666 17.3112 26.666 16.0001C26.666 13.0445 25.6271 10.5279 23.5493 8.45008C21.4716 6.3723 18.9549 5.33341 15.9993 5.33341C13.0438 5.33341 10.5271 6.3723 8.44935 8.45008C6.37157 10.5279 5.33268 13.0445 5.33268 16.0001C5.33268 17.3112 5.54935 18.5445 5.98268 19.7001C6.41602 20.8556 7.02157 21.889 7.79935 22.8001ZM15.9993 17.3334C14.6882 17.3334 13.5827 16.8834 12.6827 15.9834C11.7827 15.0834 11.3327 13.9779 11.3327 12.6667C11.3327 11.3556 11.7827 10.2501 12.6827 9.35008C13.5827 8.45008 14.6882 8.00008 15.9993 8.00008C17.3105 8.00008 18.416 8.45008 19.316 9.35008C20.216 10.2501 20.666 11.3556 20.666 12.6667C20.666 13.9779 20.216 15.0834 19.316 15.9834C18.416 16.8834 17.3105 17.3334 15.9993 17.3334ZM15.9993 29.3334C14.1549 29.3334 12.4216 28.9834 10.7993 28.2834C9.17713 27.5834 7.76602 26.6334 6.56602 25.4334C5.36602 24.2334 4.41602 22.8223 3.71602 21.2001C3.01602 19.5779 2.66602 17.8445 2.66602 16.0001C2.66602 14.1556 3.01602 12.4223 3.71602 10.8001C4.41602 9.17786 5.36602 7.76675 6.56602 6.56675C7.76602 5.36675 9.17713 4.41675 10.7993 3.71675C12.4216 3.01675 14.1549 2.66675 15.9993 2.66675C17.8438 2.66675 19.5771 3.01675 21.1993 3.71675C22.8216 4.41675 24.2327 5.36675 25.4327 6.56675C26.6327 7.76675 27.5827 9.17786 28.2827 10.8001C28.9827 12.4223 29.3327 14.1556 29.3327 16.0001C29.3327 17.8445 28.9827 19.5779 28.2827 21.2001C27.5827 22.8223 26.6327 24.2334 25.4327 25.4334C24.2327 26.6334 22.8216 27.5834 21.1993 28.2834C19.5771 28.9834 17.8438 29.3334 15.9993 29.3334Z"
              fill="white"/>
    </g>
</svg>
