<svg width="32" height="32" viewBox="0 0 32 32" fill="none" xmlns="http://www.w3.org/2000/svg">
<path d="M10.0121 20H9.06289V13.9297C9.06289 13.6992 9.06289 13.502 9.06289 13.3379C9.0668 13.1699 9.0707 13.0176 9.07461 12.8809C9.08242 12.7402 9.09219 12.5977 9.10391 12.4531C8.98281 12.5781 8.86953 12.6855 8.76406 12.7754C8.65859 12.8613 8.52773 12.9688 8.37148 13.0977L7.39297 13.8828L6.8832 13.2207L9.20352 11.4336H10.0121V20ZM16.0883 11.3105C16.5844 11.3105 17.0238 11.3887 17.4066 11.5449C17.7895 11.7012 18.0883 11.9316 18.3031 12.2363C18.5219 12.5371 18.6313 12.9082 18.6313 13.3496C18.6313 13.6973 18.5551 14.002 18.4027 14.2637C18.2543 14.5215 18.0531 14.748 17.7992 14.9434C17.5453 15.1348 17.2641 15.3066 16.9555 15.459C17.3227 15.627 17.6527 15.8164 17.9457 16.0273C18.2426 16.2383 18.477 16.4863 18.6488 16.7715C18.8207 17.0566 18.9066 17.3945 18.9066 17.7852C18.9066 18.2656 18.7895 18.6816 18.5551 19.0332C18.3246 19.3809 18.0004 19.6484 17.5824 19.8359C17.1645 20.0234 16.6742 20.1172 16.1117 20.1172C15.5063 20.1172 14.9906 20.0273 14.5648 19.8477C14.143 19.6641 13.8207 19.4023 13.598 19.0625C13.3793 18.7188 13.2699 18.3066 13.2699 17.8262C13.2699 17.4316 13.3539 17.0898 13.5219 16.8008C13.6898 16.5078 13.9125 16.2559 14.1898 16.0449C14.4672 15.834 14.7699 15.6562 15.098 15.5117C14.8129 15.3555 14.5512 15.1777 14.3129 14.9785C14.0785 14.7793 13.891 14.5469 13.7504 14.2812C13.6137 14.0117 13.5453 13.6992 13.5453 13.3438C13.5453 12.9102 13.6547 12.543 13.8734 12.2422C14.0961 11.9375 14.3988 11.707 14.7816 11.5508C15.1684 11.3906 15.6039 11.3105 16.0883 11.3105ZM14.225 17.832C14.225 18.2695 14.3793 18.6309 14.6879 18.916C14.9965 19.1973 15.4633 19.3379 16.0883 19.3379C16.682 19.3379 17.141 19.1973 17.4652 18.916C17.7895 18.6309 17.9516 18.2578 17.9516 17.7969C17.9516 17.5117 17.8773 17.2617 17.7289 17.0469C17.5805 16.8281 17.3695 16.6328 17.0961 16.4609C16.8227 16.2891 16.5004 16.1328 16.1293 15.9922L15.9184 15.916C15.559 16.0645 15.2523 16.2305 14.9984 16.4141C14.7484 16.5938 14.557 16.7988 14.4242 17.0293C14.2914 17.2598 14.225 17.5273 14.225 17.832ZM16.0766 12.1074C15.6156 12.1074 15.2387 12.2188 14.9457 12.4414C14.6527 12.6602 14.5063 12.9766 14.5063 13.3906C14.5063 13.6875 14.5766 13.9395 14.7172 14.1465C14.8617 14.3496 15.057 14.5254 15.3031 14.6738C15.5492 14.8184 15.8246 14.9531 16.1293 15.0781C16.4262 14.9531 16.6898 14.8164 16.9203 14.668C17.1508 14.5156 17.3324 14.3359 17.4652 14.1289C17.598 13.9219 17.6645 13.6738 17.6645 13.3848C17.6645 12.9707 17.518 12.6543 17.225 12.4355C16.9359 12.2168 16.5531 12.1074 16.0766 12.1074ZM23.3539 15.3711H25.768V16.168H23.3539V18.6523H22.5512V16.168H20.1371V15.3711H22.5512V12.875H23.3539V15.3711Z" fill="white"/>
<rect x="0.5" y="0.5" width="31" height="31" rx="3.5" stroke="#70B6F2"/>
</svg>
