<svg width="24" height="25" viewBox="0 0 24 25" fill="none" xmlns="http://www.w3.org/2000/svg">
<mask id="mask0_107_3452" style="mask-type:alpha" maskUnits="userSpaceOnUse" x="0" y="0" width="24" height="25">
<rect y="0.875" width="24" height="24" fill="#D9D9D9"/>
</mask>
<g mask="url(#mask0_107_3452)">
<path d="M11.0501 12.875L7.1751 7.45C6.94176 7.11667 6.9126 6.77083 7.0876 6.4125C7.2626 6.05417 7.55843 5.875 7.9751 5.875C8.14176 5.875 8.3001 5.9125 8.4501 5.9875C8.6001 6.0625 8.71676 6.16667 8.8001 6.3L13.5001 12.875L8.8001 19.45C8.71676 19.5833 8.6001 19.6875 8.4501 19.7625C8.3001 19.8375 8.14176 19.875 7.9751 19.875C7.5751 19.875 7.28343 19.6958 7.1001 19.3375C6.91676 18.9792 6.94176 18.6333 7.1751 18.3L11.0501 12.875ZM17.0001 12.875L13.1251 7.45C12.8918 7.11667 12.8626 6.77083 13.0376 6.4125C13.2126 6.05417 13.5084 5.875 13.9251 5.875C14.0918 5.875 14.2501 5.9125 14.4001 5.9875C14.5501 6.0625 14.6668 6.16667 14.7501 6.3L19.4501 12.875L14.7501 19.45C14.6668 19.5833 14.5501 19.6875 14.4001 19.7625C14.2501 19.8375 14.0918 19.875 13.9251 19.875C13.5251 19.875 13.2334 19.6958 13.0501 19.3375C12.8668 18.9792 12.8918 18.6333 13.1251 18.3L17.0001 12.875Z" fill="#1C1B1F"/>
</g>
</svg>
