<svg width="32" height="32" viewBox="0 0 32 32" fill="none" xmlns="http://www.w3.org/2000/svg">
<mask id="mask0_878_9461" style="mask-type:alpha" maskUnits="userSpaceOnUse" x="0" y="0" width="32" height="32">
<rect width="32" height="32" fill="#D9D9D9"/>
</mask>
<g mask="url(#mask0_878_9461)">
<path d="M6.66667 28C5.93333 28 5.30556 27.7389 4.78333 27.2167C4.26111 26.6944 4 26.0667 4 25.3333V21.3333C4 20.9556 4.12778 20.6389 4.38333 20.3833C4.63889 20.1278 4.95556 20 5.33333 20C5.71111 20 6.02778 20.1278 6.28333 20.3833C6.53889 20.6389 6.66667 20.9556 6.66667 21.3333V25.3333H25.3333V6.66667H6.66667V10.6667C6.66667 11.0444 6.53889 11.3611 6.28333 11.6167C6.02778 11.8722 5.71111 12 5.33333 12C4.95556 12 4.63889 11.8722 4.38333 11.6167C4.12778 11.3611 4 11.0444 4 10.6667V6.66667C4 5.93333 4.26111 5.30556 4.78333 4.78333C5.30556 4.26111 5.93333 4 6.66667 4H25.3333C26.0667 4 26.6944 4.26111 27.2167 4.78333C27.7389 5.30556 28 5.93333 28 6.66667V25.3333C28 26.0667 27.7389 26.6944 27.2167 27.2167C26.6944 27.7389 26.0667 28 25.3333 28H6.66667ZM15.5333 17.3333H5.33333C4.95556 17.3333 4.63889 17.2056 4.38333 16.95C4.12778 16.6944 4 16.3778 4 16C4 15.6222 4.12778 15.3056 4.38333 15.05C4.63889 14.7944 4.95556 14.6667 5.33333 14.6667H15.5333L13.0667 12.2C12.8 11.9333 12.6722 11.6222 12.6833 11.2667C12.6944 10.9111 12.8222 10.6 13.0667 10.3333C13.3333 10.0667 13.65 9.92778 14.0167 9.91667C14.3833 9.90556 14.7 10.0333 14.9667 10.3L19.7333 15.0667C19.8667 15.2 19.9611 15.3444 20.0167 15.5C20.0722 15.6556 20.1 15.8222 20.1 16C20.1 16.1778 20.0722 16.3444 20.0167 16.5C19.9611 16.6556 19.8667 16.8 19.7333 16.9333L14.9667 21.7C14.7 21.9667 14.3833 22.0944 14.0167 22.0833C13.65 22.0722 13.3333 21.9333 13.0667 21.6667C12.8222 21.4 12.6944 21.0889 12.6833 20.7333C12.6722 20.3778 12.8 20.0667 13.0667 19.8L15.5333 17.3333Z" fill="white"/>
</g>
</svg>
