<svg width="17" height="18" viewBox="0 0 17 18" fill="none" xmlns="http://www.w3.org/2000/svg">
<path d="M4.22596 15.1295L4.51903 15.269C5.74033 15.9663 7.10806 16.2917 8.47586 16.2917C12.7746 16.2917 16.2917 12.9448 16.2917 8.85416C16.2917 6.90184 15.4612 4.99596 13.9958 3.60141C12.5303 2.20686 10.5763 1.41666 8.47586 1.41666C4.17715 1.41666 0.659967 4.76353 0.708847 8.90067C0.708847 10.2952 1.14849 11.6433 1.8812 12.8053L2.07658 13.0843L1.29506 15.8269L4.22596 15.1295Z" fill="#00E676"/>
<path d="M14.5449 2.58446C12.97 0.909376 10.7929 0 8.56946 0C3.84473 0 0.0463508 3.9724 0.0926353 8.80628C0.0926353 10.3378 0.509527 11.8215 1.20439 13.1616L0 17.7083L4.49318 16.5118C5.74385 17.2298 7.13345 17.5648 8.52318 17.5648C13.2016 17.5648 17 13.5923 17 8.75852C17 6.41332 16.1198 4.21171 14.5449 2.58446ZM8.56946 16.0811C7.31878 16.0811 6.06811 15.7462 5.0027 15.0761L4.7248 14.9325L2.03818 15.6504L2.73297 12.9224L2.5477 12.6352C0.509527 9.23716 1.4823 4.73817 4.81743 2.63228C8.15257 0.526456 12.4605 1.53154 14.4986 4.97748C16.5368 8.42342 15.564 12.8745 12.2289 14.9803C11.1634 15.6982 9.86649 16.0811 8.56946 16.0811ZM12.6457 10.7687L12.1362 10.5294C12.1362 10.5294 11.3951 10.1944 10.9319 9.95504C10.8855 9.95504 10.8393 9.90715 10.7929 9.90715C10.6539 9.90715 10.5613 9.95504 10.4686 10.0029C10.4686 10.0029 10.4224 10.0507 9.77385 10.8165C9.7275 10.9122 9.63487 10.9601 9.54223 10.9601H9.49588C9.44959 10.9601 9.35696 10.9122 9.31061 10.8644L9.07899 10.7687C8.56946 10.5294 8.10628 10.2422 7.73568 9.85932C7.64304 9.76361 7.50406 9.6679 7.41142 9.57219C7.08716 9.23716 6.76291 8.85424 6.53135 8.42349L6.485 8.32778C6.43872 8.27989 6.43872 8.23207 6.39236 8.13635C6.39236 8.04064 6.39237 7.94493 6.43872 7.89704C6.43872 7.89704 6.62399 7.65772 6.76291 7.51419C6.85561 7.4184 6.90189 7.27487 6.99453 7.17916C7.08716 7.03555 7.13351 6.84413 7.08716 6.70052C7.04088 6.46121 6.485 5.16898 6.34608 4.88184C6.25338 4.73824 6.16081 4.69041 6.02182 4.64252H5.5123C5.4196 4.64252 5.32703 4.69041 5.23432 4.69041L5.18797 4.73824C5.09534 4.78613 5.0027 4.88184 4.91007 4.92966C4.81743 5.02544 4.77108 5.12109 4.67845 5.21687C4.35419 5.64761 4.16892 6.17407 4.16892 6.70052C4.16892 7.08337 4.26155 7.46629 4.40054 7.80132L4.44689 7.94493C4.86378 8.85423 5.4196 9.6679 6.16081 10.3858L6.34608 10.5772C6.485 10.7208 6.62399 10.8165 6.71662 10.9601C7.68939 11.8216 8.80108 12.4438 10.0518 12.7788C10.1907 12.8266 10.376 12.8266 10.515 12.8745H10.9782C11.2098 12.8745 11.4877 12.7788 11.673 12.6831C11.812 12.5874 11.9046 12.5874 11.9972 12.4917L12.0899 12.3959C12.1826 12.3002 12.2752 12.2524 12.3678 12.1566C12.4605 12.0609 12.5531 11.9652 12.5995 11.8694C12.6921 11.678 12.7384 11.4387 12.7847 11.1994V10.8644C12.7847 10.8644 12.7384 10.8165 12.6457 10.7687Z" fill="white"/>
</svg>
