<svg width="111" height="12" viewBox="0 0 111 12" fill="none" xmlns="http://www.w3.org/2000/svg">
<path d="M4.74414 5.31934H7.38965V6.81641H4.74414V9.44824H3.24707V6.81641H0.601562V5.31934H3.24707V2.65332H4.74414V5.31934ZM9.56348 11L13.3164 2.7832H8.3877V1.00586H15.5586V2.33203L11.7783 11H9.56348ZM21.2119 11L24.9648 2.7832H20.0361V1.00586H27.207V2.33203L23.4268 11H21.2119ZM35.1641 6.00293C35.1641 6.80957 35.1003 7.52962 34.9727 8.16309C34.8496 8.79655 34.6491 9.33431 34.3711 9.77637C34.0977 10.2184 33.7376 10.5557 33.291 10.7881C32.8444 11.0205 32.3021 11.1367 31.6641 11.1367C30.862 11.1367 30.2035 10.9339 29.6885 10.5283C29.1735 10.1182 28.793 9.53027 28.5469 8.76465C28.3008 7.99447 28.1777 7.07389 28.1777 6.00293C28.1777 4.92285 28.2894 4 28.5127 3.23438C28.7406 2.46419 29.1097 1.87402 29.6201 1.46387C30.1305 1.05371 30.8118 0.848633 31.6641 0.848633C32.4616 0.848633 33.1178 1.05371 33.6328 1.46387C34.1523 1.86947 34.5374 2.45736 34.7881 3.22754C35.0387 3.99316 35.1641 4.91829 35.1641 6.00293ZM30.2764 6.00293C30.2764 6.764 30.3174 7.39974 30.3994 7.91016C30.486 8.41602 30.6296 8.79655 30.8301 9.05176C31.0306 9.30697 31.3086 9.43457 31.6641 9.43457C32.015 9.43457 32.2907 9.30924 32.4912 9.05859C32.6963 8.80339 32.8421 8.42285 32.9287 7.91699C33.0153 7.40658 33.0586 6.76855 33.0586 6.00293C33.0586 5.24186 33.0153 4.60612 32.9287 4.0957C32.8421 3.58529 32.6963 3.20247 32.4912 2.94727C32.2907 2.6875 32.015 2.55762 31.6641 2.55762C31.3086 2.55762 31.0306 2.6875 30.8301 2.94727C30.6296 3.20247 30.486 3.58529 30.3994 4.0957C30.3174 4.60612 30.2764 5.24186 30.2764 6.00293ZM37.2354 11L40.9883 2.7832H36.0596V1.00586H43.2305V2.33203L39.4502 11H37.2354ZM53.1152 11H51.0029V5.2168C51.0029 5.05729 51.0052 4.86133 51.0098 4.62891C51.0143 4.39193 51.0212 4.15039 51.0303 3.9043C51.0394 3.65365 51.0485 3.42806 51.0576 3.22754C51.0075 3.28678 50.9049 3.38932 50.75 3.53516C50.5996 3.67643 50.4583 3.80404 50.3262 3.91797L49.1777 4.84082L48.1592 3.56934L51.3789 1.00586H53.1152V11ZM62.8906 11H55.9043V9.53027L58.4131 6.99414C58.9189 6.47461 59.3245 6.04167 59.6299 5.69531C59.9398 5.3444 60.1631 5.02539 60.2998 4.73828C60.4411 4.45117 60.5117 4.14355 60.5117 3.81543C60.5117 3.41895 60.4001 3.12272 60.1768 2.92676C59.958 2.72624 59.6641 2.62598 59.2949 2.62598C58.9076 2.62598 58.5316 2.71484 58.167 2.89258C57.8024 3.07031 57.4219 3.32324 57.0254 3.65137L55.877 2.29102C56.1641 2.04492 56.4671 1.8125 56.7861 1.59375C57.1097 1.375 57.4834 1.19954 57.9072 1.06738C58.3356 0.930664 58.8483 0.862305 59.4453 0.862305C60.1016 0.862305 60.6644 0.980794 61.1338 1.21777C61.6077 1.45475 61.9723 1.77832 62.2275 2.18848C62.4827 2.59408 62.6104 3.05436 62.6104 3.56934C62.6104 4.12077 62.501 4.62435 62.2822 5.08008C62.0635 5.53581 61.7445 5.98698 61.3252 6.43359C60.9105 6.88021 60.4092 7.37467 59.8213 7.91699L58.5361 9.12695V9.22266H62.8906V11ZM70.9023 11H63.916V9.53027L66.4248 6.99414C66.9307 6.47461 67.3363 6.04167 67.6416 5.69531C67.9515 5.3444 68.1748 5.02539 68.3115 4.73828C68.4528 4.45117 68.5234 4.14355 68.5234 3.81543C68.5234 3.41895 68.4118 3.12272 68.1885 2.92676C67.9697 2.72624 67.6758 2.62598 67.3066 2.62598C66.9193 2.62598 66.5433 2.71484 66.1787 2.89258C65.8141 3.07031 65.4336 3.32324 65.0371 3.65137L63.8887 2.29102C64.1758 2.04492 64.4788 1.8125 64.7979 1.59375C65.1214 1.375 65.4951 1.19954 65.9189 1.06738C66.3473 0.930664 66.86 0.862305 67.457 0.862305C68.1133 0.862305 68.6761 0.980794 69.1455 1.21777C69.6195 1.45475 69.984 1.77832 70.2393 2.18848C70.4945 2.59408 70.6221 3.05436 70.6221 3.56934C70.6221 4.12077 70.5127 4.62435 70.2939 5.08008C70.0752 5.53581 69.7562 5.98698 69.3369 6.43359C68.9222 6.88021 68.4209 7.37467 67.833 7.91699L66.5479 9.12695V9.22266H70.9023V11ZM82.7764 8.92871H81.5732V11H79.5088V8.92871H75.2432V7.45898L79.625 1.00586H81.5732V7.28809H82.7764V8.92871ZM79.5088 7.28809V5.59277C79.5088 5.43327 79.5111 5.24414 79.5156 5.02539C79.5247 4.80664 79.5339 4.58789 79.543 4.36914C79.5521 4.15039 79.5612 3.95671 79.5703 3.78809C79.584 3.61491 79.5931 3.49414 79.5977 3.42578H79.543C79.4564 3.61263 79.3652 3.79492 79.2695 3.97266C79.1738 4.14583 79.0622 4.32812 78.9346 4.51953L77.1025 7.28809H79.5088ZM84.5674 11L88.3203 2.7832H83.3916V1.00586H90.5625V2.33203L86.7822 11H84.5674ZM98.8613 4.61523C99.472 4.61523 100.014 4.73145 100.488 4.96387C100.967 5.19629 101.343 5.53809 101.616 5.98926C101.89 6.44043 102.026 6.99642 102.026 7.65723C102.026 8.37728 101.876 8.99935 101.575 9.52344C101.279 10.043 100.835 10.4417 100.242 10.7197C99.6543 10.9977 98.9206 11.1367 98.041 11.1367C97.5169 11.1367 97.0225 11.0911 96.5576 11C96.0973 10.9134 95.694 10.779 95.3477 10.5967V8.77148C95.694 8.95378 96.1087 9.10872 96.5918 9.23633C97.0794 9.35938 97.5374 9.4209 97.9658 9.4209C98.3851 9.4209 98.7383 9.36621 99.0254 9.25684C99.3125 9.1429 99.529 8.96973 99.6748 8.7373C99.8252 8.50033 99.9004 8.19954 99.9004 7.83496C99.9004 7.34733 99.7363 6.97363 99.4082 6.71387C99.0801 6.4541 98.5765 6.32422 97.8975 6.32422C97.6377 6.32422 97.3665 6.34928 97.084 6.39941C96.806 6.44954 96.5736 6.49967 96.3867 6.5498L95.5459 6.09863L95.9219 1.00586H101.343V2.79688H97.7744L97.5898 4.75879C97.7448 4.72689 97.9134 4.69499 98.0957 4.66309C98.278 4.63118 98.5332 4.61523 98.8613 4.61523ZM106.873 4.61523C107.484 4.61523 108.026 4.73145 108.5 4.96387C108.979 5.19629 109.354 5.53809 109.628 5.98926C109.901 6.44043 110.038 6.99642 110.038 7.65723C110.038 8.37728 109.888 8.99935 109.587 9.52344C109.291 10.043 108.846 10.4417 108.254 10.7197C107.666 10.9977 106.932 11.1367 106.053 11.1367C105.529 11.1367 105.034 11.0911 104.569 11C104.109 10.9134 103.706 10.779 103.359 10.5967V8.77148C103.706 8.95378 104.12 9.10872 104.604 9.23633C105.091 9.35938 105.549 9.4209 105.978 9.4209C106.397 9.4209 106.75 9.36621 107.037 9.25684C107.324 9.1429 107.541 8.96973 107.687 8.7373C107.837 8.50033 107.912 8.19954 107.912 7.83496C107.912 7.34733 107.748 6.97363 107.42 6.71387C107.092 6.4541 106.588 6.32422 105.909 6.32422C105.649 6.32422 105.378 6.34928 105.096 6.39941C104.818 6.44954 104.585 6.49967 104.398 6.5498L103.558 6.09863L103.934 1.00586H109.354V2.79688H105.786L105.602 4.75879C105.757 4.72689 105.925 4.69499 106.107 4.66309C106.29 4.63118 106.545 4.61523 106.873 4.61523Z" fill="white"/>
</svg>
