<svg width="24" height="25" viewBox="0 0 24 25" fill="none" xmlns="http://www.w3.org/2000/svg">
<mask id="mask0_115_4419" style="mask-type:alpha" maskUnits="userSpaceOnUse" x="0" y="0" width="24" height="25">
<rect y="0.5" width="24" height="24" fill="#D9D9D9"/>
</mask>
<g mask="url(#mask0_115_4419)">
<path d="M21 21.1C20.8667 21.1 20.7417 21.075 20.625 21.025C20.5083 20.975 20.4 20.9 20.3 20.8L18 18.5H8C7.45 18.5 6.97917 18.3042 6.5875 17.9125C6.19583 17.5208 6 17.05 6 16.5V15.5H17C17.55 15.5 18.0208 15.3042 18.4125 14.9125C18.8042 14.5208 19 14.05 19 13.5V6.5H20C20.55 6.5 21.0208 6.69583 21.4125 7.0875C21.8042 7.47917 22 7.95 22 8.5V20.075C22 20.375 21.9 20.6208 21.7 20.8125C21.5 21.0042 21.2667 21.1 21 21.1ZM3 16.1C2.73333 16.1 2.5 16.0042 2.3 15.8125C2.1 15.6208 2 15.375 2 15.075V4.5C2 3.95 2.19583 3.47917 2.5875 3.0875C2.97917 2.69583 3.45 2.5 4 2.5H15C15.55 2.5 16.0208 2.69583 16.4125 3.0875C16.8042 3.47917 17 3.95 17 4.5V11.5C17 12.05 16.8042 12.5208 16.4125 12.9125C16.0208 13.3042 15.55 13.5 15 13.5H6L3.7 15.8C3.6 15.9 3.49167 15.975 3.375 16.025C3.25833 16.075 3.13333 16.1 3 16.1Z" fill="#1C1B1F"/>
</g>
</svg>
