<svg width="416" height="327" viewBox="0 0 416 327" fill="none" xmlns="http://www.w3.org/2000/svg">
<rect width="416" height="32.875" fill="#3F8CFF"/>
<g clip-path="url(#clip0_107_3263)">
<path d="M17.8076 20.5469L13.6982 16.4375L17.8076 12.3281L18.7665 13.287L15.616 16.4375L18.7665 19.588L17.8076 20.5469Z" fill="white"/>
</g>
<path d="M171.51 10.0625H173.26L176.549 18.8359L179.831 10.0625H181.581L177.237 21.4375H175.846L171.51 10.0625ZM170.713 10.0625H172.377L172.667 17.6562V21.4375H170.713V10.0625ZM180.713 10.0625H182.385V21.4375H180.424V17.6562L180.713 10.0625ZM189.352 11.5781L185.954 21.4375H183.899L188.18 10.0625H189.493L189.352 11.5781ZM192.196 21.4375L188.79 11.5781L188.641 10.0625H189.962L194.258 21.4375H192.196ZM192.032 17.2188V18.7734H185.844V17.2188H192.032ZM197.538 18.2422L202.585 10.0625H204.546V21.4375H202.585V13.25L197.538 21.4375H195.585V10.0625H197.538V18.2422ZM201.233 7.14844H202.632C202.632 7.58073 202.527 7.96354 202.319 8.29688C202.116 8.625 201.824 8.88281 201.444 9.07031C201.069 9.25781 200.621 9.35156 200.1 9.35156C199.314 9.35156 198.692 9.14844 198.233 8.74219C197.78 8.33073 197.554 7.79948 197.554 7.14844H198.952C198.952 7.4401 199.038 7.69792 199.21 7.92188C199.387 8.14062 199.684 8.25 200.1 8.25C200.512 8.25 200.804 8.14062 200.975 7.92188C201.147 7.69792 201.233 7.4401 201.233 7.14844ZM218.347 19.9375V21.4375H210.722V20.1484L214.425 16.1094C214.831 15.651 215.151 15.2552 215.386 14.9219C215.62 14.5885 215.784 14.2891 215.878 14.0234C215.977 13.7526 216.026 13.4896 216.026 13.2344C216.026 12.875 215.959 12.5599 215.823 12.2891C215.693 12.013 215.5 11.7969 215.245 11.6406C214.99 11.4792 214.68 11.3984 214.315 11.3984C213.894 11.3984 213.539 11.4896 213.253 11.6719C212.967 11.8542 212.75 12.1068 212.605 12.4297C212.459 12.7474 212.386 13.112 212.386 13.5234H210.503C210.503 12.862 210.654 12.2578 210.956 11.7109C211.258 11.1589 211.696 10.7214 212.269 10.3984C212.842 10.0703 213.532 9.90625 214.339 9.90625C215.099 9.90625 215.745 10.0339 216.276 10.2891C216.808 10.5443 217.211 10.9062 217.487 11.375C217.769 11.8438 217.909 12.3984 217.909 13.0391C217.909 13.3932 217.852 13.7448 217.737 14.0938C217.623 14.4427 217.459 14.7917 217.245 15.1406C217.037 15.4844 216.789 15.8307 216.503 16.1797C216.217 16.5234 215.901 16.8724 215.558 17.2266L213.097 19.9375H218.347ZM227.298 14.7969V16.6562C227.298 17.5469 227.21 18.3073 227.032 18.9375C226.861 19.5625 226.611 20.0703 226.282 20.4609C225.954 20.8516 225.561 21.138 225.103 21.3203C224.65 21.5026 224.142 21.5938 223.579 21.5938C223.131 21.5938 222.715 21.5365 222.329 21.4219C221.949 21.3073 221.605 21.1276 221.298 20.8828C220.991 20.638 220.728 20.3229 220.509 19.9375C220.295 19.5469 220.129 19.0807 220.009 18.5391C219.894 17.9974 219.837 17.3698 219.837 16.6562V14.7969C219.837 13.901 219.926 13.1458 220.103 12.5312C220.28 11.9115 220.532 11.4089 220.861 11.0234C221.189 10.6328 221.579 10.349 222.032 10.1719C222.491 9.99479 223.001 9.90625 223.564 9.90625C224.017 9.90625 224.433 9.96354 224.814 10.0781C225.199 10.1875 225.543 10.362 225.845 10.6016C226.152 10.8411 226.413 11.1536 226.626 11.5391C226.845 11.9193 227.012 12.3802 227.126 12.9219C227.241 13.4583 227.298 14.0833 227.298 14.7969ZM225.415 16.9219V14.5156C225.415 14.0625 225.389 13.6641 225.337 13.3203C225.285 12.9714 225.207 12.6771 225.103 12.4375C225.004 12.1927 224.879 11.9948 224.728 11.8438C224.577 11.6875 224.405 11.5755 224.212 11.5078C224.019 11.4349 223.803 11.3984 223.564 11.3984C223.272 11.3984 223.012 11.4557 222.782 11.5703C222.553 11.6797 222.361 11.8568 222.204 12.1016C222.048 12.3464 221.928 12.6693 221.845 13.0703C221.767 13.4661 221.728 13.9479 221.728 14.5156V16.9219C221.728 17.3802 221.754 17.7839 221.806 18.1328C221.858 18.4818 221.936 18.7812 222.04 19.0312C222.144 19.276 222.269 19.4792 222.415 19.6406C222.566 19.7969 222.738 19.9115 222.931 19.9844C223.129 20.0573 223.345 20.0938 223.579 20.0938C223.876 20.0938 224.139 20.0365 224.368 19.9219C224.598 19.8073 224.79 19.625 224.946 19.375C225.103 19.1198 225.22 18.7891 225.298 18.3828C225.376 17.9766 225.415 17.4896 225.415 16.9219ZM236.671 19.9375V21.4375H229.046V20.1484L232.749 16.1094C233.156 15.651 233.476 15.2552 233.71 14.9219C233.945 14.5885 234.109 14.2891 234.202 14.0234C234.301 13.7526 234.351 13.4896 234.351 13.2344C234.351 12.875 234.283 12.5599 234.148 12.2891C234.018 12.013 233.825 11.7969 233.57 11.6406C233.314 11.4792 233.005 11.3984 232.64 11.3984C232.218 11.3984 231.864 11.4896 231.577 11.6719C231.291 11.8542 231.075 12.1068 230.929 12.4297C230.783 12.7474 230.71 13.112 230.71 13.5234H228.827C228.827 12.862 228.979 12.2578 229.281 11.7109C229.583 11.1589 230.02 10.7214 230.593 10.3984C231.166 10.0703 231.856 9.90625 232.663 9.90625C233.424 9.90625 234.07 10.0339 234.601 10.2891C235.132 10.5443 235.536 10.9062 235.812 11.375C236.093 11.8438 236.234 12.3984 236.234 13.0391C236.234 13.3932 236.176 13.7448 236.062 14.0938C235.947 14.4427 235.783 14.7917 235.57 15.1406C235.361 15.4844 235.114 15.8307 234.827 16.1797C234.541 16.5234 234.226 16.8724 233.882 17.2266L231.421 19.9375H236.671ZM240.185 16.1484L238.685 15.7812L239.302 10.0625H245.435V11.6562H240.865L240.552 14.4453C240.729 14.3411 240.974 14.2396 241.287 14.1406C241.599 14.0365 241.956 13.9844 242.357 13.9844C242.893 13.9844 243.373 14.0729 243.794 14.25C244.221 14.4219 244.583 14.6745 244.88 15.0078C245.177 15.3359 245.404 15.737 245.56 16.2109C245.716 16.6797 245.794 17.2083 245.794 17.7969C245.794 18.3229 245.716 18.8151 245.56 19.2734C245.409 19.7318 245.18 20.1354 244.873 20.4844C244.565 20.8333 244.177 21.1068 243.708 21.3047C243.245 21.4974 242.695 21.5938 242.06 21.5938C241.586 21.5938 241.13 21.526 240.693 21.3906C240.261 21.25 239.873 21.0443 239.529 20.7734C239.185 20.4974 238.909 20.1589 238.701 19.7578C238.492 19.3516 238.373 18.8854 238.341 18.3594H240.185C240.232 18.7292 240.333 19.0443 240.49 19.3047C240.651 19.5599 240.865 19.7552 241.13 19.8906C241.396 20.026 241.703 20.0938 242.052 20.0938C242.37 20.0938 242.643 20.0391 242.873 19.9297C243.102 19.8151 243.292 19.6536 243.443 19.4453C243.599 19.2318 243.714 18.9818 243.787 18.6953C243.865 18.4089 243.904 18.0911 243.904 17.7422C243.904 17.4089 243.86 17.1042 243.771 16.8281C243.688 16.5521 243.56 16.3125 243.388 16.1094C243.221 15.9062 243.011 15.75 242.755 15.6406C242.5 15.526 242.206 15.4688 241.873 15.4688C241.425 15.4688 241.081 15.5339 240.841 15.6641C240.607 15.7943 240.388 15.9557 240.185 16.1484Z" fill="white"/>
<g clip-path="url(#clip1_107_3263)">
<path d="M399.973 16.4375L396.823 13.287L397.782 12.3281L401.891 16.4375L397.782 20.5469L396.823 19.588L399.973 16.4375Z" fill="white"/>
</g>
<rect width="416" height="32" transform="translate(0 32.875)" fill="#73ABFF"/>
<path d="M20.0093 43.6849V53.875H18.6655V44.7907H13.6405V53.875H12.2897V43.6849H20.0093ZM29.5625 48.0661V49.1649H24.0475V48.0661H29.5625ZM24.2575 43.6849V53.875H22.9067V43.6849H24.2575ZM30.7383 43.6849V53.875H29.3945V43.6849H30.7383Z" fill="white"/>
<path d="M79.6147 49.1089H77.0322L77.0182 48.0241H79.3628C79.7501 48.0241 80.0883 47.9588 80.3776 47.8281C80.6669 47.6975 80.8908 47.5109 81.0495 47.2682C81.2128 47.0209 81.2944 46.727 81.2944 46.3864C81.2944 46.0131 81.2221 45.7099 81.0775 45.4766C80.9375 45.2386 80.7205 45.066 80.4266 44.9587C80.1373 44.8467 79.7687 44.7907 79.3208 44.7907H77.3332V53.875H75.9824V43.6849H79.3208C79.8434 43.6849 80.31 43.7386 80.7205 43.8459C81.1311 43.9485 81.4787 44.1118 81.7633 44.3358C82.0526 44.5551 82.2719 44.835 82.4212 45.1756C82.5705 45.5162 82.6452 45.9245 82.6452 46.4004C82.6452 46.8203 82.5379 47.2006 82.3232 47.5412C82.1086 47.8771 81.81 48.1524 81.4274 48.367C81.0495 48.5817 80.6062 48.7193 80.0977 48.7799L79.6147 49.1089ZM79.5518 53.875H76.5003L77.2632 52.7762H79.5518C79.981 52.7762 80.3449 52.7016 80.6436 52.5522C80.9468 52.4029 81.1778 52.193 81.3364 51.9224C81.4951 51.6471 81.5744 51.3228 81.5744 50.9495C81.5744 50.5716 81.5067 50.245 81.3714 49.9697C81.2361 49.6944 81.0238 49.4822 80.7345 49.3328C80.4453 49.1835 80.072 49.1089 79.6147 49.1089H77.6901L77.7041 48.0241H80.3356L80.6226 48.416C81.1125 48.458 81.5277 48.598 81.8683 48.8359C82.2089 49.0692 82.4679 49.3678 82.6452 49.7318C82.8271 50.0957 82.9181 50.497 82.9181 50.9355C82.9181 51.5701 82.7782 52.1067 82.4982 52.5452C82.2229 52.9792 81.8333 53.3104 81.3294 53.5391C80.8255 53.763 80.233 53.875 79.5518 53.875ZM88.93 43.6849V53.875H87.6003V43.6849H88.93ZM92.2054 43.6849V44.7907H84.3319V43.6849H92.2054Z" fill="white"/>
<path d="M143.754 50.6346H145.098C145.028 51.2785 144.844 51.8547 144.545 52.3633C144.247 52.8719 143.824 53.2754 143.278 53.5741C142.733 53.868 142.051 54.015 141.235 54.015C140.638 54.015 140.094 53.903 139.604 53.679C139.119 53.4551 138.701 53.1378 138.351 52.7272C138.001 52.312 137.731 51.815 137.54 51.2365C137.353 50.6533 137.26 50.0047 137.26 49.2909V48.276C137.26 47.5622 137.353 46.916 137.54 46.3374C137.731 45.7542 138.004 45.2549 138.358 44.8397C138.718 44.4244 139.149 44.1048 139.653 43.8809C140.157 43.6569 140.724 43.5449 141.354 43.5449C142.124 43.5449 142.775 43.6896 143.306 43.9788C143.838 44.2681 144.251 44.6694 144.545 45.1826C144.844 45.6912 145.028 46.2814 145.098 46.9533H143.754C143.689 46.4774 143.568 46.0691 143.39 45.7285C143.213 45.3832 142.961 45.1173 142.635 44.9307C142.308 44.744 141.881 44.6507 141.354 44.6507C140.901 44.6507 140.502 44.737 140.157 44.9097C139.816 45.0823 139.53 45.3273 139.296 45.6445C139.068 45.9618 138.895 46.3421 138.778 46.7853C138.662 47.2286 138.603 47.7208 138.603 48.262V49.2909C138.603 49.7901 138.655 50.259 138.757 50.6976C138.865 51.1362 139.026 51.5211 139.24 51.8524C139.455 52.1836 139.728 52.4449 140.059 52.6362C140.39 52.8229 140.782 52.9162 141.235 52.9162C141.809 52.9162 142.266 52.8252 142.607 52.6432C142.947 52.4613 143.204 52.2 143.376 51.8594C143.554 51.5188 143.68 51.1105 143.754 50.6346ZM151.145 49.8787H148.423V48.7799H151.145C151.672 48.7799 152.099 48.696 152.426 48.528C152.752 48.36 152.99 48.1267 153.14 47.8281C153.294 47.5295 153.371 47.1889 153.371 46.8063C153.371 46.4564 153.294 46.1274 153.14 45.8195C152.99 45.5116 152.752 45.2643 152.426 45.0776C152.099 44.8863 151.672 44.7907 151.145 44.7907H148.737V53.875H147.387V43.6849H151.145C151.915 43.6849 152.566 43.8179 153.098 44.0838C153.63 44.3498 154.033 44.7184 154.308 45.1896C154.584 45.6562 154.721 46.1904 154.721 46.7923C154.721 47.4455 154.584 48.0031 154.308 48.465C154.033 48.9269 153.63 49.2792 153.098 49.5218C152.566 49.7598 151.915 49.8787 151.145 49.8787Z" fill="white"/>
<path d="M199.756 43.6849H201.106V46.8693C201.106 47.3965 201.183 47.8095 201.337 48.1081C201.491 48.4067 201.725 48.6166 202.037 48.738C202.35 48.8593 202.739 48.9199 203.206 48.9199C203.486 48.9199 203.756 48.9083 204.018 48.8849C204.284 48.8616 204.543 48.8289 204.795 48.7869C205.047 48.745 205.294 48.6936 205.536 48.633C205.784 48.5723 206.026 48.507 206.264 48.437V49.5428C206.036 49.6128 205.807 49.6781 205.578 49.7388C205.354 49.7994 205.121 49.8507 204.879 49.8927C204.641 49.9347 204.384 49.9674 204.109 49.9907C203.838 50.0141 203.537 50.0257 203.206 50.0257C202.487 50.0257 201.869 49.9231 201.351 49.7178C200.838 49.5078 200.444 49.1719 200.168 48.71C199.893 48.248 199.756 47.6345 199.756 46.8693V43.6849ZM205.921 43.6849H207.272V53.875H205.921V43.6849ZM213.697 43.6849V53.875H212.367V43.6849H213.697ZM216.972 43.6849V44.7907H209.099V43.6849H216.972Z" fill="white"/>
<path d="M269.516 43.6849V53.875H268.172V44.7907H263.147V53.875H261.796V43.6849H269.516ZM276.178 43.6849V53.875H274.849V43.6849H276.178ZM279.454 43.6849V44.7907H271.58V43.6849H279.454Z" fill="white"/>
<path d="M330.255 50.6346H331.599C331.529 51.2785 331.344 51.8547 331.046 52.3633C330.747 52.8719 330.325 53.2754 329.779 53.5741C329.233 53.868 328.552 54.015 327.735 54.015C327.138 54.015 326.595 53.903 326.105 53.679C325.619 53.4551 325.202 53.1378 324.852 52.7272C324.502 52.312 324.231 51.815 324.04 51.2365C323.853 50.6533 323.76 50.0047 323.76 49.2909V48.276C323.76 47.5622 323.853 46.916 324.04 46.3374C324.231 45.7542 324.504 45.2549 324.859 44.8397C325.218 44.4244 325.65 44.1048 326.154 43.8809C326.658 43.6569 327.224 43.5449 327.854 43.5449C328.624 43.5449 329.275 43.6896 329.807 43.9788C330.339 44.2681 330.752 44.6694 331.046 45.1826C331.344 45.6912 331.529 46.2814 331.599 46.9533H330.255C330.19 46.4774 330.068 46.0691 329.891 45.7285C329.714 45.3832 329.462 45.1173 329.135 44.9307C328.808 44.744 328.382 44.6507 327.854 44.6507C327.402 44.6507 327.003 44.737 326.658 44.9097C326.317 45.0823 326.03 45.3273 325.797 45.6445C325.568 45.9618 325.395 46.3421 325.279 46.7853C325.162 47.2286 325.104 47.7208 325.104 48.262V49.2909C325.104 49.7901 325.155 50.259 325.258 50.6976C325.365 51.1362 325.526 51.5211 325.741 51.8524C325.955 52.1836 326.228 52.4449 326.56 52.6362C326.891 52.8229 327.283 52.9162 327.735 52.9162C328.309 52.9162 328.766 52.8252 329.107 52.6432C329.448 52.4613 329.704 52.2 329.877 51.8594C330.054 51.5188 330.18 51.1105 330.255 50.6346ZM340.102 43.6849V44.7907H335.189V53.875H333.845V43.6849H340.102ZM334.874 47.8351H337.653C338.399 47.8351 339.029 47.9611 339.542 48.2131C340.055 48.4603 340.445 48.8079 340.711 49.2559C340.977 49.7038 341.11 50.2287 341.11 50.8306C341.11 51.2785 341.035 51.6891 340.886 52.0623C340.737 52.4309 340.515 52.7529 340.221 53.0282C339.927 53.2988 339.565 53.5087 339.136 53.658C338.707 53.8027 338.212 53.875 337.653 53.875H333.845V43.6849H335.196V52.7762H337.653C338.152 52.7762 338.555 52.6852 338.863 52.5033C339.176 52.3166 339.405 52.074 339.549 51.7754C339.694 51.4768 339.766 51.1572 339.766 50.8166C339.766 50.476 339.694 50.1634 339.549 49.8787C339.405 49.5941 339.176 49.3678 338.863 49.1999C338.555 49.0272 338.152 48.9409 337.653 48.9409H334.874V47.8351Z" fill="white"/>
<path d="M389.958 49.1089H387.375L387.361 48.0241H389.706C390.093 48.0241 390.431 47.9588 390.721 47.8281C391.01 47.6975 391.234 47.5109 391.393 47.2682C391.556 47.0209 391.638 46.727 391.638 46.3864C391.638 46.0131 391.565 45.7099 391.421 45.4766C391.281 45.2386 391.064 45.066 390.77 44.9587C390.48 44.8467 390.112 44.7907 389.664 44.7907H387.676V53.875H386.326V43.6849H389.664C390.186 43.6849 390.653 43.7386 391.064 43.8459C391.474 43.9485 391.822 44.1118 392.106 44.3358C392.396 44.5551 392.615 44.835 392.764 45.1756C392.914 45.5162 392.988 45.9245 392.988 46.4004C392.988 46.8203 392.881 47.2006 392.666 47.5412C392.452 47.8771 392.153 48.1524 391.771 48.367C391.393 48.5817 390.949 48.7193 390.441 48.7799L389.958 49.1089ZM389.895 53.875H386.843L387.606 52.7762H389.895C390.324 52.7762 390.688 52.7016 390.987 52.5522C391.29 52.4029 391.521 52.193 391.68 51.9224C391.838 51.6471 391.917 51.3228 391.917 50.9495C391.917 50.5716 391.85 50.245 391.715 49.9697C391.579 49.6944 391.367 49.4822 391.078 49.3328C390.788 49.1835 390.415 49.1089 389.958 49.1089H388.033L388.047 48.0241H390.679L390.966 48.416C391.456 48.458 391.871 48.598 392.211 48.8359C392.552 49.0692 392.811 49.3678 392.988 49.7318C393.17 50.0957 393.261 50.497 393.261 50.9355C393.261 51.5701 393.121 52.1067 392.841 52.5452C392.566 52.9792 392.176 53.3104 391.673 53.5391C391.169 53.763 390.576 53.875 389.895 53.875ZM401.856 50.6346H403.199C403.129 51.2785 402.945 51.8547 402.646 52.3633C402.348 52.8719 401.926 53.2754 401.38 53.5741C400.834 53.868 400.153 54.015 399.336 54.015C398.739 54.015 398.195 53.903 397.705 53.679C397.22 53.4551 396.803 53.1378 396.453 52.7272C396.103 52.312 395.832 51.815 395.641 51.2365C395.454 50.6533 395.361 50.0047 395.361 49.2909V48.276C395.361 47.5622 395.454 46.916 395.641 46.3374C395.832 45.7542 396.105 45.2549 396.46 44.8397C396.819 44.4244 397.25 44.1048 397.754 43.8809C398.258 43.6569 398.825 43.5449 399.455 43.5449C400.225 43.5449 400.876 43.6896 401.408 43.9788C401.94 44.2681 402.353 44.6694 402.646 45.1826C402.945 45.6912 403.129 46.2814 403.199 46.9533H401.856C401.79 46.4774 401.669 46.0691 401.492 45.7285C401.314 45.3832 401.062 45.1173 400.736 44.9307C400.409 44.744 399.982 44.6507 399.455 44.6507C399.002 44.6507 398.604 44.737 398.258 44.9097C397.918 45.0823 397.631 45.3273 397.397 45.6445C397.169 45.9618 396.996 46.3421 396.88 46.7853C396.763 47.2286 396.705 47.7208 396.705 48.262V49.2909C396.705 49.7901 396.756 50.259 396.859 50.6976C396.966 51.1362 397.127 51.5211 397.341 51.8524C397.556 52.1836 397.829 52.4449 398.16 52.6362C398.492 52.8229 398.884 52.9162 399.336 52.9162C399.91 52.9162 400.367 52.8252 400.708 52.6432C401.048 52.4613 401.305 52.2 401.478 51.8594C401.655 51.5188 401.781 51.1105 401.856 50.6346Z" fill="white"/>
<path opacity="0.38" d="M20.7371 94.3112V95.375H14.0674V94.4442L17.4058 90.7279C17.8164 90.2706 18.1336 89.8834 18.3576 89.5661C18.5862 89.2441 18.7448 88.9572 18.8335 88.7052C18.9268 88.4486 18.9735 88.1873 18.9735 87.9214C18.9735 87.5854 18.9035 87.2822 18.7635 87.0116C18.6282 86.7363 18.4276 86.517 18.1616 86.3537C17.8957 86.1904 17.5737 86.1087 17.1958 86.1087C16.7432 86.1087 16.3653 86.1974 16.062 86.3747C15.7634 86.5473 15.5394 86.7899 15.3901 87.1025C15.2408 87.4151 15.1662 87.7744 15.1662 88.1803H13.8714C13.8714 87.6064 13.9974 87.0815 14.2493 86.6056C14.5013 86.1297 14.8746 85.7518 15.3691 85.4718C15.8637 85.1872 16.4726 85.0449 17.1958 85.0449C17.8397 85.0449 18.3902 85.1592 18.8475 85.3879C19.3047 85.6118 19.6547 85.9291 19.8973 86.3397C20.1446 86.7456 20.2682 87.2215 20.2682 87.7674C20.2682 88.066 20.2169 88.3693 20.1143 88.6772C20.0163 88.9805 19.8786 89.2838 19.7013 89.5871C19.5287 89.8904 19.3257 90.189 19.0924 90.4829C18.8638 90.7769 18.6189 91.0661 18.3576 91.3507L15.6281 94.3112H20.7371ZM27.5399 85.1709H27.6519V86.2697H27.5399C26.854 86.2697 26.2801 86.3817 25.8182 86.6056C25.3563 86.8249 24.99 87.1212 24.7194 87.4945C24.4488 87.8631 24.2528 88.2783 24.1315 88.7402C24.0149 89.2021 23.9565 89.6711 23.9565 90.147V91.6447C23.9565 92.0973 24.0102 92.4985 24.1175 92.8485C24.2248 93.1937 24.3718 93.4854 24.5584 93.7233C24.7451 93.9613 24.955 94.1409 25.1883 94.2622C25.4263 94.3835 25.6736 94.4442 25.9302 94.4442C26.2288 94.4442 26.4947 94.3882 26.728 94.2762C26.9613 94.1596 27.1573 93.9986 27.3159 93.7933C27.4792 93.5833 27.6029 93.336 27.6868 93.0514C27.7708 92.7668 27.8128 92.4542 27.8128 92.1136C27.8128 91.8103 27.7755 91.5187 27.7008 91.2388C27.6262 90.9542 27.5119 90.7022 27.3579 90.4829C27.2039 90.259 27.0103 90.084 26.777 89.958C26.5484 89.8274 26.2754 89.762 25.9582 89.762C25.5989 89.762 25.263 89.8507 24.9504 90.028C24.6424 90.2006 24.3881 90.4293 24.1875 90.7139C23.9915 90.9938 23.8796 91.2994 23.8516 91.6307L23.1657 91.6237C23.231 91.1011 23.3523 90.6555 23.5296 90.2869C23.7116 89.9137 23.9355 89.6104 24.2015 89.3771C24.4721 89.1392 24.7731 88.9665 25.1043 88.8592C25.4403 88.7472 25.7949 88.6912 26.1681 88.6912C26.6767 88.6912 27.1153 88.7869 27.4839 88.9782C27.8525 89.1695 28.1558 89.4261 28.3937 89.748C28.6317 90.0653 28.8066 90.4246 28.9186 90.8258C29.0353 91.2224 29.0936 91.6307 29.0936 92.0506C29.0936 92.5312 29.0259 92.9814 28.8906 93.4014C28.7553 93.8213 28.5524 94.1899 28.2817 94.5072C28.0158 94.8244 27.6868 95.0717 27.2949 95.249C26.903 95.4263 26.4481 95.515 25.9302 95.515C25.3796 95.515 24.899 95.403 24.4884 95.179C24.0779 94.9504 23.7373 94.6471 23.4666 94.2692C23.196 93.8913 22.9931 93.4714 22.8577 93.0094C22.7224 92.5475 22.6548 92.0786 22.6548 91.6027V90.9938C22.6548 90.2753 22.7271 89.5707 22.8717 88.8802C23.0164 88.1897 23.266 87.5645 23.6206 87.0046C23.9799 86.4447 24.4768 85.9991 25.1113 85.6678C25.7459 85.3365 26.5554 85.1709 27.5399 85.1709Z" fill="#49454F"/>
<path opacity="0.38" d="M82.9041 94.3112V95.375H76.2344V94.4442L79.5728 90.7279C79.9833 90.2706 80.3006 89.8834 80.5246 89.5661C80.7532 89.2441 80.9118 88.9572 81.0005 88.7052C81.0938 88.4486 81.1405 88.1873 81.1405 87.9214C81.1405 87.5854 81.0705 87.2822 80.9305 87.0116C80.7952 86.7363 80.5946 86.517 80.3286 86.3537C80.0627 86.1904 79.7407 86.1087 79.3628 86.1087C78.9102 86.1087 78.5323 86.1974 78.229 86.3747C77.9304 86.5473 77.7064 86.7899 77.5571 87.1025C77.4078 87.4151 77.3332 87.7744 77.3332 88.1803H76.0384C76.0384 87.6064 76.1644 87.0815 76.4163 86.6056C76.6683 86.1297 77.0416 85.7518 77.5361 85.4718C78.0307 85.1872 78.6396 85.0449 79.3628 85.0449C80.0067 85.0449 80.5572 85.1592 81.0145 85.3879C81.4717 85.6118 81.8217 85.9291 82.0643 86.3397C82.3116 86.7456 82.4352 87.2215 82.4352 87.7674C82.4352 88.066 82.3839 88.3693 82.2813 88.6772C82.1833 88.9805 82.0456 89.2838 81.8683 89.5871C81.6957 89.8904 81.4927 90.189 81.2594 90.4829C81.0308 90.7769 80.7859 91.0661 80.5246 91.3507L77.7951 94.3112H82.9041ZM91.3236 85.1849V85.9128L87.1034 95.375H85.7386L89.9518 86.2487H84.4368V85.1849H91.3236Z" fill="#49454F"/>
<path opacity="0.38" d="M145.07 94.3112V95.375H138.4V94.4442L141.739 90.7279C142.149 90.2706 142.467 89.8834 142.691 89.5661C142.919 89.2441 143.078 88.9572 143.167 88.7052C143.26 88.4486 143.306 88.1873 143.306 87.9214C143.306 87.5854 143.236 87.2822 143.097 87.0116C142.961 86.7363 142.761 86.517 142.495 86.3537C142.229 86.1904 141.907 86.1087 141.529 86.1087C141.076 86.1087 140.698 86.1974 140.395 86.3747C140.096 86.5473 139.872 86.7899 139.723 87.1025C139.574 87.4151 139.499 87.7744 139.499 88.1803H138.204C138.204 87.6064 138.33 87.0815 138.582 86.6056C138.834 86.1297 139.208 85.7518 139.702 85.4718C140.197 85.1872 140.806 85.0449 141.529 85.0449C142.173 85.0449 142.723 85.1592 143.181 85.3879C143.638 85.6118 143.988 85.9291 144.23 86.3397C144.478 86.7456 144.601 87.2215 144.601 87.7674C144.601 88.066 144.55 88.3693 144.447 88.6772C144.349 88.9805 144.212 89.2838 144.034 89.5871C143.862 89.8904 143.659 90.189 143.425 90.4829C143.197 90.7769 142.952 91.0661 142.691 91.3507L139.961 94.3112H145.07ZM153.329 92.6175C153.329 93.2381 153.184 93.7653 152.895 94.1992C152.61 94.6285 152.223 94.9551 151.733 95.179C151.248 95.403 150.699 95.515 150.088 95.515C149.477 95.515 148.926 95.403 148.437 95.179C147.947 94.9551 147.559 94.6285 147.275 94.1992C146.99 93.7653 146.848 93.2381 146.848 92.6175C146.848 92.2116 146.925 91.8407 147.079 91.5047C147.237 91.1641 147.459 90.8678 147.744 90.6159C148.033 90.3639 148.374 90.1703 148.765 90.035C149.162 89.895 149.598 89.825 150.074 89.825C150.699 89.825 151.257 89.9463 151.747 90.189C152.237 90.4269 152.622 90.7559 152.902 91.1758C153.186 91.5957 153.329 92.0763 153.329 92.6175ZM152.027 92.5895C152.027 92.2116 151.945 91.878 151.782 91.5887C151.619 91.2948 151.39 91.0661 151.096 90.9028C150.802 90.7395 150.461 90.6579 150.074 90.6579C149.678 90.6579 149.335 90.7395 149.045 90.9028C148.761 91.0661 148.539 91.2948 148.381 91.5887C148.222 91.878 148.143 92.2116 148.143 92.5895C148.143 92.9814 148.22 93.3174 148.374 93.5973C148.532 93.8726 148.756 94.0849 149.045 94.2342C149.339 94.3789 149.687 94.4512 150.088 94.4512C150.489 94.4512 150.835 94.3789 151.124 94.2342C151.413 94.0849 151.635 93.8726 151.789 93.5973C151.948 93.3174 152.027 92.9814 152.027 92.5895ZM153.091 87.8374C153.091 88.332 152.96 88.7776 152.699 89.1742C152.437 89.5707 152.081 89.8834 151.628 90.112C151.175 90.3406 150.662 90.4549 150.088 90.4549C149.505 90.4549 148.985 90.3406 148.528 90.112C148.075 89.8834 147.72 89.5707 147.464 89.1742C147.207 88.7776 147.079 88.332 147.079 87.8374C147.079 87.2448 147.207 86.7409 147.464 86.3257C147.725 85.9104 148.082 85.5932 148.535 85.3739C148.987 85.1546 149.503 85.0449 150.081 85.0449C150.664 85.0449 151.182 85.1546 151.635 85.3739C152.088 85.5932 152.442 85.9104 152.699 86.3257C152.96 86.7409 153.091 87.2448 153.091 87.8374ZM151.796 87.8584C151.796 87.5178 151.724 87.2169 151.579 86.9556C151.434 86.6943 151.234 86.489 150.977 86.3397C150.72 86.1857 150.422 86.1087 150.081 86.1087C149.741 86.1087 149.442 86.181 149.185 86.3257C148.933 86.4657 148.735 86.6663 148.59 86.9276C148.451 87.1889 148.381 87.4991 148.381 87.8584C148.381 88.2083 148.451 88.5139 148.59 88.7752C148.735 89.0365 148.936 89.2395 149.192 89.3841C149.449 89.5288 149.748 89.6011 150.088 89.6011C150.429 89.6011 150.725 89.5288 150.977 89.3841C151.234 89.2395 151.434 89.0365 151.579 88.7752C151.724 88.5139 151.796 88.2083 151.796 87.8584Z" fill="#49454F"/>
<path opacity="0.38" d="M207.237 94.3112V95.375H200.567V94.4442L203.906 90.7279C204.316 90.2706 204.634 89.8834 204.858 89.5661C205.086 89.2441 205.245 88.9572 205.333 88.7052C205.427 88.4486 205.473 88.1873 205.473 87.9214C205.473 87.5854 205.403 87.2822 205.264 87.0116C205.128 86.7363 204.928 86.517 204.662 86.3537C204.396 86.1904 204.074 86.1087 203.696 86.1087C203.243 86.1087 202.865 86.1974 202.562 86.3747C202.263 86.5473 202.039 86.7899 201.89 87.1025C201.741 87.4151 201.666 87.7744 201.666 88.1803H200.371C200.371 87.6064 200.497 87.0815 200.749 86.6056C201.001 86.1297 201.375 85.7518 201.869 85.4718C202.364 85.1872 202.973 85.0449 203.696 85.0449C204.34 85.0449 204.89 85.1592 205.347 85.3879C205.805 85.6118 206.155 85.9291 206.397 86.3397C206.645 86.7456 206.768 87.2215 206.768 87.7674C206.768 88.066 206.717 88.3693 206.614 88.6772C206.516 88.9805 206.379 89.2838 206.201 89.5871C206.029 89.8904 205.826 90.189 205.592 90.4829C205.364 90.7769 205.119 91.0661 204.858 91.3507L202.128 94.3112H207.237ZM210.359 94.2902H210.492C211.238 94.2902 211.845 94.1852 212.311 93.9753C212.778 93.7653 213.137 93.483 213.389 93.1284C213.641 92.7738 213.814 92.3749 213.907 91.9316C214 91.4837 214.047 91.0241 214.047 90.5529V88.9922C214.047 88.5303 213.993 88.1197 213.886 87.7604C213.783 87.4012 213.639 87.1002 213.452 86.8576C213.27 86.615 213.062 86.4307 212.829 86.3047C212.596 86.1787 212.349 86.1157 212.087 86.1157C211.789 86.1157 211.52 86.1764 211.282 86.2977C211.049 86.4143 210.851 86.58 210.688 86.7946C210.529 87.0092 210.408 87.2612 210.324 87.5505C210.24 87.8397 210.198 88.1547 210.198 88.4953C210.198 88.7986 210.235 89.0925 210.31 89.3771C210.384 89.6617 210.499 89.9183 210.653 90.147C210.806 90.3756 210.998 90.5576 211.226 90.6929C211.46 90.8235 211.733 90.8888 212.045 90.8888C212.335 90.8888 212.605 90.8328 212.857 90.7209C213.114 90.6042 213.34 90.4479 213.536 90.252C213.737 90.0513 213.895 89.825 214.012 89.5731C214.133 89.3211 214.203 89.0575 214.222 88.7822H214.838C214.838 89.1695 214.761 89.5521 214.607 89.93C214.457 90.3033 214.248 90.6439 213.977 90.9518C213.706 91.2598 213.389 91.5071 213.025 91.6937C212.661 91.8757 212.265 91.9666 211.835 91.9666C211.331 91.9666 210.895 91.8687 210.527 91.6727C210.158 91.4767 209.855 91.2154 209.617 90.8888C209.383 90.5622 209.208 90.1983 209.092 89.797C208.98 89.3911 208.924 88.9805 208.924 88.5653C208.924 88.08 208.991 87.6251 209.127 87.2005C209.262 86.7759 209.463 86.4027 209.729 86.0807C209.995 85.7541 210.324 85.4998 210.715 85.3179C211.112 85.1359 211.569 85.0449 212.087 85.0449C212.67 85.0449 213.167 85.1616 213.578 85.3949C213.989 85.6281 214.322 85.9408 214.579 86.3327C214.84 86.7246 215.031 87.1655 215.153 87.6554C215.274 88.1453 215.335 88.6493 215.335 89.1672V89.6361C215.335 90.1633 215.3 90.6999 215.23 91.2458C215.164 91.787 215.036 92.3049 214.845 92.7995C214.658 93.2941 214.385 93.7373 214.026 94.1292C213.667 94.5165 213.198 94.8244 212.619 95.0531C212.045 95.277 211.336 95.389 210.492 95.389H210.359V94.2902Z" fill="#49454F"/>
<path opacity="0.38" d="M264.617 89.6431H265.54C265.993 89.6431 266.366 89.5684 266.66 89.4191C266.959 89.2651 267.18 89.0575 267.325 88.7962C267.474 88.5303 267.549 88.2317 267.549 87.9004C267.549 87.5085 267.484 87.1795 267.353 86.9136C267.222 86.6476 267.026 86.447 266.765 86.3117C266.504 86.1764 266.173 86.1087 265.771 86.1087C265.407 86.1087 265.085 86.181 264.806 86.3257C264.53 86.4657 264.313 86.6663 264.155 86.9276C264.001 87.1889 263.924 87.4968 263.924 87.8514H262.629C262.629 87.3335 262.76 86.8623 263.021 86.4377C263.282 86.0131 263.648 85.6748 264.12 85.4229C264.596 85.1709 265.146 85.0449 265.771 85.0449C266.387 85.0449 266.926 85.1546 267.388 85.3739C267.85 85.5885 268.209 85.9104 268.466 86.3397C268.722 86.7643 268.851 87.2938 268.851 87.9284C268.851 88.185 268.79 88.4603 268.669 88.7542C268.552 89.0435 268.368 89.3141 268.116 89.5661C267.869 89.818 267.547 90.0257 267.15 90.189C266.753 90.3476 266.278 90.4269 265.722 90.4269H264.617V89.6431ZM264.617 90.7069V89.93H265.722C266.371 89.93 266.907 90.007 267.332 90.161C267.757 90.3149 268.09 90.5202 268.333 90.7769C268.58 91.0335 268.753 91.3158 268.851 91.6237C268.953 91.927 269.005 92.2303 269.005 92.5335C269.005 93.0094 268.923 93.4317 268.76 93.8003C268.601 94.1689 268.375 94.4815 268.081 94.7381C267.792 94.9947 267.451 95.1884 267.059 95.319C266.667 95.4497 266.24 95.515 265.778 95.515C265.335 95.515 264.917 95.452 264.526 95.326C264.138 95.2 263.795 95.0181 263.497 94.7801C263.198 94.5375 262.965 94.2412 262.797 93.8913C262.629 93.5367 262.545 93.1331 262.545 92.6805H263.84C263.84 93.0351 263.917 93.3454 264.071 93.6113C264.229 93.8773 264.453 94.0849 264.743 94.2342C265.036 94.3789 265.382 94.4512 265.778 94.4512C266.175 94.4512 266.516 94.3835 266.8 94.2482C267.089 94.1082 267.311 93.8983 267.465 93.6183C267.624 93.3384 267.703 92.9861 267.703 92.5615C267.703 92.1369 267.614 91.7893 267.437 91.5187C267.26 91.2434 267.008 91.0405 266.681 90.9098C266.359 90.7745 265.979 90.7069 265.54 90.7069H264.617ZM277.634 89.4681V91.0218C277.634 91.857 277.559 92.5615 277.41 93.1354C277.261 93.7093 277.046 94.1712 276.766 94.5212C276.486 94.8711 276.148 95.1254 275.751 95.284C275.36 95.438 274.916 95.515 274.422 95.515C274.03 95.515 273.668 95.466 273.337 95.368C273.006 95.27 272.707 95.1137 272.441 94.8991C272.18 94.6798 271.956 94.3952 271.769 94.0452C271.583 93.6953 271.44 93.2707 271.342 92.7715C271.244 92.2722 271.195 91.689 271.195 91.0218V89.4681C271.195 88.6329 271.27 87.9331 271.419 87.3685C271.573 86.8039 271.79 86.3513 272.07 86.0107C272.35 85.6655 272.686 85.4182 273.078 85.2689C273.475 85.1196 273.918 85.0449 274.408 85.0449C274.804 85.0449 275.168 85.0939 275.5 85.1919C275.835 85.2852 276.134 85.4368 276.395 85.6468C276.657 85.8521 276.878 86.1274 277.06 86.4727C277.247 86.8133 277.389 87.2308 277.487 87.7254C277.585 88.22 277.634 88.8009 277.634 89.4681ZM276.332 91.2318V89.2511C276.332 88.7939 276.304 88.3926 276.248 88.0474C276.197 87.6974 276.12 87.3988 276.017 87.1515C275.915 86.9042 275.784 86.7036 275.625 86.5496C275.472 86.3957 275.292 86.2837 275.087 86.2137C274.886 86.1391 274.66 86.1017 274.408 86.1017C274.1 86.1017 273.827 86.16 273.589 86.2767C273.351 86.3887 273.15 86.5683 272.987 86.8156C272.828 87.0629 272.707 87.3872 272.623 87.7884C272.539 88.1897 272.497 88.6772 272.497 89.2511V91.2318C272.497 91.689 272.523 92.0926 272.574 92.4425C272.63 92.7925 272.712 93.0958 272.819 93.3524C272.926 93.6043 273.057 93.812 273.211 93.9753C273.365 94.1386 273.542 94.2599 273.743 94.3392C273.948 94.4138 274.174 94.4512 274.422 94.4512C274.739 94.4512 275.017 94.3905 275.255 94.2692C275.493 94.1479 275.691 93.9589 275.849 93.7023C276.013 93.441 276.134 93.1074 276.213 92.7015C276.293 92.2909 276.332 91.801 276.332 91.2318Z" fill="#49454F"/>
<path opacity="0.38" d="M326.784 89.6431H327.707C328.16 89.6431 328.533 89.5684 328.827 89.4191C329.126 89.2651 329.347 89.0575 329.492 88.7962C329.641 88.5303 329.716 88.2317 329.716 87.9004C329.716 87.5085 329.651 87.1795 329.52 86.9136C329.389 86.6476 329.193 86.447 328.932 86.3117C328.671 86.1764 328.34 86.1087 327.938 86.1087C327.574 86.1087 327.252 86.181 326.972 86.3257C326.697 86.4657 326.48 86.6663 326.322 86.9276C326.168 87.1889 326.091 87.4968 326.091 87.8514H324.796C324.796 87.3335 324.927 86.8623 325.188 86.4377C325.449 86.0131 325.815 85.6748 326.287 85.4229C326.763 85.1709 327.313 85.0449 327.938 85.0449C328.554 85.0449 329.093 85.1546 329.555 85.3739C330.017 85.5885 330.376 85.9104 330.633 86.3397C330.889 86.7643 331.018 87.2938 331.018 87.9284C331.018 88.185 330.957 88.4603 330.836 88.7542C330.719 89.0435 330.535 89.3141 330.283 89.5661C330.036 89.818 329.714 90.0257 329.317 90.189C328.92 90.3476 328.445 90.4269 327.889 90.4269H326.784V89.6431ZM326.784 90.7069V89.93H327.889C328.538 89.93 329.074 90.007 329.499 90.161C329.924 90.3149 330.257 90.5202 330.5 90.7769C330.747 91.0335 330.92 91.3158 331.018 91.6237C331.12 91.927 331.172 92.2303 331.172 92.5335C331.172 93.0094 331.09 93.4317 330.927 93.8003C330.768 94.1689 330.542 94.4815 330.248 94.7381C329.959 94.9947 329.618 95.1884 329.226 95.319C328.834 95.4497 328.407 95.515 327.945 95.515C327.502 95.515 327.084 95.452 326.693 95.326C326.305 95.2 325.962 95.0181 325.664 94.7801C325.365 94.5375 325.132 94.2412 324.964 93.8913C324.796 93.5367 324.712 93.1331 324.712 92.6805H326.007C326.007 93.0351 326.084 93.3454 326.238 93.6113C326.396 93.8773 326.62 94.0849 326.91 94.2342C327.203 94.3789 327.549 94.4512 327.945 94.4512C328.342 94.4512 328.683 94.3835 328.967 94.2482C329.256 94.1082 329.478 93.8983 329.632 93.6183C329.791 93.3384 329.87 92.9861 329.87 92.5615C329.87 92.1369 329.781 91.7893 329.604 91.5187C329.427 91.2434 329.175 91.0405 328.848 90.9098C328.526 90.7745 328.146 90.7069 327.707 90.7069H326.784ZM337.66 85.1289V95.375H336.365V86.7456L333.754 87.6974V86.5286L337.457 85.1289H337.66Z" fill="#49454F"/>
<g clip-path="url(#clip2_107_3263)">
<path d="M395.571 85.1289V95.375H394.276V86.7456L391.666 87.6974V86.5286L395.368 85.1289H395.571Z" fill="#1D1B20"/>
</g>
<g clip-path="url(#clip3_107_3263)">
<path d="M24.9924 137.311V138.375H18.3226V137.444L21.661 133.728C22.0716 133.271 22.3888 132.883 22.6128 132.566C22.8414 132.244 23.0001 131.957 23.0887 131.705C23.182 131.449 23.2287 131.187 23.2287 130.921C23.2287 130.585 23.1587 130.282 23.0187 130.012C22.8834 129.736 22.6828 129.517 22.4168 129.354C22.1509 129.19 21.8289 129.109 21.451 129.109C20.9984 129.109 20.6205 129.197 20.3172 129.375C20.0186 129.547 19.7947 129.79 19.6453 130.103C19.496 130.415 19.4214 130.774 19.4214 131.18H18.1266C18.1266 130.606 18.2526 130.082 18.5046 129.606C18.7565 129.13 19.1298 128.752 19.6243 128.472C20.1189 128.187 20.7278 128.045 21.451 128.045C22.0949 128.045 22.6455 128.159 23.1027 128.388C23.5599 128.612 23.9099 128.929 24.1525 129.34C24.3998 129.746 24.5234 130.222 24.5234 130.767C24.5234 131.066 24.4721 131.369 24.3695 131.677C24.2715 131.981 24.1338 132.284 23.9565 132.587C23.7839 132.89 23.5809 133.189 23.3477 133.483C23.119 133.777 22.8741 134.066 22.6128 134.351L19.8833 137.311H24.9924Z" fill="#1D1B20"/>
</g>
<g clip-path="url(#clip4_107_3263)">
<path d="M82.3722 132.643H83.2961C83.7486 132.643 84.1219 132.568 84.4159 132.419C84.7145 132.265 84.9361 132.058 85.0807 131.796C85.23 131.53 85.3047 131.232 85.3047 130.9C85.3047 130.508 85.2394 130.18 85.1087 129.914C84.9781 129.648 84.7821 129.447 84.5208 129.312C84.2595 129.176 83.9283 129.109 83.527 129.109C83.1631 129.109 82.8411 129.181 82.5612 129.326C82.2859 129.466 82.069 129.666 81.9103 129.928C81.7563 130.189 81.6794 130.497 81.6794 130.851H80.3846C80.3846 130.333 80.5152 129.862 80.7765 129.438C81.0378 129.013 81.4041 128.675 81.8753 128.423C82.3512 128.171 82.9018 128.045 83.527 128.045C84.1429 128.045 84.6818 128.155 85.1437 128.374C85.6056 128.588 85.9649 128.91 86.2215 129.34C86.4781 129.764 86.6064 130.294 86.6064 130.928C86.6064 131.185 86.5458 131.46 86.4245 131.754C86.3078 132.044 86.1235 132.314 85.8716 132.566C85.6243 132.818 85.3024 133.026 84.9058 133.189C84.5092 133.348 84.0333 133.427 83.478 133.427H82.3722V132.643ZM82.3722 133.707V132.93H83.478C84.1266 132.93 84.6631 133.007 85.0877 133.161C85.5123 133.315 85.8459 133.52 86.0885 133.777C86.3358 134.033 86.5085 134.316 86.6064 134.624C86.7091 134.927 86.7604 135.23 86.7604 135.534C86.7604 136.009 86.6788 136.432 86.5155 136.8C86.3568 137.169 86.1305 137.481 85.8366 137.738C85.5473 137.995 85.2067 138.188 84.8148 138.319C84.4229 138.45 83.9959 138.515 83.534 138.515C83.0908 138.515 82.6732 138.452 82.2812 138.326C81.894 138.2 81.5511 138.018 81.2524 137.78C80.9538 137.537 80.7205 137.241 80.5526 136.891C80.3846 136.537 80.3006 136.133 80.3006 135.681H81.5954C81.5954 136.035 81.6724 136.345 81.8263 136.611C81.985 136.877 82.2089 137.085 82.4982 137.234C82.7922 137.379 83.1374 137.451 83.534 137.451C83.9306 137.451 84.2712 137.384 84.5558 137.248C84.8451 137.108 85.0667 136.898 85.2207 136.618C85.3793 136.338 85.4587 135.986 85.4587 135.562C85.4587 135.137 85.37 134.789 85.1927 134.519C85.0154 134.243 84.7635 134.04 84.4368 133.91C84.1149 133.775 83.7346 133.707 83.2961 133.707H82.3722Z" fill="#1D1B20"/>
</g>
<g clip-path="url(#clip5_107_3263)">
<rect x="127.916" y="115.458" width="35.8333" height="35.8333" rx="17.9167" fill="#73ABFF"/>
<path d="M149.535 134.946V136.009H142.173V135.247L146.736 128.185H147.793L146.659 130.229L143.642 134.946H149.535ZM148.115 128.185V138.375H146.82V128.185H148.115Z" fill="white"/>
</g>
<g clip-path="url(#clip6_107_3263)">
<path d="M206.453 133.525L205.417 133.259L205.928 128.185H211.156V129.382H207.027L206.719 132.153C206.906 132.046 207.141 131.946 207.426 131.852C207.715 131.759 208.047 131.712 208.42 131.712C208.891 131.712 209.313 131.794 209.687 131.957C210.06 132.116 210.377 132.344 210.639 132.643C210.904 132.942 211.107 133.301 211.247 133.721C211.387 134.141 211.457 134.61 211.457 135.128C211.457 135.618 211.39 136.068 211.254 136.478C211.124 136.889 210.925 137.248 210.66 137.556C210.394 137.859 210.058 138.095 209.652 138.263C209.25 138.431 208.777 138.515 208.231 138.515C207.82 138.515 207.431 138.459 207.062 138.347C206.698 138.23 206.372 138.055 206.082 137.822C205.798 137.584 205.564 137.29 205.382 136.94C205.205 136.586 205.093 136.17 205.047 135.694H206.278C206.334 136.077 206.446 136.399 206.614 136.66C206.782 136.922 207.002 137.12 207.272 137.255C207.547 137.386 207.867 137.451 208.231 137.451C208.539 137.451 208.812 137.398 209.05 137.29C209.288 137.183 209.488 137.029 209.652 136.828C209.815 136.628 209.939 136.385 210.023 136.1C210.111 135.816 210.156 135.496 210.156 135.142C210.156 134.82 210.111 134.521 210.023 134.246C209.934 133.97 209.801 133.73 209.624 133.525C209.451 133.32 209.239 133.161 208.987 133.049C208.735 132.932 208.446 132.874 208.119 132.874C207.685 132.874 207.356 132.932 207.132 133.049C206.913 133.166 206.687 133.324 206.453 133.525Z" fill="#1D1B20"/>
</g>
<g clip-path="url(#clip7_107_3263)">
<path d="M271.951 128.171H272.063V129.27H271.951C271.265 129.27 270.691 129.382 270.229 129.606C269.768 129.825 269.401 130.121 269.131 130.494C268.86 130.863 268.664 131.278 268.543 131.74C268.426 132.202 268.368 132.671 268.368 133.147V134.645C268.368 135.097 268.421 135.499 268.529 135.848C268.636 136.194 268.783 136.485 268.97 136.723C269.156 136.961 269.366 137.141 269.6 137.262C269.838 137.384 270.085 137.444 270.341 137.444C270.64 137.444 270.906 137.388 271.139 137.276C271.373 137.16 271.569 136.999 271.727 136.793C271.891 136.583 272.014 136.336 272.098 136.051C272.182 135.767 272.224 135.454 272.224 135.114C272.224 134.81 272.187 134.519 272.112 134.239C272.037 133.954 271.923 133.702 271.769 133.483C271.615 133.259 271.422 133.084 271.188 132.958C270.96 132.827 270.687 132.762 270.369 132.762C270.01 132.762 269.674 132.851 269.362 133.028C269.054 133.201 268.799 133.429 268.599 133.714C268.403 133.994 268.291 134.299 268.263 134.631L267.577 134.624C267.642 134.101 267.764 133.656 267.941 133.287C268.123 132.914 268.347 132.61 268.613 132.377C268.883 132.139 269.184 131.967 269.516 131.859C269.852 131.747 270.206 131.691 270.579 131.691C271.088 131.691 271.527 131.787 271.895 131.978C272.264 132.169 272.567 132.426 272.805 132.748C273.043 133.065 273.218 133.425 273.33 133.826C273.447 134.222 273.505 134.631 273.505 135.051C273.505 135.531 273.437 135.981 273.302 136.401C273.167 136.821 272.964 137.19 272.693 137.507C272.427 137.824 272.098 138.072 271.706 138.249C271.314 138.426 270.859 138.515 270.341 138.515C269.791 138.515 269.31 138.403 268.9 138.179C268.489 137.95 268.149 137.647 267.878 137.269C267.607 136.891 267.404 136.471 267.269 136.009C267.134 135.548 267.066 135.079 267.066 134.603V133.994C267.066 133.275 267.138 132.571 267.283 131.88C267.428 131.19 267.677 130.564 268.032 130.005C268.391 129.445 268.888 128.999 269.523 128.668C270.157 128.337 270.967 128.171 271.951 128.171Z" fill="#1D1B20"/>
</g>
<g clip-path="url(#clip8_107_3263)">
<path d="M335.735 128.185V128.913L331.515 138.375H330.15L334.363 129.249H328.848V128.185H335.735Z" fill="#1D1B20"/>
</g>
<g clip-path="url(#clip9_107_3263)">
<path d="M397.74 135.618C397.74 136.238 397.596 136.765 397.306 137.199C397.022 137.628 396.635 137.955 396.145 138.179C395.659 138.403 395.111 138.515 394.5 138.515C393.889 138.515 393.338 138.403 392.848 138.179C392.358 137.955 391.971 137.628 391.687 137.199C391.402 136.765 391.26 136.238 391.26 135.618C391.26 135.212 391.337 134.841 391.491 134.505C391.649 134.164 391.871 133.868 392.155 133.616C392.445 133.364 392.785 133.17 393.177 133.035C393.574 132.895 394.01 132.825 394.486 132.825C395.111 132.825 395.669 132.946 396.159 133.189C396.649 133.427 397.034 133.756 397.313 134.176C397.598 134.596 397.74 135.076 397.74 135.618ZM396.439 135.59C396.439 135.212 396.357 134.878 396.194 134.589C396.03 134.295 395.802 134.066 395.508 133.903C395.214 133.74 394.873 133.658 394.486 133.658C394.089 133.658 393.746 133.74 393.457 133.903C393.173 134.066 392.951 134.295 392.792 134.589C392.634 134.878 392.554 135.212 392.554 135.59C392.554 135.981 392.631 136.317 392.785 136.597C392.944 136.873 393.168 137.085 393.457 137.234C393.751 137.379 394.099 137.451 394.5 137.451C394.901 137.451 395.247 137.379 395.536 137.234C395.825 137.085 396.047 136.873 396.201 136.597C396.359 136.317 396.439 135.981 396.439 135.59ZM397.502 130.837C397.502 131.332 397.372 131.778 397.111 132.174C396.849 132.571 396.492 132.883 396.04 133.112C395.587 133.341 395.074 133.455 394.5 133.455C393.917 133.455 393.397 133.341 392.939 133.112C392.487 132.883 392.132 132.571 391.875 132.174C391.619 131.778 391.491 131.332 391.491 130.837C391.491 130.245 391.619 129.741 391.875 129.326C392.137 128.91 392.494 128.593 392.946 128.374C393.399 128.155 393.914 128.045 394.493 128.045C395.076 128.045 395.594 128.155 396.047 128.374C396.499 128.593 396.854 128.91 397.111 129.326C397.372 129.741 397.502 130.245 397.502 130.837ZM396.208 130.858C396.208 130.518 396.135 130.217 395.991 129.956C395.846 129.694 395.645 129.489 395.389 129.34C395.132 129.186 394.834 129.109 394.493 129.109C394.152 129.109 393.854 129.181 393.597 129.326C393.345 129.466 393.147 129.666 393.002 129.928C392.862 130.189 392.792 130.499 392.792 130.858C392.792 131.208 392.862 131.514 393.002 131.775C393.147 132.037 393.348 132.239 393.604 132.384C393.861 132.529 394.159 132.601 394.5 132.601C394.841 132.601 395.137 132.529 395.389 132.384C395.645 132.239 395.846 132.037 395.991 131.775C396.135 131.514 396.208 131.208 396.208 130.858Z" fill="#1D1B20"/>
</g>
<g clip-path="url(#clip10_107_3263)">
<path d="M19.6034 180.29H19.7363C20.4829 180.29 21.0894 180.185 21.556 179.975C22.0226 179.765 22.3818 179.483 22.6338 179.128C22.8857 178.774 23.0584 178.375 23.1517 177.932C23.245 177.484 23.2917 177.024 23.2917 176.553V174.992C23.2917 174.53 23.238 174.12 23.1307 173.76C23.028 173.401 22.8834 173.1 22.6968 172.858C22.5148 172.615 22.3072 172.431 22.0739 172.305C21.8406 172.179 21.5933 172.116 21.332 172.116C21.0334 172.116 20.7651 172.176 20.5272 172.298C20.2939 172.414 20.0956 172.58 19.9323 172.795C19.7737 173.009 19.6523 173.261 19.5684 173.55C19.4844 173.84 19.4424 174.155 19.4424 174.495C19.4424 174.799 19.4797 175.093 19.5544 175.377C19.629 175.662 19.7433 175.918 19.8973 176.147C20.0513 176.376 20.2426 176.558 20.4712 176.693C20.7045 176.824 20.9774 176.889 21.29 176.889C21.5793 176.889 21.8499 176.833 22.1019 176.721C22.3585 176.604 22.5848 176.448 22.7808 176.252C22.9814 176.051 23.14 175.825 23.2567 175.573C23.378 175.321 23.448 175.058 23.4666 174.782H24.0825C24.0825 175.169 24.0055 175.552 23.8516 175.93C23.7023 176.303 23.4923 176.644 23.2217 176.952C22.9511 177.26 22.6338 177.507 22.2699 177.694C21.9059 177.876 21.5093 177.967 21.0801 177.967C20.5762 177.967 20.1399 177.869 19.7713 177.673C19.4027 177.477 19.0994 177.215 18.8615 176.889C18.6282 176.562 18.4532 176.198 18.3366 175.797C18.2246 175.391 18.1686 174.981 18.1686 174.565C18.1686 174.08 18.2363 173.625 18.3716 173.201C18.5069 172.776 18.7075 172.403 18.9735 172.081C19.2394 171.754 19.5684 171.5 19.9603 171.318C20.3569 171.136 20.8141 171.045 21.332 171.045C21.9153 171.045 22.4122 171.162 22.8228 171.395C23.2333 171.628 23.5669 171.941 23.8236 172.333C24.0849 172.725 24.2762 173.166 24.3975 173.655C24.5188 174.145 24.5794 174.649 24.5794 175.167V175.636C24.5794 176.163 24.5444 176.7 24.4744 177.246C24.4091 177.787 24.2808 178.305 24.0895 178.799C23.9029 179.294 23.6299 179.737 23.2707 180.129C22.9114 180.516 22.4425 180.824 21.8639 181.053C21.29 181.277 20.5808 181.389 19.7363 181.389H19.6034V180.29Z" fill="#1D1B20"/>
</g>
<g clip-path="url(#clip11_107_3263)">
<path d="M80.4826 171.129V181.375H79.1878V172.746L76.5773 173.697V172.529L80.2796 171.129H80.4826ZM91.1346 175.468V177.022C91.1346 177.857 91.06 178.562 90.9106 179.135C90.7613 179.709 90.5467 180.171 90.2668 180.521C89.9868 180.871 89.6485 181.125 89.252 181.284C88.86 181.438 88.4168 181.515 87.9222 181.515C87.5303 181.515 87.1687 181.466 86.8374 181.368C86.5061 181.27 86.2075 181.114 85.9416 180.899C85.6803 180.68 85.4563 180.395 85.2697 180.045C85.0831 179.695 84.9408 179.271 84.8428 178.771C84.7448 178.272 84.6958 177.689 84.6958 177.022V175.468C84.6958 174.633 84.7705 173.933 84.9198 173.368C85.0737 172.804 85.2907 172.351 85.5706 172.011C85.8506 171.665 86.1865 171.418 86.5785 171.269C86.975 171.12 87.4183 171.045 87.9082 171.045C88.3048 171.045 88.6687 171.094 89 171.192C89.3359 171.285 89.6345 171.437 89.8958 171.647C90.1571 171.852 90.3787 172.127 90.5607 172.473C90.7473 172.813 90.8896 173.231 90.9876 173.725C91.0856 174.22 91.1346 174.801 91.1346 175.468ZM89.8328 177.232V175.251C89.8328 174.794 89.8049 174.393 89.7489 174.047C89.6975 173.697 89.6206 173.399 89.5179 173.152C89.4153 172.904 89.2846 172.704 89.126 172.55C88.972 172.396 88.7924 172.284 88.5871 172.214C88.3864 172.139 88.1602 172.102 87.9082 172.102C87.6003 172.102 87.3273 172.16 87.0894 172.277C86.8514 172.389 86.6508 172.568 86.4875 172.816C86.3288 173.063 86.2075 173.387 86.1235 173.788C86.0396 174.19 85.9976 174.677 85.9976 175.251V177.232C85.9976 177.689 86.0232 178.093 86.0745 178.443C86.1305 178.792 86.2122 179.096 86.3195 179.352C86.4268 179.604 86.5575 179.812 86.7114 179.975C86.8654 180.139 87.0427 180.26 87.2433 180.339C87.4486 180.414 87.6749 180.451 87.9222 180.451C88.2395 180.451 88.5171 180.391 88.755 180.269C88.993 180.148 89.1913 179.959 89.3499 179.702C89.5132 179.441 89.6345 179.107 89.7139 178.701C89.7932 178.291 89.8328 177.801 89.8328 177.232Z" fill="#1D1B20"/>
</g>
<g clip-path="url(#clip12_107_3263)">
<path d="M142.649 171.129V181.375H141.354V172.746L138.743 173.697V172.529L142.446 171.129H142.649ZM151.159 171.129V181.375H149.864V172.746L147.254 173.697V172.529L150.956 171.129H151.159Z" fill="#1D1B20"/>
</g>
<g clip-path="url(#clip13_107_3263)">
<path d="M204.816 171.129V181.375H203.521V172.746L200.91 173.697V172.529L204.613 171.129H204.816ZM215.748 180.311V181.375H209.078V180.444L212.416 176.728C212.827 176.271 213.144 175.883 213.368 175.566C213.597 175.244 213.755 174.957 213.844 174.705C213.937 174.449 213.984 174.187 213.984 173.921C213.984 173.585 213.914 173.282 213.774 173.012C213.639 172.736 213.438 172.517 213.172 172.354C212.906 172.19 212.584 172.109 212.206 172.109C211.754 172.109 211.376 172.197 211.072 172.375C210.774 172.547 210.55 172.79 210.401 173.103C210.251 173.415 210.177 173.774 210.177 174.18H208.882C208.882 173.606 209.008 173.082 209.26 172.606C209.512 172.13 209.885 171.752 210.38 171.472C210.874 171.187 211.483 171.045 212.206 171.045C212.85 171.045 213.401 171.159 213.858 171.388C214.315 171.612 214.665 171.929 214.908 172.34C215.155 172.746 215.279 173.222 215.279 173.767C215.279 174.066 215.227 174.369 215.125 174.677C215.027 174.981 214.889 175.284 214.712 175.587C214.539 175.89 214.336 176.189 214.103 176.483C213.874 176.777 213.629 177.066 213.368 177.351L210.639 180.311H215.748Z" fill="#1D1B20"/>
</g>
<g clip-path="url(#clip14_107_3263)">
<path d="M266.982 171.129V181.375H265.687V172.746L263.077 173.697V172.529L266.779 171.129H266.982ZM273.127 175.643H274.051C274.503 175.643 274.877 175.568 275.171 175.419C275.469 175.265 275.691 175.058 275.835 174.796C275.985 174.53 276.059 174.232 276.059 173.9C276.059 173.508 275.994 173.18 275.863 172.914C275.733 172.648 275.537 172.447 275.276 172.312C275.014 172.176 274.683 172.109 274.282 172.109C273.918 172.109 273.596 172.181 273.316 172.326C273.041 172.466 272.824 172.666 272.665 172.928C272.511 173.189 272.434 173.497 272.434 173.851H271.139C271.139 173.333 271.27 172.862 271.531 172.438C271.793 172.013 272.159 171.675 272.63 171.423C273.106 171.171 273.657 171.045 274.282 171.045C274.898 171.045 275.437 171.155 275.898 171.374C276.36 171.588 276.72 171.91 276.976 172.34C277.233 172.764 277.361 173.294 277.361 173.928C277.361 174.185 277.301 174.46 277.179 174.754C277.063 175.044 276.878 175.314 276.626 175.566C276.379 175.818 276.057 176.026 275.66 176.189C275.264 176.348 274.788 176.427 274.233 176.427H273.127V175.643ZM273.127 176.707V175.93H274.233C274.881 175.93 275.418 176.007 275.842 176.161C276.267 176.315 276.601 176.52 276.843 176.777C277.091 177.033 277.263 177.316 277.361 177.624C277.464 177.927 277.515 178.23 277.515 178.534C277.515 179.009 277.433 179.432 277.27 179.8C277.112 180.169 276.885 180.481 276.591 180.738C276.302 180.995 275.961 181.188 275.569 181.319C275.178 181.45 274.751 181.515 274.289 181.515C273.845 181.515 273.428 181.452 273.036 181.326C272.649 181.2 272.306 181.018 272.007 180.78C271.709 180.537 271.475 180.241 271.307 179.891C271.139 179.537 271.055 179.133 271.055 178.681H272.35C272.35 179.035 272.427 179.345 272.581 179.611C272.74 179.877 272.964 180.085 273.253 180.234C273.547 180.379 273.892 180.451 274.289 180.451C274.685 180.451 275.026 180.384 275.311 180.248C275.6 180.108 275.821 179.898 275.975 179.618C276.134 179.338 276.213 178.986 276.213 178.562C276.213 178.137 276.125 177.789 275.947 177.519C275.77 177.243 275.518 177.04 275.192 176.91C274.87 176.775 274.489 176.707 274.051 176.707H273.127Z" fill="#1D1B20"/>
</g>
<g clip-path="url(#clip15_107_3263)">
<path d="M329.149 171.129V181.375H327.854V172.746L325.244 173.697V172.529L328.946 171.129H329.149ZM340.291 177.946V179.009H332.928V178.247L337.492 171.185H338.548L337.415 173.229L334.398 177.946H340.291ZM338.87 171.185V181.375H337.576V171.185H338.87Z" fill="#1D1B20"/>
</g>
<g clip-path="url(#clip16_107_3263)">
<rect x="376.583" y="158.458" width="35.8333" height="35.8333" rx="17.9167" fill="#F05F4B"/>
<path d="M391.316 171.129V181.375H390.021V172.746L387.41 173.697V172.529L391.113 171.129H391.316ZM397.208 176.525L396.173 176.259L396.684 171.185H401.912V172.382H397.782L397.474 175.153C397.661 175.046 397.897 174.946 398.181 174.852C398.471 174.759 398.802 174.712 399.175 174.712C399.646 174.712 400.069 174.794 400.442 174.957C400.815 175.116 401.132 175.344 401.394 175.643C401.66 175.942 401.863 176.301 402.003 176.721C402.143 177.141 402.213 177.61 402.213 178.128C402.213 178.618 402.145 179.068 402.01 179.478C401.879 179.889 401.681 180.248 401.415 180.556C401.149 180.859 400.813 181.095 400.407 181.263C400.006 181.431 399.532 181.515 398.986 181.515C398.576 181.515 398.186 181.459 397.817 181.347C397.453 181.23 397.127 181.055 396.838 180.822C396.553 180.584 396.32 180.29 396.138 179.94C395.96 179.586 395.848 179.17 395.802 178.694H397.034C397.09 179.077 397.201 179.399 397.369 179.66C397.537 179.922 397.757 180.12 398.027 180.255C398.303 180.386 398.622 180.451 398.986 180.451C399.294 180.451 399.567 180.398 399.805 180.29C400.043 180.183 400.244 180.029 400.407 179.828C400.57 179.628 400.694 179.385 400.778 179.1C400.866 178.816 400.911 178.496 400.911 178.142C400.911 177.82 400.866 177.521 400.778 177.246C400.689 176.97 400.556 176.73 400.379 176.525C400.206 176.32 399.994 176.161 399.742 176.049C399.49 175.932 399.201 175.874 398.874 175.874C398.44 175.874 398.111 175.932 397.887 176.049C397.668 176.166 397.442 176.324 397.208 176.525Z" fill="white"/>
</g>
<g clip-path="url(#clip17_107_3263)">
<rect x="3.58301" y="201.458" width="35.8333" height="35.8333" rx="17.9167" fill="#73ABFF"/>
<path d="M18.3156 214.129V224.375H17.0208V215.746L14.4103 216.697V215.529L18.1126 214.129H18.3156ZM27.5399 214.171H27.6519V215.27H27.5399C26.854 215.27 26.2801 215.382 25.8182 215.606C25.3563 215.825 24.99 216.121 24.7194 216.494C24.4488 216.863 24.2528 217.278 24.1315 217.74C24.0149 218.202 23.9565 218.671 23.9565 219.147V220.645C23.9565 221.097 24.0102 221.499 24.1175 221.848C24.2248 222.194 24.3718 222.485 24.5584 222.723C24.7451 222.961 24.955 223.141 25.1883 223.262C25.4263 223.384 25.6736 223.444 25.9302 223.444C26.2288 223.444 26.4947 223.388 26.728 223.276C26.9613 223.16 27.1573 222.999 27.3159 222.793C27.4792 222.583 27.6029 222.336 27.6868 222.051C27.7708 221.767 27.8128 221.454 27.8128 221.114C27.8128 220.81 27.7755 220.519 27.7008 220.239C27.6262 219.954 27.5119 219.702 27.3579 219.483C27.2039 219.259 27.0103 219.084 26.777 218.958C26.5484 218.827 26.2754 218.762 25.9582 218.762C25.5989 218.762 25.263 218.851 24.9504 219.028C24.6424 219.201 24.3881 219.429 24.1875 219.714C23.9915 219.994 23.8796 220.299 23.8516 220.631L23.1657 220.624C23.231 220.101 23.3523 219.656 23.5296 219.287C23.7116 218.914 23.9355 218.61 24.2015 218.377C24.4721 218.139 24.7731 217.967 25.1043 217.859C25.4403 217.747 25.7949 217.691 26.1681 217.691C26.6767 217.691 27.1153 217.787 27.4839 217.978C27.8525 218.169 28.1558 218.426 28.3937 218.748C28.6317 219.065 28.8066 219.425 28.9186 219.826C29.0353 220.222 29.0936 220.631 29.0936 221.051C29.0936 221.531 29.0259 221.981 28.8906 222.401C28.7553 222.821 28.5524 223.19 28.2817 223.507C28.0158 223.824 27.6868 224.072 27.2949 224.249C26.903 224.426 26.4481 224.515 25.9302 224.515C25.3796 224.515 24.899 224.403 24.4884 224.179C24.0779 223.95 23.7373 223.647 23.4666 223.269C23.196 222.891 22.9931 222.471 22.8577 222.009C22.7224 221.548 22.6548 221.079 22.6548 220.603V219.994C22.6548 219.275 22.7271 218.571 22.8717 217.88C23.0164 217.19 23.266 216.564 23.6206 216.005C23.9799 215.445 24.4768 214.999 25.1113 214.668C25.7459 214.337 26.5554 214.171 27.5399 214.171Z" fill="white"/>
</g>
<g clip-path="url(#clip18_107_3263)">
<path d="M80.4826 214.129V224.375H79.1878V215.746L76.5773 216.697V215.529L80.2796 214.129H80.4826ZM91.3236 214.185V214.913L87.1034 224.375H85.7386L89.9518 215.249H84.4368V214.185H91.3236Z" fill="#1D1B20"/>
</g>
<g clip-path="url(#clip19_107_3263)">
<path d="M142.649 214.129V224.375H141.354V215.746L138.743 216.697V215.529L142.446 214.129H142.649ZM153.329 221.618C153.329 222.238 153.184 222.765 152.895 223.199C152.61 223.628 152.223 223.955 151.733 224.179C151.248 224.403 150.699 224.515 150.088 224.515C149.477 224.515 148.926 224.403 148.437 224.179C147.947 223.955 147.559 223.628 147.275 223.199C146.99 222.765 146.848 222.238 146.848 221.618C146.848 221.212 146.925 220.841 147.079 220.505C147.237 220.164 147.459 219.868 147.744 219.616C148.033 219.364 148.374 219.17 148.765 219.035C149.162 218.895 149.598 218.825 150.074 218.825C150.699 218.825 151.257 218.946 151.747 219.189C152.237 219.427 152.622 219.756 152.902 220.176C153.186 220.596 153.329 221.076 153.329 221.618ZM152.027 221.59C152.027 221.212 151.945 220.878 151.782 220.589C151.619 220.295 151.39 220.066 151.096 219.903C150.802 219.74 150.461 219.658 150.074 219.658C149.678 219.658 149.335 219.74 149.045 219.903C148.761 220.066 148.539 220.295 148.381 220.589C148.222 220.878 148.143 221.212 148.143 221.59C148.143 221.981 148.22 222.317 148.374 222.597C148.532 222.873 148.756 223.085 149.045 223.234C149.339 223.379 149.687 223.451 150.088 223.451C150.489 223.451 150.835 223.379 151.124 223.234C151.413 223.085 151.635 222.873 151.789 222.597C151.948 222.317 152.027 221.981 152.027 221.59ZM153.091 216.837C153.091 217.332 152.96 217.778 152.699 218.174C152.437 218.571 152.081 218.883 151.628 219.112C151.175 219.341 150.662 219.455 150.088 219.455C149.505 219.455 148.985 219.341 148.528 219.112C148.075 218.883 147.72 218.571 147.464 218.174C147.207 217.778 147.079 217.332 147.079 216.837C147.079 216.245 147.207 215.741 147.464 215.326C147.725 214.91 148.082 214.593 148.535 214.374C148.987 214.155 149.503 214.045 150.081 214.045C150.664 214.045 151.182 214.155 151.635 214.374C152.088 214.593 152.442 214.91 152.699 215.326C152.96 215.741 153.091 216.245 153.091 216.837ZM151.796 216.858C151.796 216.518 151.724 216.217 151.579 215.956C151.434 215.694 151.234 215.489 150.977 215.34C150.72 215.186 150.422 215.109 150.081 215.109C149.741 215.109 149.442 215.181 149.185 215.326C148.933 215.466 148.735 215.666 148.59 215.928C148.451 216.189 148.381 216.499 148.381 216.858C148.381 217.208 148.451 217.514 148.59 217.775C148.735 218.037 148.936 218.239 149.192 218.384C149.449 218.529 149.748 218.601 150.088 218.601C150.429 218.601 150.725 218.529 150.977 218.384C151.234 218.239 151.434 218.037 151.579 217.775C151.724 217.514 151.796 217.208 151.796 216.858Z" fill="#1D1B20"/>
</g>
<g clip-path="url(#clip20_107_3263)">
<path d="M204.816 214.129V224.375H203.521V215.746L200.91 216.697V215.529L204.613 214.129H204.816ZM210.359 223.29H210.492C211.238 223.29 211.845 223.185 212.311 222.975C212.778 222.765 213.137 222.483 213.389 222.128C213.641 221.774 213.814 221.375 213.907 220.932C214 220.484 214.047 220.024 214.047 219.553V217.992C214.047 217.53 213.993 217.12 213.886 216.76C213.783 216.401 213.639 216.1 213.452 215.858C213.27 215.615 213.062 215.431 212.829 215.305C212.596 215.179 212.349 215.116 212.087 215.116C211.789 215.116 211.52 215.176 211.282 215.298C211.049 215.414 210.851 215.58 210.688 215.795C210.529 216.009 210.408 216.261 210.324 216.55C210.24 216.84 210.198 217.155 210.198 217.495C210.198 217.799 210.235 218.093 210.31 218.377C210.384 218.662 210.499 218.918 210.653 219.147C210.806 219.376 210.998 219.558 211.226 219.693C211.46 219.824 211.733 219.889 212.045 219.889C212.335 219.889 212.605 219.833 212.857 219.721C213.114 219.604 213.34 219.448 213.536 219.252C213.737 219.051 213.895 218.825 214.012 218.573C214.133 218.321 214.203 218.058 214.222 217.782H214.838C214.838 218.169 214.761 218.552 214.607 218.93C214.457 219.303 214.248 219.644 213.977 219.952C213.706 220.26 213.389 220.507 213.025 220.694C212.661 220.876 212.265 220.967 211.835 220.967C211.331 220.967 210.895 220.869 210.527 220.673C210.158 220.477 209.855 220.215 209.617 219.889C209.383 219.562 209.208 219.198 209.092 218.797C208.98 218.391 208.924 217.981 208.924 217.565C208.924 217.08 208.991 216.625 209.127 216.201C209.262 215.776 209.463 215.403 209.729 215.081C209.995 214.754 210.324 214.5 210.715 214.318C211.112 214.136 211.569 214.045 212.087 214.045C212.67 214.045 213.167 214.162 213.578 214.395C213.989 214.628 214.322 214.941 214.579 215.333C214.84 215.725 215.031 216.166 215.153 216.655C215.274 217.145 215.335 217.649 215.335 218.167V218.636C215.335 219.163 215.3 219.7 215.23 220.246C215.164 220.787 215.036 221.305 214.845 221.799C214.658 222.294 214.385 222.737 214.026 223.129C213.667 223.516 213.198 223.824 212.619 224.053C212.045 224.277 211.336 224.389 210.492 224.389H210.359V223.29Z" fill="#1D1B20"/>
</g>
<g clip-path="url(#clip21_107_3263)">
<path d="M269.404 223.311V224.375H262.734V223.444L266.072 219.728C266.483 219.271 266.8 218.883 267.024 218.566C267.253 218.244 267.411 217.957 267.5 217.705C267.593 217.449 267.64 217.187 267.64 216.921C267.64 216.585 267.57 216.282 267.43 216.012C267.295 215.736 267.094 215.517 266.828 215.354C266.562 215.19 266.24 215.109 265.862 215.109C265.41 215.109 265.032 215.197 264.729 215.375C264.43 215.547 264.206 215.79 264.057 216.103C263.907 216.415 263.833 216.774 263.833 217.18H262.538C262.538 216.606 262.664 216.082 262.916 215.606C263.168 215.13 263.541 214.752 264.036 214.472C264.53 214.187 265.139 214.045 265.862 214.045C266.506 214.045 267.057 214.159 267.514 214.388C267.971 214.612 268.321 214.929 268.564 215.34C268.811 215.746 268.935 216.222 268.935 216.767C268.935 217.066 268.883 217.369 268.781 217.677C268.683 217.981 268.545 218.284 268.368 218.587C268.195 218.89 267.992 219.189 267.759 219.483C267.53 219.777 267.285 220.066 267.024 220.351L264.295 223.311H269.404ZM277.634 218.468V220.022C277.634 220.857 277.559 221.562 277.41 222.135C277.261 222.709 277.046 223.171 276.766 223.521C276.486 223.871 276.148 224.125 275.751 224.284C275.36 224.438 274.916 224.515 274.422 224.515C274.03 224.515 273.668 224.466 273.337 224.368C273.006 224.27 272.707 224.114 272.441 223.899C272.18 223.68 271.956 223.395 271.769 223.045C271.583 222.695 271.44 222.271 271.342 221.771C271.244 221.272 271.195 220.689 271.195 220.022V218.468C271.195 217.633 271.27 216.933 271.419 216.368C271.573 215.804 271.79 215.351 272.07 215.011C272.35 214.665 272.686 214.418 273.078 214.269C273.475 214.12 273.918 214.045 274.408 214.045C274.804 214.045 275.168 214.094 275.5 214.192C275.835 214.285 276.134 214.437 276.395 214.647C276.657 214.852 276.878 215.127 277.06 215.473C277.247 215.813 277.389 216.231 277.487 216.725C277.585 217.22 277.634 217.801 277.634 218.468ZM276.332 220.232V218.251C276.332 217.794 276.304 217.393 276.248 217.047C276.197 216.697 276.12 216.399 276.017 216.152C275.915 215.904 275.784 215.704 275.625 215.55C275.472 215.396 275.292 215.284 275.087 215.214C274.886 215.139 274.66 215.102 274.408 215.102C274.1 215.102 273.827 215.16 273.589 215.277C273.351 215.389 273.15 215.568 272.987 215.816C272.828 216.063 272.707 216.387 272.623 216.788C272.539 217.19 272.497 217.677 272.497 218.251V220.232C272.497 220.689 272.523 221.093 272.574 221.443C272.63 221.792 272.712 222.096 272.819 222.352C272.926 222.604 273.057 222.812 273.211 222.975C273.365 223.139 273.542 223.26 273.743 223.339C273.948 223.414 274.174 223.451 274.422 223.451C274.739 223.451 275.017 223.391 275.255 223.269C275.493 223.148 275.691 222.959 275.849 222.702C276.013 222.441 276.134 222.107 276.213 221.701C276.293 221.291 276.332 220.801 276.332 220.232Z" fill="#1D1B20"/>
</g>
<g clip-path="url(#clip22_107_3263)">
<path d="M331.571 223.311V224.375H324.901V223.444L328.239 219.728C328.65 219.271 328.967 218.883 329.191 218.566C329.42 218.244 329.578 217.957 329.667 217.705C329.76 217.449 329.807 217.187 329.807 216.921C329.807 216.585 329.737 216.282 329.597 216.012C329.462 215.736 329.261 215.517 328.995 215.354C328.729 215.19 328.407 215.109 328.029 215.109C327.577 215.109 327.199 215.197 326.896 215.375C326.597 215.547 326.373 215.79 326.224 216.103C326.074 216.415 326 216.774 326 217.18H324.705C324.705 216.606 324.831 216.082 325.083 215.606C325.335 215.13 325.708 214.752 326.203 214.472C326.697 214.187 327.306 214.045 328.029 214.045C328.673 214.045 329.224 214.159 329.681 214.388C330.138 214.612 330.488 214.929 330.731 215.34C330.978 215.746 331.102 216.222 331.102 216.767C331.102 217.066 331.05 217.369 330.948 217.677C330.85 217.981 330.712 218.284 330.535 218.587C330.362 218.89 330.159 219.189 329.926 219.483C329.697 219.777 329.452 220.066 329.191 220.351L326.462 223.311H331.571ZM337.66 214.129V224.375H336.365V215.746L333.754 216.697V215.529L337.457 214.129H337.66Z" fill="#1D1B20"/>
</g>
<g clip-path="url(#clip23_107_3263)">
<path d="M393.737 223.311V224.375H387.067V223.444L390.406 219.728C390.816 219.271 391.134 218.883 391.358 218.566C391.586 218.244 391.745 217.957 391.833 217.705C391.927 217.449 391.973 217.187 391.973 216.921C391.973 216.585 391.903 216.282 391.764 216.012C391.628 215.736 391.428 215.517 391.162 215.354C390.896 215.19 390.574 215.109 390.196 215.109C389.743 215.109 389.365 215.197 389.062 215.375C388.763 215.547 388.539 215.79 388.39 216.103C388.241 216.415 388.166 216.774 388.166 217.18H386.871C386.871 216.606 386.997 216.082 387.249 215.606C387.501 215.13 387.875 214.752 388.369 214.472C388.864 214.187 389.473 214.045 390.196 214.045C390.84 214.045 391.39 214.159 391.847 214.388C392.305 214.612 392.655 214.929 392.897 215.34C393.145 215.746 393.268 216.222 393.268 216.767C393.268 217.066 393.217 217.369 393.114 217.677C393.016 217.981 392.879 218.284 392.701 218.587C392.529 218.89 392.326 219.189 392.092 219.483C391.864 219.777 391.619 220.066 391.358 220.351L388.628 223.311H393.737ZM402.248 223.311V224.375H395.578V223.444L398.916 219.728C399.327 219.271 399.644 218.883 399.868 218.566C400.097 218.244 400.255 217.957 400.344 217.705C400.437 217.449 400.484 217.187 400.484 216.921C400.484 216.585 400.414 216.282 400.274 216.012C400.139 215.736 399.938 215.517 399.672 215.354C399.406 215.19 399.084 215.109 398.706 215.109C398.254 215.109 397.876 215.197 397.572 215.375C397.274 215.547 397.05 215.79 396.901 216.103C396.751 216.415 396.677 216.774 396.677 217.18H395.382C395.382 216.606 395.508 216.082 395.76 215.606C396.012 215.13 396.385 214.752 396.88 214.472C397.374 214.187 397.983 214.045 398.706 214.045C399.35 214.045 399.901 214.159 400.358 214.388C400.815 214.612 401.165 214.929 401.408 215.34C401.655 215.746 401.779 216.222 401.779 216.767C401.779 217.066 401.727 217.369 401.625 217.677C401.527 217.981 401.389 218.284 401.212 218.587C401.039 218.89 400.836 219.189 400.603 219.483C400.374 219.777 400.129 220.066 399.868 220.351L397.139 223.311H402.248Z" fill="#1D1B20"/>
</g>
<g clip-path="url(#clip24_107_3263)">
<path d="M20.7371 266.311V267.375H14.0674V266.444L17.4058 262.728C17.8164 262.271 18.1336 261.883 18.3576 261.566C18.5862 261.244 18.7448 260.957 18.8335 260.705C18.9268 260.449 18.9735 260.187 18.9735 259.921C18.9735 259.585 18.9035 259.282 18.7635 259.012C18.6282 258.736 18.4276 258.517 18.1616 258.354C17.8957 258.19 17.5737 258.109 17.1958 258.109C16.7432 258.109 16.3653 258.197 16.062 258.375C15.7634 258.547 15.5394 258.79 15.3901 259.103C15.2408 259.415 15.1662 259.774 15.1662 260.18H13.8714C13.8714 259.606 13.9974 259.082 14.2493 258.606C14.5013 258.13 14.8746 257.752 15.3691 257.472C15.8637 257.187 16.4726 257.045 17.1958 257.045C17.8397 257.045 18.3902 257.159 18.8475 257.388C19.3047 257.612 19.6547 257.929 19.8973 258.34C20.1446 258.746 20.2682 259.222 20.2682 259.767C20.2682 260.066 20.2169 260.369 20.1143 260.677C20.0163 260.981 19.8786 261.284 19.7013 261.587C19.5287 261.89 19.3257 262.189 19.0924 262.483C18.8638 262.777 18.6189 263.066 18.3576 263.351L15.6281 266.311H20.7371ZM24.4604 261.643H25.3843C25.8369 261.643 26.2101 261.568 26.5041 261.419C26.8027 261.265 27.0243 261.058 27.1689 260.796C27.3183 260.53 27.3929 260.232 27.3929 259.9C27.3929 259.508 27.3276 259.18 27.1969 258.914C27.0663 258.648 26.8703 258.447 26.6091 258.312C26.3478 258.176 26.0165 258.109 25.6152 258.109C25.2513 258.109 24.9294 258.181 24.6494 258.326C24.3741 258.466 24.1572 258.666 23.9985 258.928C23.8446 259.189 23.7676 259.497 23.7676 259.851H22.4728C22.4728 259.333 22.6035 258.862 22.8647 258.438C23.126 258.013 23.4923 257.675 23.9635 257.423C24.4395 257.171 24.99 257.045 25.6152 257.045C26.2311 257.045 26.77 257.155 27.2319 257.374C27.6938 257.588 28.0531 257.91 28.3097 258.34C28.5664 258.764 28.6947 259.294 28.6947 259.928C28.6947 260.185 28.634 260.46 28.5127 260.754C28.3961 261.044 28.2118 261.314 27.9598 261.566C27.7125 261.818 27.3906 262.026 26.994 262.189C26.5974 262.348 26.1215 262.427 25.5662 262.427H24.4604V261.643ZM24.4604 262.707V261.93H25.5662C26.2148 261.93 26.7514 262.007 27.1759 262.161C27.6005 262.315 27.9341 262.52 28.1768 262.777C28.424 263.033 28.5967 263.316 28.6947 263.624C28.7973 263.927 28.8486 264.23 28.8486 264.534C28.8486 265.009 28.767 265.432 28.6037 265.8C28.445 266.169 28.2188 266.481 27.9248 266.738C27.6355 266.995 27.2949 267.188 26.903 267.319C26.5111 267.45 26.0841 267.515 25.6222 267.515C25.179 267.515 24.7614 267.452 24.3695 267.326C23.9822 267.2 23.6393 267.018 23.3407 266.78C23.042 266.537 22.8088 266.241 22.6408 265.891C22.4728 265.537 22.3888 265.133 22.3888 264.681H23.6836C23.6836 265.035 23.7606 265.345 23.9146 265.611C24.0732 265.877 24.2971 266.085 24.5864 266.234C24.8804 266.379 25.2256 266.451 25.6222 266.451C26.0188 266.451 26.3594 266.384 26.644 266.248C26.9333 266.108 27.1549 265.898 27.3089 265.618C27.4676 265.338 27.5469 264.986 27.5469 264.562C27.5469 264.137 27.4582 263.789 27.2809 263.519C27.1036 263.243 26.8517 263.04 26.5251 262.91C26.2031 262.775 25.8229 262.707 25.3843 262.707H24.4604Z" fill="#1D1B20"/>
</g>
<g clip-path="url(#clip25_107_3263)">
<path d="M82.9041 266.311V267.375H76.2344V266.444L79.5728 262.728C79.9833 262.271 80.3006 261.883 80.5246 261.566C80.7532 261.244 80.9118 260.957 81.0005 260.705C81.0938 260.449 81.1405 260.187 81.1405 259.921C81.1405 259.585 81.0705 259.282 80.9305 259.012C80.7952 258.736 80.5946 258.517 80.3286 258.354C80.0627 258.19 79.7407 258.109 79.3628 258.109C78.9102 258.109 78.5323 258.197 78.229 258.375C77.9304 258.547 77.7064 258.79 77.5571 259.103C77.4078 259.415 77.3332 259.774 77.3332 260.18H76.0384C76.0384 259.606 76.1644 259.082 76.4163 258.606C76.6683 258.13 77.0416 257.752 77.5361 257.472C78.0307 257.187 78.6396 257.045 79.3628 257.045C80.0067 257.045 80.5572 257.159 81.0145 257.388C81.4717 257.612 81.8217 257.929 82.0643 258.34C82.3116 258.746 82.4352 259.222 82.4352 259.767C82.4352 260.066 82.3839 260.369 82.2813 260.677C82.1833 260.981 82.0456 261.284 81.8683 261.587C81.6957 261.89 81.4927 262.189 81.2594 262.483C81.0308 262.777 80.7859 263.066 80.5246 263.351L77.7951 266.311H82.9041ZM91.6245 263.946V265.009H84.2619V264.247L88.825 257.185H89.8818L88.748 259.229L85.7316 263.946H91.6245ZM90.2038 257.185V267.375H88.909V257.185H90.2038Z" fill="#1D1B20"/>
</g>
<g clip-path="url(#clip26_107_3263)">
<path d="M145.07 266.311V267.375H138.4V266.444L141.739 262.728C142.149 262.271 142.467 261.883 142.691 261.566C142.919 261.244 143.078 260.957 143.167 260.705C143.26 260.449 143.306 260.187 143.306 259.921C143.306 259.585 143.236 259.282 143.097 259.012C142.961 258.736 142.761 258.517 142.495 258.354C142.229 258.19 141.907 258.109 141.529 258.109C141.076 258.109 140.698 258.197 140.395 258.375C140.096 258.547 139.872 258.79 139.723 259.103C139.574 259.415 139.499 259.774 139.499 260.18H138.204C138.204 259.606 138.33 259.082 138.582 258.606C138.834 258.13 139.208 257.752 139.702 257.472C140.197 257.187 140.806 257.045 141.529 257.045C142.173 257.045 142.723 257.159 143.181 257.388C143.638 257.612 143.988 257.929 144.23 258.34C144.478 258.746 144.601 259.222 144.601 259.767C144.601 260.066 144.55 260.369 144.447 260.677C144.349 260.981 144.212 261.284 144.034 261.587C143.862 261.89 143.659 262.189 143.425 262.483C143.197 262.777 142.952 263.066 142.691 263.351L139.961 266.311H145.07ZM148.542 262.525L147.506 262.259L148.017 257.185H153.245V258.382H149.115L148.807 261.153C148.994 261.046 149.23 260.946 149.514 260.852C149.804 260.759 150.135 260.712 150.508 260.712C150.979 260.712 151.402 260.794 151.775 260.957C152.148 261.116 152.465 261.344 152.727 261.643C152.993 261.942 153.196 262.301 153.336 262.721C153.476 263.141 153.546 263.61 153.546 264.128C153.546 264.618 153.478 265.068 153.343 265.478C153.212 265.889 153.014 266.248 152.748 266.556C152.482 266.859 152.146 267.095 151.74 267.263C151.339 267.431 150.865 267.515 150.319 267.515C149.909 267.515 149.519 267.459 149.15 267.347C148.786 267.23 148.46 267.055 148.171 266.822C147.886 266.584 147.653 266.29 147.471 265.94C147.293 265.586 147.181 265.17 147.135 264.694H148.367C148.423 265.077 148.535 265.399 148.702 265.66C148.87 265.922 149.09 266.12 149.36 266.255C149.636 266.386 149.955 266.451 150.319 266.451C150.627 266.451 150.9 266.398 151.138 266.29C151.376 266.183 151.577 266.029 151.74 265.828C151.903 265.628 152.027 265.385 152.111 265.1C152.199 264.816 152.244 264.496 152.244 264.142C152.244 263.82 152.199 263.521 152.111 263.246C152.022 262.97 151.889 262.73 151.712 262.525C151.539 262.32 151.327 262.161 151.075 262.049C150.823 261.932 150.534 261.874 150.207 261.874C149.773 261.874 149.444 261.932 149.22 262.049C149.001 262.166 148.775 262.324 148.542 262.525Z" fill="#1D1B20"/>
</g>
<g clip-path="url(#clip27_107_3263)">
<path d="M207.237 266.311V267.375H200.567V266.444L203.906 262.728C204.316 262.271 204.634 261.883 204.858 261.566C205.086 261.244 205.245 260.957 205.333 260.705C205.427 260.449 205.473 260.187 205.473 259.921C205.473 259.585 205.403 259.282 205.264 259.012C205.128 258.736 204.928 258.517 204.662 258.354C204.396 258.19 204.074 258.109 203.696 258.109C203.243 258.109 202.865 258.197 202.562 258.375C202.263 258.547 202.039 258.79 201.89 259.103C201.741 259.415 201.666 259.774 201.666 260.18H200.371C200.371 259.606 200.497 259.082 200.749 258.606C201.001 258.13 201.375 257.752 201.869 257.472C202.364 257.187 202.973 257.045 203.696 257.045C204.34 257.045 204.89 257.159 205.347 257.388C205.805 257.612 206.155 257.929 206.397 258.34C206.645 258.746 206.768 259.222 206.768 259.767C206.768 260.066 206.717 260.369 206.614 260.677C206.516 260.981 206.379 261.284 206.201 261.587C206.029 261.89 205.826 262.189 205.592 262.483C205.364 262.777 205.119 263.066 204.858 263.351L202.128 266.311H207.237ZM214.04 257.171H214.152V258.27H214.04C213.354 258.27 212.78 258.382 212.318 258.606C211.856 258.825 211.49 259.121 211.219 259.494C210.949 259.863 210.753 260.278 210.632 260.74C210.515 261.202 210.457 261.671 210.457 262.147V263.645C210.457 264.097 210.51 264.499 210.618 264.848C210.725 265.194 210.872 265.485 211.058 265.723C211.245 265.961 211.455 266.141 211.688 266.262C211.926 266.384 212.174 266.444 212.43 266.444C212.729 266.444 212.995 266.388 213.228 266.276C213.461 266.16 213.657 265.999 213.816 265.793C213.979 265.583 214.103 265.336 214.187 265.051C214.271 264.767 214.313 264.454 214.313 264.114C214.313 263.81 214.275 263.519 214.201 263.239C214.126 262.954 214.012 262.702 213.858 262.483C213.704 262.259 213.51 262.084 213.277 261.958C213.048 261.827 212.775 261.762 212.458 261.762C212.099 261.762 211.763 261.851 211.45 262.028C211.142 262.201 210.888 262.429 210.688 262.714C210.492 262.994 210.38 263.299 210.352 263.631L209.666 263.624C209.731 263.101 209.852 262.656 210.03 262.287C210.212 261.914 210.436 261.61 210.701 261.377C210.972 261.139 211.273 260.967 211.604 260.859C211.94 260.747 212.295 260.691 212.668 260.691C213.177 260.691 213.615 260.787 213.984 260.978C214.352 261.169 214.656 261.426 214.894 261.748C215.132 262.065 215.307 262.425 215.419 262.826C215.535 263.222 215.594 263.631 215.594 264.051C215.594 264.531 215.526 264.981 215.391 265.401C215.255 265.821 215.052 266.19 214.782 266.507C214.516 266.824 214.187 267.072 213.795 267.249C213.403 267.426 212.948 267.515 212.43 267.515C211.88 267.515 211.399 267.403 210.988 267.179C210.578 266.95 210.237 266.647 209.967 266.269C209.696 265.891 209.493 265.471 209.358 265.009C209.222 264.548 209.155 264.079 209.155 263.603V262.994C209.155 262.275 209.227 261.571 209.372 260.88C209.516 260.19 209.766 259.564 210.121 259.005C210.48 258.445 210.977 257.999 211.611 257.668C212.246 257.337 213.055 257.171 214.04 257.171Z" fill="#1D1B20"/>
</g>
<g clip-path="url(#clip28_107_3263)">
<rect x="252.25" y="244.458" width="35.8333" height="35.8333" rx="17.9167" fill="#73ABFF"/>
<path d="M269.404 266.311V267.375H262.734V266.444L266.072 262.728C266.483 262.271 266.8 261.883 267.024 261.566C267.253 261.244 267.411 260.957 267.5 260.705C267.593 260.449 267.64 260.187 267.64 259.921C267.64 259.585 267.57 259.282 267.43 259.012C267.295 258.736 267.094 258.517 266.828 258.354C266.562 258.19 266.24 258.109 265.862 258.109C265.41 258.109 265.032 258.197 264.729 258.375C264.43 258.547 264.206 258.79 264.057 259.103C263.907 259.415 263.833 259.774 263.833 260.18H262.538C262.538 259.606 262.664 259.082 262.916 258.606C263.168 258.13 263.541 257.752 264.036 257.472C264.53 257.187 265.139 257.045 265.862 257.045C266.506 257.045 267.057 257.159 267.514 257.388C267.971 257.612 268.321 257.929 268.564 258.34C268.811 258.746 268.935 259.222 268.935 259.767C268.935 260.066 268.883 260.369 268.781 260.677C268.683 260.981 268.545 261.284 268.368 261.587C268.195 261.89 267.992 262.189 267.759 262.483C267.53 262.777 267.285 263.066 267.024 263.351L264.295 266.311H269.404ZM277.823 257.185V257.913L273.603 267.375H272.238L276.451 258.249H270.936V257.185H277.823Z" fill="white"/>
</g>
<g clip-path="url(#clip29_107_3263)">
<path d="M331.571 266.311V267.375H324.901V266.444L328.239 262.728C328.65 262.271 328.967 261.883 329.191 261.566C329.42 261.244 329.578 260.957 329.667 260.705C329.76 260.449 329.807 260.187 329.807 259.921C329.807 259.585 329.737 259.282 329.597 259.012C329.462 258.736 329.261 258.517 328.995 258.354C328.729 258.19 328.407 258.109 328.029 258.109C327.577 258.109 327.199 258.197 326.896 258.375C326.597 258.547 326.373 258.79 326.224 259.103C326.074 259.415 326 259.774 326 260.18H324.705C324.705 259.606 324.831 259.082 325.083 258.606C325.335 258.13 325.708 257.752 326.203 257.472C326.697 257.187 327.306 257.045 328.029 257.045C328.673 257.045 329.224 257.159 329.681 257.388C330.138 257.612 330.488 257.929 330.731 258.34C330.978 258.746 331.102 259.222 331.102 259.767C331.102 260.066 331.05 260.369 330.948 260.677C330.85 260.981 330.712 261.284 330.535 261.587C330.362 261.89 330.159 262.189 329.926 262.483C329.697 262.777 329.452 263.066 329.191 263.351L326.462 266.311H331.571ZM339.829 264.618C339.829 265.238 339.684 265.765 339.395 266.199C339.111 266.628 338.723 266.955 338.233 267.179C337.748 267.403 337.2 267.515 336.589 267.515C335.977 267.515 335.427 267.403 334.937 267.179C334.447 266.955 334.06 266.628 333.775 266.199C333.491 265.765 333.348 265.238 333.348 264.618C333.348 264.212 333.425 263.841 333.579 263.505C333.738 263.164 333.96 262.868 334.244 262.616C334.533 262.364 334.874 262.17 335.266 262.035C335.663 261.895 336.099 261.825 336.575 261.825C337.2 261.825 337.757 261.946 338.247 262.189C338.737 262.427 339.122 262.756 339.402 263.176C339.687 263.596 339.829 264.076 339.829 264.618ZM338.527 264.59C338.527 264.212 338.446 263.878 338.282 263.589C338.119 263.295 337.89 263.066 337.597 262.903C337.303 262.74 336.962 262.658 336.575 262.658C336.178 262.658 335.835 262.74 335.546 262.903C335.261 263.066 335.04 263.295 334.881 263.589C334.722 263.878 334.643 264.212 334.643 264.59C334.643 264.981 334.72 265.317 334.874 265.597C335.033 265.873 335.257 266.085 335.546 266.234C335.84 266.379 336.187 266.451 336.589 266.451C336.99 266.451 337.335 266.379 337.625 266.234C337.914 266.085 338.135 265.873 338.289 265.597C338.448 265.317 338.527 264.981 338.527 264.59ZM339.591 259.837C339.591 260.332 339.461 260.778 339.199 261.174C338.938 261.571 338.581 261.883 338.128 262.112C337.676 262.341 337.163 262.455 336.589 262.455C336.005 262.455 335.485 262.341 335.028 262.112C334.575 261.883 334.221 261.571 333.964 261.174C333.708 260.778 333.579 260.332 333.579 259.837C333.579 259.245 333.708 258.741 333.964 258.326C334.225 257.91 334.582 257.593 335.035 257.374C335.488 257.155 336.003 257.045 336.582 257.045C337.165 257.045 337.683 257.155 338.135 257.374C338.588 257.593 338.943 257.91 339.199 258.326C339.461 258.741 339.591 259.245 339.591 259.837ZM338.296 259.858C338.296 259.518 338.224 259.217 338.079 258.956C337.935 258.694 337.734 258.489 337.478 258.34C337.221 258.186 336.922 258.109 336.582 258.109C336.241 258.109 335.942 258.181 335.686 258.326C335.434 258.466 335.236 258.666 335.091 258.928C334.951 259.189 334.881 259.499 334.881 259.858C334.881 260.208 334.951 260.514 335.091 260.775C335.236 261.037 335.436 261.239 335.693 261.384C335.949 261.529 336.248 261.601 336.589 261.601C336.929 261.601 337.226 261.529 337.478 261.384C337.734 261.239 337.935 261.037 338.079 260.775C338.224 260.514 338.296 260.208 338.296 259.858Z" fill="#1D1B20"/>
</g>
<g clip-path="url(#clip30_107_3263)">
<path d="M393.737 266.311V267.375H387.067V266.444L390.406 262.728C390.816 262.271 391.134 261.883 391.358 261.566C391.586 261.244 391.745 260.957 391.833 260.705C391.927 260.449 391.973 260.187 391.973 259.921C391.973 259.585 391.903 259.282 391.764 259.012C391.628 258.736 391.428 258.517 391.162 258.354C390.896 258.19 390.574 258.109 390.196 258.109C389.743 258.109 389.365 258.197 389.062 258.375C388.763 258.547 388.539 258.79 388.39 259.103C388.241 259.415 388.166 259.774 388.166 260.18H386.871C386.871 259.606 386.997 259.082 387.249 258.606C387.501 258.13 387.875 257.752 388.369 257.472C388.864 257.187 389.473 257.045 390.196 257.045C390.84 257.045 391.39 257.159 391.847 257.388C392.305 257.612 392.655 257.929 392.897 258.34C393.145 258.746 393.268 259.222 393.268 259.767C393.268 260.066 393.217 260.369 393.114 260.677C393.016 260.981 392.879 261.284 392.701 261.587C392.529 261.89 392.326 262.189 392.092 262.483C391.864 262.777 391.619 263.066 391.358 263.351L388.628 266.311H393.737ZM396.859 266.29H396.992C397.738 266.29 398.345 266.185 398.811 265.975C399.278 265.765 399.637 265.483 399.889 265.128C400.141 264.774 400.314 264.375 400.407 263.932C400.5 263.484 400.547 263.024 400.547 262.553V260.992C400.547 260.53 400.493 260.12 400.386 259.76C400.283 259.401 400.139 259.1 399.952 258.858C399.77 258.615 399.562 258.431 399.329 258.305C399.096 258.179 398.849 258.116 398.587 258.116C398.289 258.116 398.02 258.176 397.782 258.298C397.549 258.414 397.351 258.58 397.188 258.795C397.029 259.009 396.908 259.261 396.824 259.55C396.74 259.84 396.698 260.155 396.698 260.495C396.698 260.799 396.735 261.093 396.81 261.377C396.884 261.662 396.999 261.918 397.153 262.147C397.306 262.376 397.498 262.558 397.726 262.693C397.96 262.824 398.233 262.889 398.545 262.889C398.835 262.889 399.105 262.833 399.357 262.721C399.614 262.604 399.84 262.448 400.036 262.252C400.237 262.051 400.395 261.825 400.512 261.573C400.633 261.321 400.703 261.058 400.722 260.782H401.338C401.338 261.169 401.261 261.552 401.107 261.93C400.957 262.303 400.748 262.644 400.477 262.952C400.206 263.26 399.889 263.507 399.525 263.694C399.161 263.876 398.765 263.967 398.335 263.967C397.831 263.967 397.395 263.869 397.027 263.673C396.658 263.477 396.355 263.215 396.117 262.889C395.883 262.562 395.708 262.198 395.592 261.797C395.48 261.391 395.424 260.981 395.424 260.565C395.424 260.08 395.491 259.625 395.627 259.201C395.762 258.776 395.963 258.403 396.229 258.081C396.495 257.754 396.824 257.5 397.215 257.318C397.612 257.136 398.069 257.045 398.587 257.045C399.17 257.045 399.667 257.162 400.078 257.395C400.489 257.628 400.822 257.941 401.079 258.333C401.34 258.725 401.531 259.166 401.653 259.655C401.774 260.145 401.835 260.649 401.835 261.167V261.636C401.835 262.163 401.8 262.7 401.73 263.246C401.664 263.787 401.536 264.305 401.345 264.799C401.158 265.294 400.885 265.737 400.526 266.129C400.167 266.516 399.698 266.824 399.119 267.053C398.545 267.277 397.836 267.389 396.992 267.389H396.859V266.29Z" fill="#1D1B20"/>
</g>
<g clip-path="url(#clip31_107_3263)">
<path d="M15.95 304.643H16.8739C17.3264 304.643 17.6997 304.568 17.9937 304.419C18.2923 304.265 18.5139 304.058 18.6585 303.796C18.8078 303.53 18.8825 303.232 18.8825 302.9C18.8825 302.508 18.8172 302.18 18.6865 301.914C18.5559 301.648 18.3599 301.447 18.0986 301.312C17.8373 301.176 17.5061 301.109 17.1048 301.109C16.7409 301.109 16.4189 301.181 16.139 301.326C15.8637 301.466 15.6468 301.666 15.4881 301.928C15.3341 302.189 15.2572 302.497 15.2572 302.851H13.9624C13.9624 302.333 14.093 301.862 14.3543 301.438C14.6156 301.013 14.9819 300.675 15.4531 300.423C15.929 300.171 16.4796 300.045 17.1048 300.045C17.7207 300.045 18.2596 300.155 18.7215 300.374C19.1834 300.588 19.5427 300.91 19.7993 301.34C20.0559 301.764 20.1842 302.294 20.1842 302.928C20.1842 303.185 20.1236 303.46 20.0023 303.754C19.8856 304.044 19.7013 304.314 19.4494 304.566C19.2021 304.818 18.8802 305.026 18.4836 305.189C18.087 305.348 17.6111 305.427 17.0558 305.427H15.95V304.643ZM15.95 305.707V304.93H17.0558C17.7044 304.93 18.2409 305.007 18.6655 305.161C19.0901 305.315 19.4237 305.52 19.6663 305.777C19.9136 306.033 20.0863 306.316 20.1842 306.624C20.2869 306.927 20.3382 307.23 20.3382 307.534C20.3382 308.009 20.2566 308.432 20.0933 308.8C19.9346 309.169 19.7083 309.481 19.4144 309.738C19.1251 309.995 18.7845 310.188 18.3926 310.319C18.0007 310.45 17.5737 310.515 17.1118 310.515C16.6686 310.515 16.251 310.452 15.859 310.326C15.4718 310.2 15.1289 310.018 14.8302 309.78C14.5316 309.537 14.2983 309.241 14.1304 308.891C13.9624 308.537 13.8784 308.133 13.8784 307.681H15.1732C15.1732 308.035 15.2502 308.345 15.4041 308.611C15.5628 308.877 15.7867 309.085 16.076 309.234C16.37 309.379 16.7152 309.451 17.1118 309.451C17.5084 309.451 17.849 309.384 18.1336 309.248C18.4229 309.108 18.6445 308.898 18.7985 308.618C18.9571 308.338 19.0365 307.986 19.0365 307.562C19.0365 307.137 18.9478 306.789 18.7705 306.519C18.5932 306.243 18.3413 306.04 18.0146 305.91C17.6927 305.775 17.3124 305.707 16.8739 305.707H15.95ZM28.9676 304.468V306.022C28.9676 306.857 28.893 307.562 28.7437 308.135C28.5943 308.709 28.3797 309.171 28.0998 309.521C27.8198 309.871 27.4816 310.125 27.085 310.284C26.693 310.438 26.2498 310.515 25.7552 310.515C25.3633 310.515 25.0017 310.466 24.6704 310.368C24.3391 310.27 24.0405 310.114 23.7746 309.899C23.5133 309.68 23.2893 309.395 23.1027 309.045C22.9161 308.695 22.7738 308.271 22.6758 307.771C22.5778 307.272 22.5288 306.689 22.5288 306.022V304.468C22.5288 303.633 22.6035 302.933 22.7528 302.368C22.9067 301.804 23.1237 301.351 23.4036 301.011C23.6836 300.665 24.0195 300.418 24.4115 300.269C24.8081 300.12 25.2513 300.045 25.7412 300.045C26.1378 300.045 26.5017 300.094 26.833 300.192C27.1689 300.285 27.4676 300.437 27.7288 300.647C27.9901 300.852 28.2118 301.127 28.3937 301.473C28.5803 301.813 28.7227 302.231 28.8206 302.725C28.9186 303.22 28.9676 303.801 28.9676 304.468ZM27.6659 306.232V304.251C27.6659 303.794 27.6379 303.393 27.5819 303.047C27.5305 302.697 27.4536 302.399 27.3509 302.152C27.2483 301.904 27.1176 301.704 26.959 301.55C26.805 301.396 26.6254 301.284 26.4201 301.214C26.2195 301.139 25.9932 301.102 25.7412 301.102C25.4333 301.102 25.1603 301.16 24.9224 301.277C24.6844 301.389 24.4838 301.568 24.3205 301.816C24.1618 302.063 24.0405 302.387 23.9565 302.788C23.8726 303.19 23.8306 303.677 23.8306 304.251V306.232C23.8306 306.689 23.8562 307.093 23.9076 307.443C23.9635 307.792 24.0452 308.096 24.1525 308.352C24.2598 308.604 24.3905 308.812 24.5444 308.975C24.6984 309.139 24.8757 309.26 25.0763 309.339C25.2816 309.414 25.5079 309.451 25.7552 309.451C26.0725 309.451 26.3501 309.391 26.5881 309.269C26.826 309.148 27.0243 308.959 27.1829 308.702C27.3462 308.441 27.4676 308.107 27.5469 307.701C27.6262 307.291 27.6659 306.801 27.6659 306.232Z" fill="#1D1B20"/>
</g>
<path opacity="0.38" d="M84.7378 300.129V310.375H83.443V301.746L80.8325 302.697V301.529L84.5348 300.129H84.7378Z" fill="#49454F"/>
<path opacity="0.38" d="M149.325 309.311V310.375H142.656V309.444L145.994 305.728C146.405 305.271 146.722 304.883 146.946 304.566C147.174 304.244 147.333 303.957 147.422 303.705C147.515 303.449 147.562 303.187 147.562 302.921C147.562 302.585 147.492 302.282 147.352 302.012C147.216 301.736 147.016 301.517 146.75 301.354C146.484 301.19 146.162 301.109 145.784 301.109C145.331 301.109 144.954 301.197 144.65 301.375C144.352 301.547 144.128 301.79 143.978 302.103C143.829 302.415 143.754 302.774 143.754 303.18H142.46C142.46 302.606 142.586 302.082 142.838 301.606C143.09 301.13 143.463 300.752 143.957 300.472C144.452 300.187 145.061 300.045 145.784 300.045C146.428 300.045 146.978 300.159 147.436 300.388C147.893 300.612 148.243 300.929 148.486 301.34C148.733 301.746 148.856 302.222 148.856 302.767C148.856 303.066 148.805 303.369 148.702 303.677C148.604 303.981 148.467 304.284 148.29 304.587C148.117 304.89 147.914 305.189 147.681 305.483C147.452 305.777 147.207 306.066 146.946 306.351L144.216 309.311H149.325Z" fill="#49454F"/>
<path opacity="0.38" d="M206.705 304.643H207.629C208.082 304.643 208.455 304.568 208.749 304.419C209.047 304.265 209.269 304.058 209.414 303.796C209.563 303.53 209.638 303.232 209.638 302.9C209.638 302.508 209.572 302.18 209.442 301.914C209.311 301.648 209.115 301.447 208.854 301.312C208.593 301.176 208.261 301.109 207.86 301.109C207.496 301.109 207.174 301.181 206.894 301.326C206.619 301.466 206.402 301.666 206.243 301.928C206.089 302.189 206.012 302.497 206.012 302.851H204.718C204.718 302.333 204.848 301.862 205.11 301.438C205.371 301.013 205.737 300.675 206.208 300.423C206.684 300.171 207.235 300.045 207.86 300.045C208.476 300.045 209.015 300.155 209.477 300.374C209.939 300.588 210.298 300.91 210.555 301.34C210.811 301.764 210.939 302.294 210.939 302.928C210.939 303.185 210.879 303.46 210.757 303.754C210.641 304.044 210.457 304.314 210.205 304.566C209.957 304.818 209.635 305.026 209.239 305.189C208.842 305.348 208.366 305.427 207.811 305.427H206.705V304.643ZM206.705 305.707V304.93H207.811C208.46 304.93 208.996 305.007 209.421 305.161C209.845 305.315 210.179 305.52 210.422 305.777C210.669 306.033 210.841 306.316 210.939 306.624C211.042 306.927 211.093 307.23 211.093 307.534C211.093 308.009 211.012 308.432 210.848 308.8C210.69 309.169 210.464 309.481 210.17 309.738C209.88 309.995 209.54 310.188 209.148 310.319C208.756 310.45 208.329 310.515 207.867 310.515C207.424 310.515 207.006 310.452 206.614 310.326C206.227 310.2 205.884 310.018 205.585 309.78C205.287 309.537 205.054 309.241 204.886 308.891C204.718 308.537 204.634 308.133 204.634 307.681H205.928C205.928 308.035 206.005 308.345 206.159 308.611C206.318 308.877 206.542 309.085 206.831 309.234C207.125 309.379 207.47 309.451 207.867 309.451C208.264 309.451 208.604 309.384 208.889 309.248C209.178 309.108 209.4 308.898 209.554 308.618C209.712 308.338 209.792 307.986 209.792 307.562C209.792 307.137 209.703 306.789 209.526 306.519C209.348 306.243 209.096 306.04 208.77 305.91C208.448 305.775 208.068 305.707 207.629 305.707H206.705Z" fill="#49454F"/>
<path opacity="0.38" d="M273.869 306.946V308.009H266.506V307.247L271.069 300.185H272.126L270.992 302.229L267.976 306.946H273.869ZM272.448 300.185V310.375H271.153V300.185H272.448Z" fill="#49454F"/>
<path opacity="0.38" d="M330.787 305.525L329.751 305.259L330.262 300.185H335.49V301.382H331.361L331.053 304.153C331.239 304.046 331.475 303.946 331.76 303.852C332.049 303.759 332.38 303.712 332.753 303.712C333.225 303.712 333.647 303.794 334.02 303.957C334.393 304.116 334.711 304.344 334.972 304.643C335.238 304.942 335.441 305.301 335.581 305.721C335.721 306.141 335.791 306.61 335.791 307.128C335.791 307.618 335.723 308.068 335.588 308.478C335.457 308.889 335.259 309.248 334.993 309.556C334.727 309.859 334.391 310.095 333.985 310.263C333.584 310.431 333.11 310.515 332.564 310.515C332.154 310.515 331.764 310.459 331.396 310.347C331.032 310.23 330.705 310.055 330.416 309.822C330.131 309.584 329.898 309.29 329.716 308.94C329.539 308.586 329.427 308.17 329.38 307.694H330.612C330.668 308.077 330.78 308.399 330.948 308.66C331.116 308.922 331.335 309.12 331.606 309.255C331.881 309.386 332.201 309.451 332.564 309.451C332.872 309.451 333.145 309.398 333.383 309.29C333.621 309.183 333.822 309.029 333.985 308.828C334.148 308.628 334.272 308.385 334.356 308.1C334.445 307.816 334.489 307.496 334.489 307.142C334.489 306.82 334.445 306.521 334.356 306.246C334.267 305.97 334.134 305.73 333.957 305.525C333.785 305.32 333.572 305.161 333.32 305.049C333.068 304.932 332.779 304.874 332.452 304.874C332.019 304.874 331.69 304.932 331.466 305.049C331.246 305.166 331.02 305.324 330.787 305.525Z" fill="#49454F"/>
<path opacity="0.38" d="M396.285 300.171H396.397V301.27H396.285C395.599 301.27 395.025 301.382 394.563 301.606C394.101 301.825 393.735 302.121 393.464 302.494C393.194 302.863 392.998 303.278 392.876 303.74C392.76 304.202 392.701 304.671 392.701 305.147V306.645C392.701 307.097 392.755 307.499 392.862 307.848C392.97 308.194 393.117 308.485 393.303 308.723C393.49 308.961 393.7 309.141 393.933 309.262C394.171 309.384 394.418 309.444 394.675 309.444C394.974 309.444 395.24 309.388 395.473 309.276C395.706 309.16 395.902 308.999 396.061 308.793C396.224 308.583 396.348 308.336 396.432 308.051C396.516 307.767 396.558 307.454 396.558 307.114C396.558 306.81 396.52 306.519 396.446 306.239C396.371 305.954 396.257 305.702 396.103 305.483C395.949 305.259 395.755 305.084 395.522 304.958C395.293 304.827 395.02 304.762 394.703 304.762C394.344 304.762 394.008 304.851 393.695 305.028C393.387 305.201 393.133 305.429 392.932 305.714C392.736 305.994 392.624 306.299 392.596 306.631L391.91 306.624C391.976 306.101 392.097 305.656 392.274 305.287C392.456 304.914 392.68 304.61 392.946 304.377C393.217 304.139 393.518 303.967 393.849 303.859C394.185 303.747 394.54 303.691 394.913 303.691C395.421 303.691 395.86 303.787 396.229 303.978C396.597 304.169 396.901 304.426 397.139 304.748C397.376 305.065 397.551 305.425 397.663 305.826C397.78 306.222 397.838 306.631 397.838 307.051C397.838 307.531 397.771 307.981 397.635 308.401C397.5 308.821 397.297 309.19 397.027 309.507C396.761 309.824 396.432 310.072 396.04 310.249C395.648 310.426 395.193 310.515 394.675 310.515C394.124 310.515 393.644 310.403 393.233 310.179C392.823 309.95 392.482 309.647 392.211 309.269C391.941 308.891 391.738 308.471 391.603 308.009C391.467 307.548 391.4 307.079 391.4 306.603V305.994C391.4 305.275 391.472 304.571 391.617 303.88C391.761 303.19 392.011 302.564 392.365 302.005C392.725 301.445 393.222 300.999 393.856 300.668C394.491 300.337 395.3 300.171 396.285 300.171Z" fill="#49454F"/>
<defs>
<clipPath id="clip0_107_3263">
<rect x="2.73926" y="2.7395" width="27.3958" height="27.3958" rx="13.6979" fill="white"/>
</clipPath>
<clipPath id="clip1_107_3263">
<rect x="385.865" y="2.7395" width="27.3958" height="27.3958" rx="13.6979" fill="white"/>
</clipPath>
<clipPath id="clip2_107_3263">
<rect x="376.583" y="72.4583" width="35.8333" height="35.8333" rx="17.9167" fill="white"/>
</clipPath>
<clipPath id="clip3_107_3263">
<rect x="3.58301" y="115.458" width="35.8333" height="35.8333" rx="17.9167" fill="white"/>
</clipPath>
<clipPath id="clip4_107_3263">
<rect x="65.75" y="115.458" width="35.8333" height="35.8333" rx="17.9167" fill="white"/>
</clipPath>
<clipPath id="clip5_107_3263">
<rect x="127.916" y="115.458" width="35.8333" height="35.8333" rx="17.9167" fill="white"/>
</clipPath>
<clipPath id="clip6_107_3263">
<rect x="190.083" y="115.458" width="35.8333" height="35.8333" rx="17.9167" fill="white"/>
</clipPath>
<clipPath id="clip7_107_3263">
<rect x="252.25" y="115.458" width="35.8333" height="35.8333" rx="17.9167" fill="white"/>
</clipPath>
<clipPath id="clip8_107_3263">
<rect x="314.417" y="115.458" width="35.8333" height="35.8333" rx="17.9167" fill="white"/>
</clipPath>
<clipPath id="clip9_107_3263">
<rect x="376.583" y="115.458" width="35.8333" height="35.8333" rx="17.9167" fill="white"/>
</clipPath>
<clipPath id="clip10_107_3263">
<rect x="3.58301" y="158.458" width="35.8333" height="35.8333" rx="17.9167" fill="white"/>
</clipPath>
<clipPath id="clip11_107_3263">
<rect x="65.75" y="158.458" width="35.8333" height="35.8333" rx="17.9167" fill="white"/>
</clipPath>
<clipPath id="clip12_107_3263">
<rect x="127.916" y="158.458" width="35.8333" height="35.8333" rx="17.9167" fill="white"/>
</clipPath>
<clipPath id="clip13_107_3263">
<rect x="190.083" y="158.458" width="35.8333" height="35.8333" rx="17.9167" fill="white"/>
</clipPath>
<clipPath id="clip14_107_3263">
<rect x="252.25" y="158.458" width="35.8333" height="35.8333" rx="17.9167" fill="white"/>
</clipPath>
<clipPath id="clip15_107_3263">
<rect x="314.417" y="158.458" width="35.8333" height="35.8333" rx="17.9167" fill="white"/>
</clipPath>
<clipPath id="clip16_107_3263">
<rect x="376.583" y="158.458" width="35.8333" height="35.8333" rx="17.9167" fill="white"/>
</clipPath>
<clipPath id="clip17_107_3263">
<rect x="3.58301" y="201.458" width="35.8333" height="35.8333" rx="17.9167" fill="white"/>
</clipPath>
<clipPath id="clip18_107_3263">
<rect x="65.75" y="201.458" width="35.8333" height="35.8333" rx="17.9167" fill="white"/>
</clipPath>
<clipPath id="clip19_107_3263">
<rect x="127.916" y="201.458" width="35.8333" height="35.8333" rx="17.9167" fill="white"/>
</clipPath>
<clipPath id="clip20_107_3263">
<rect x="190.083" y="201.458" width="35.8333" height="35.8333" rx="17.9167" fill="white"/>
</clipPath>
<clipPath id="clip21_107_3263">
<rect x="252.25" y="201.458" width="35.8333" height="35.8333" rx="17.9167" fill="white"/>
</clipPath>
<clipPath id="clip22_107_3263">
<rect x="314.417" y="201.458" width="35.8333" height="35.8333" rx="17.9167" fill="white"/>
</clipPath>
<clipPath id="clip23_107_3263">
<rect x="376.583" y="201.458" width="35.8333" height="35.8333" rx="17.9167" fill="white"/>
</clipPath>
<clipPath id="clip24_107_3263">
<rect x="3.58301" y="244.458" width="35.8333" height="35.8333" rx="17.9167" fill="white"/>
</clipPath>
<clipPath id="clip25_107_3263">
<rect x="65.75" y="244.458" width="35.8333" height="35.8333" rx="17.9167" fill="white"/>
</clipPath>
<clipPath id="clip26_107_3263">
<rect x="127.916" y="244.458" width="35.8333" height="35.8333" rx="17.9167" fill="white"/>
</clipPath>
<clipPath id="clip27_107_3263">
<rect x="190.083" y="244.458" width="35.8333" height="35.8333" rx="17.9167" fill="white"/>
</clipPath>
<clipPath id="clip28_107_3263">
<rect x="252.25" y="244.458" width="35.8333" height="35.8333" rx="17.9167" fill="white"/>
</clipPath>
<clipPath id="clip29_107_3263">
<rect x="314.417" y="244.458" width="35.8333" height="35.8333" rx="17.9167" fill="white"/>
</clipPath>
<clipPath id="clip30_107_3263">
<rect x="376.583" y="244.458" width="35.8333" height="35.8333" rx="17.9167" fill="white"/>
</clipPath>
<clipPath id="clip31_107_3263">
<rect x="3.58301" y="287.458" width="35.8333" height="35.8333" rx="17.9167" fill="white"/>
</clipPath>
</defs>
</svg>
