<svg width="36" height="36" viewBox="0 0 36 36" fill="none" xmlns="http://www.w3.org/2000/svg">
<rect width="36" height="36" rx="8" fill="#F05F4B"/>
<mask id="mask0_115_2289" style="mask-type:alpha" maskUnits="userSpaceOnUse" x="6" y="6" width="24" height="24">
<rect x="6" y="6" width="24" height="24" fill="#D9D9D9"/>
</mask>
<g mask="url(#mask0_115_2289)">
<path d="M13.8248 18.9998L18.7248 23.8998C18.9248 24.0998 19.0206 24.3331 19.0123 24.5998C19.004 24.8665 18.8998 25.0998 18.6998 25.2998C18.4998 25.4831 18.2665 25.579 17.9998 25.5873C17.7331 25.5956 17.4998 25.4998 17.2998 25.2998L10.6998 18.6998C10.5998 18.5998 10.529 18.4915 10.4873 18.3748C10.4456 18.2581 10.4248 18.1331 10.4248 17.9998C10.4248 17.8665 10.4456 17.7415 10.4873 17.6248C10.529 17.5081 10.5998 17.3998 10.6998 17.2998L17.2998 10.6998C17.4831 10.5165 17.7123 10.4248 17.9873 10.4248C18.2623 10.4248 18.4998 10.5165 18.6998 10.6998C18.8998 10.8998 18.9998 11.1373 18.9998 11.4123C18.9998 11.6873 18.8998 11.9248 18.6998 12.1248L13.8248 16.9998H24.9998C25.2831 16.9998 25.5206 17.0956 25.7123 17.2873C25.904 17.479 25.9998 17.7165 25.9998 17.9998C25.9998 18.2831 25.904 18.5206 25.7123 18.7123C25.5206 18.904 25.2831 18.9998 24.9998 18.9998H13.8248Z" fill="white"/>
</g>
</svg>
