<svg width="24" height="25" viewBox="0 0 24 25" fill="none" xmlns="http://www.w3.org/2000/svg">
<mask id="mask0_107_3448" style="mask-type:alpha" maskUnits="userSpaceOnUse" x="0" y="0" width="24" height="25">
<rect y="0.875" width="24" height="24" fill="#D9D9D9"/>
</mask>
<g mask="url(#mask0_107_3448)">
<path d="M8.85 12.8749L10.3 11.4249C10.5 11.2249 10.5958 10.9916 10.5875 10.7249C10.5792 10.4582 10.4833 10.2249 10.3 10.0249C10.1 9.82491 9.8625 9.72074 9.5875 9.71241C9.3125 9.70408 9.075 9.79991 8.875 9.99991L6.7 12.1749C6.5 12.3749 6.4 12.6082 6.4 12.8749C6.4 13.1416 6.5 13.3749 6.7 13.5749L8.875 15.7499C9.075 15.9499 9.3125 16.0457 9.5875 16.0374C9.8625 16.0291 10.1 15.9249 10.3 15.7249C10.4833 15.5249 10.5792 15.2916 10.5875 15.0249C10.5958 14.7582 10.5 14.5249 10.3 14.3249L8.85 12.8749ZM15.15 12.8749L13.7 14.3249C13.5 14.5249 13.4042 14.7582 13.4125 15.0249C13.4208 15.2916 13.5167 15.5249 13.7 15.7249C13.9 15.9249 14.1375 16.0291 14.4125 16.0374C14.6875 16.0457 14.925 15.9499 15.125 15.7499L17.3 13.5749C17.5 13.3749 17.6 13.1416 17.6 12.8749C17.6 12.6082 17.5 12.3749 17.3 12.1749L15.125 9.99991C14.925 9.79991 14.6875 9.70408 14.4125 9.71241C14.1375 9.72074 13.9 9.82491 13.7 10.0249C13.5167 10.2249 13.4208 10.4582 13.4125 10.7249C13.4042 10.9916 13.5 11.2249 13.7 11.4249L15.15 12.8749ZM5 21.8749C4.45 21.8749 3.97917 21.6791 3.5875 21.2874C3.19583 20.8957 3 20.4249 3 19.8749V5.87491C3 5.32491 3.19583 4.85408 3.5875 4.46241C3.97917 4.07074 4.45 3.87491 5 3.87491H9.2C9.41667 3.27491 9.77917 2.79158 10.2875 2.42491C10.7958 2.05824 11.3667 1.87491 12 1.87491C12.6333 1.87491 13.2042 2.05824 13.7125 2.42491C14.2208 2.79158 14.5833 3.27491 14.8 3.87491H19C19.55 3.87491 20.0208 4.07074 20.4125 4.46241C20.8042 4.85408 21 5.32491 21 5.87491V19.8749C21 20.4249 20.8042 20.8957 20.4125 21.2874C20.0208 21.6791 19.55 21.8749 19 21.8749H5ZM12 5.12491C12.2167 5.12491 12.3958 5.05408 12.5375 4.91241C12.6792 4.77074 12.75 4.59158 12.75 4.37491C12.75 4.15824 12.6792 3.97908 12.5375 3.83741C12.3958 3.69574 12.2167 3.62491 12 3.62491C11.7833 3.62491 11.6042 3.69574 11.4625 3.83741C11.3208 3.97908 11.25 4.15824 11.25 4.37491C11.25 4.59158 11.3208 4.77074 11.4625 4.91241C11.6042 5.05408 11.7833 5.12491 12 5.12491Z" fill="#00D5E8"/>
</g>
</svg>
