<svg width="319" height="98" viewBox="0 0 319 98" fill="none" xmlns="http://www.w3.org/2000/svg">
<path d="M221.835 9.80012C223.462 9.17341 225.501 9.35632 226.736 10.6823C228.086 11.9169 228.274 13.9826 227.65 15.626C227.029 16.831 225.921 17.6944 224.624 18.0629C223.188 18.262 221.617 17.9473 220.641 16.7961C219.498 15.8224 219.194 14.2516 219.387 12.8234C219.775 11.5377 220.608 10.3945 221.835 9.80012Z" fill="white"/>
<path d="M278.573 9.80817C280.206 9.16532 282.261 9.35629 283.498 10.6931C284.835 11.9277 285.023 13.9826 284.405 15.6179C283.789 16.8337 282.67 17.6836 281.373 18.0629C279.94 18.2566 278.364 17.9419 277.393 16.7934C276.249 15.8224 275.946 14.2543 276.139 12.826C276.518 11.5403 277.355 10.4053 278.573 9.80817Z" fill="white"/>
<path d="M150.561 19.4968C153.022 18.4962 156.018 18.4586 158.293 19.9487C158.823 20.2472 159.184 20.8336 159.813 20.9385C159.84 20.3709 159.832 19.8034 159.859 19.2386C161.793 19.3865 163.74 19.4161 165.677 19.2682C166.279 19.2332 166.882 19.287 167.479 19.3946C167.436 28.6687 167.441 37.9429 167.476 47.2143C166.427 47.5102 165.357 47.1497 164.297 47.2735C163.772 47.3326 163.243 47.3568 162.723 47.2788C161.766 47.2089 160.808 47.2869 159.859 47.3784C159.805 44.218 159.827 41.0549 159.851 37.8917C159.224 38.0182 158.856 38.5884 158.342 38.9138C157.492 39.5352 156.462 39.8041 155.467 40.0812C153.702 40.2506 151.911 40.0247 150.286 39.3092C147.268 37.768 145.56 34.4462 145.356 31.1513C145.264 28.8973 145.235 26.5681 146.088 24.4378C146.881 22.3049 148.492 20.4705 150.561 19.4968ZM154.393 26.3179C153.07 27.3884 152.984 29.3304 153.334 30.8689C153.535 31.9555 154.409 32.7517 155.402 33.1444C156.989 33.4053 158.872 33.2601 159.859 31.8103C159.805 30.2368 159.835 28.6633 159.84 27.0899C158.581 25.4491 156.064 25.1882 154.393 26.3179Z" fill="white"/>
<path d="M174.227 20.0508C177.226 18.827 180.524 18.6038 183.714 18.9965C185.524 19.3596 187.348 20.0239 188.668 21.3661C190.226 23.0364 190.866 25.4249 190.637 27.6654C190.591 31.6542 190.64 35.6404 190.613 39.6292C188.077 39.5943 185.537 39.6131 183.001 39.6185C182.996 39.059 182.996 38.5023 182.993 37.9455C182.931 38.0181 182.81 38.1633 182.748 38.236C180.906 39.9251 178.286 40.2828 175.884 40.0919C173.288 39.6319 170.889 37.8164 170.179 35.21C169.918 33.0852 169.916 30.6026 171.543 28.986C172.82 27.4933 174.811 26.9715 176.696 26.8155C177.977 26.9446 179.284 26.9123 180.527 27.3077C181.43 27.6197 182.232 28.1469 182.99 28.7171C182.955 27.7999 183.17 26.8047 182.7 25.9628C182.374 25.3307 181.645 25.1451 181.051 24.8708C178.87 24.5642 176.551 24.8627 174.709 26.1296C174.381 26.2802 173.972 26.759 173.606 26.4739C173.186 25.8014 172.847 25.0887 172.455 24.4028C172.024 23.5797 171.527 22.7943 171.129 21.9551C171.987 21.081 173.138 20.578 174.227 20.0508ZM178.598 32.1949C177.858 32.445 177.587 33.2008 177.624 33.9217C178.466 35.2127 180.244 35.167 181.575 34.8496C182.326 34.7178 183.254 34.153 183.004 33.2573C182.966 32.5365 182.116 32.2998 181.551 32.1115C180.578 31.977 179.55 31.9259 178.598 32.1949Z" fill="white"/>
<path d="M240.574 19.9298C242.82 18.4693 245.771 18.4961 248.2 19.4779C250.507 20.4785 252.218 22.6087 252.944 24.9918C253.773 27.6923 253.684 30.6052 253.146 33.3514L253.044 33.5182C252.331 36.4231 250.104 38.9703 247.199 39.8148C245.954 40.1188 244.676 40.1779 243.401 40.0865C242.204 39.7799 240.97 39.4006 240.039 38.548C239.719 38.3113 239.466 37.9132 239.025 37.9266C239.246 39.2554 238.958 40.5975 239.119 41.9343C238.842 43.7445 239.402 45.6004 238.971 47.381C237.223 47.1658 235.456 47.346 233.697 47.2331L233.503 47.3514C232.79 47.3568 232.075 47.3541 231.378 47.2142C231.413 37.9401 231.413 28.666 231.378 19.3918C232.516 19.1094 233.678 19.4187 234.829 19.3595C236.217 19.1148 237.618 19.4967 239.009 19.2331C239.06 19.7899 239.057 20.3494 239.049 20.9061C239.689 20.8308 240.036 20.2203 240.574 19.9298ZM239.692 26.3824C239.34 26.5734 239.111 26.923 239.071 27.3211C239.03 28.7924 239.143 30.2636 239.065 31.7349C239.695 33.1309 241.486 33.3676 242.847 33.1981C244.259 33.1255 245.316 31.942 245.612 30.6241C245.674 29.8978 245.677 29.1689 245.644 28.44C245.384 27.6277 245.115 26.724 244.348 26.2398C242.941 25.4033 241.037 25.4222 239.692 26.3824Z" fill="white"/>
<path d="M259.237 19.7842C260.028 19.448 260.854 19.2167 261.685 18.9934C264.224 18.6841 266.836 18.7568 269.291 19.5206C270.668 20.0048 271.981 20.6503 273.213 21.433C272.471 22.8263 271.658 24.1792 270.9 25.5617C270.714 25.8926 270.526 26.2207 270.348 26.5515C268.78 25.3466 266.887 24.6338 264.931 24.389C264.122 24.4993 263.229 24.3917 262.548 24.9323C262.72 25.2067 262.944 25.4299 263.221 25.6075C264.603 25.8092 265.983 26.0459 267.366 26.2745C269.34 26.7075 271.408 27.4042 272.737 29.018C274.063 30.5915 274.184 32.7997 273.853 34.7444C273.073 37.6574 270.144 39.3949 267.328 39.8683C262.898 40.5945 258.021 39.8764 254.417 37.0495C255.219 35.2097 256.483 33.604 257.379 31.8046C257.475 31.8126 257.669 31.8315 257.766 31.8395C259.791 33.5717 262.527 34.3974 265.173 34.2818C265.701 34.2979 266.182 34.0639 266.672 33.8864C266.677 33.3565 266.228 33.1306 265.8 32.9477C263.5 32.5657 261.128 32.4393 258.96 31.5114C257.677 30.8954 256.448 29.9998 255.859 28.663C255.326 27.6893 255.332 26.565 255.197 25.4945C255.34 24.2787 255.625 23.0468 256.416 22.0759C257.118 21.0618 258.194 20.4029 259.237 19.7842Z" fill="white"/>
<path d="M194.531 19.3944C195.039 19.3029 195.558 19.2384 196.08 19.2868C198.049 19.4455 200.029 19.3621 202 19.2814C202.492 19.4724 202.253 19.9834 202.229 20.3761C202.118 22.4445 202.433 24.5075 202.215 26.5705C202.317 28.3162 202.03 30.0887 202.444 31.8101C202.807 32.8161 203.918 33.3083 204.937 33.2383C206.156 33.3513 207.221 32.6412 208.057 31.837C208.033 27.7002 208.098 23.5634 208.025 19.4294C208.595 19.2491 209.192 19.2465 209.787 19.3137C211.401 19.2922 213.014 19.2545 214.628 19.2949C215.043 19.2572 215.451 19.3298 215.86 19.4213C215.782 26.1483 215.849 32.8806 215.825 39.613C213.238 39.613 210.648 39.613 208.06 39.613C208.057 38.9459 208.057 38.2816 208.03 37.6199C207.947 37.6979 207.786 37.8566 207.702 37.9346C206.352 39.1692 204.577 39.7743 202.804 40.0783C200.733 40.2235 198.447 40.1428 196.744 38.8034C195.394 37.7571 194.582 36.0868 194.563 34.3842C194.523 29.3867 194.587 24.3919 194.531 19.3944Z" fill="white"/>
<path d="M219.814 19.3966C220.769 19.1196 221.745 19.4396 222.716 19.332C223.875 19.2137 225.04 19.4692 226.202 19.3105C226.662 19.332 227.286 19.0604 227.579 19.558C227.485 23.5845 227.474 27.6217 227.576 31.6509C227.399 33.6359 227.606 35.6236 227.523 37.606C227.622 38.2838 227.628 38.9777 227.437 39.6421C224.906 39.5775 222.375 39.6206 219.844 39.6179C219.809 32.8774 219.87 26.137 219.814 19.3966Z" fill="white"/>
<path d="M276.568 19.3888C278.332 19.1198 280.123 19.3538 281.901 19.335C282.727 19.2785 283.582 19.1656 284.384 19.4587C284.142 21.1049 284.314 22.7779 284.322 24.4293C284.284 26.14 284.284 27.8453 284.266 29.5532C284.457 31.2531 284.131 32.9584 284.29 34.6583C284.427 35.7315 284.136 36.802 284.287 37.8752C284.379 38.4643 284.317 39.0587 284.19 39.637C281.659 39.5832 279.128 39.6182 276.597 39.6182C276.56 32.875 276.619 26.1319 276.568 19.3888Z" fill="white"/>
<path d="M287.376 19.4133C287.866 19.3165 288.363 19.2519 288.869 19.3003C294.208 19.2977 299.542 19.3461 304.881 19.2681C304.943 21.0971 304.894 22.9315 304.91 24.7632C301.669 27.9424 298.552 31.2534 295.211 34.3332C295.171 34.4542 295.085 34.6963 295.042 34.8173C298.409 34.7716 301.779 34.82 305.147 34.7931C305.131 36.3988 305.152 38.0046 305.12 39.6131C299.213 39.6104 293.307 39.6131 287.403 39.6131C287.403 38.4134 287.384 37.2138 287.419 36.0142C289.444 33.8006 291.583 31.6919 293.589 29.4567C295.144 27.7434 296.924 26.2021 298.288 24.3328C294.654 24.3328 291.023 24.3436 287.395 24.3274C287.398 22.6894 287.424 21.0513 287.376 19.4133Z" fill="white"/>
<path d="M205.938 51.48C206.92 51.472 207.901 51.4881 208.883 51.4451C209.15 53.3601 208.8 55.3075 209.015 57.236C208.808 59.8343 209.037 62.4406 208.983 65.0416C209.131 66.5639 208.889 68.089 209.026 69.6114C208.889 70.8621 209.077 72.1155 208.948 73.3662C208.862 74.3184 209.193 75.2921 208.875 76.2227C207.896 76.177 206.917 76.1931 205.938 76.1877C205.941 67.9518 205.941 59.7159 205.938 51.48Z" fill="white"/>
<path d="M242.228 54.0164C242.4 53.0562 243.124 51.9481 244.216 52.0072C245.423 51.8889 246.483 53.11 246.255 54.2962C246.193 55.7432 244.218 56.6066 243.132 55.6491C242.586 55.2672 242.397 54.6216 242.228 54.0164Z" fill="white"/>
<path d="M232.564 53.3653C233.546 53.3545 234.528 53.3707 235.512 53.333C235.846 54.9441 235.488 56.5902 235.682 58.2148C236.849 58.1933 238.019 58.196 239.192 58.2068C239.189 59.089 239.189 59.9712 239.192 60.8534C238.024 60.8642 236.857 60.875 235.695 60.8346C235.439 62.6717 235.73 64.5357 235.622 66.3862C235.655 67.1016 235.665 67.8198 235.585 68.5326C235.695 69.7026 235.708 70.8888 235.558 72.0534C235.652 72.8442 235.921 73.6269 236.639 74.0599C237.589 74.189 238.484 73.8609 239.159 73.1885C239.49 73.9739 239.81 74.7673 240.095 75.5742C238.538 76.8761 236.214 77.1208 234.396 76.2601C233.29 75.7329 232.865 74.5118 232.588 73.4063C232.535 69.2211 232.583 65.0359 232.564 60.8534C231.628 60.8588 230.695 60.8481 229.762 60.8911C229.501 60.0761 229.675 59.2127 229.584 58.3762C230.512 57.9808 231.572 58.2928 232.556 58.2148C232.578 56.5983 232.562 54.9818 232.564 53.3653Z" fill="white"/>
<path d="M147.198 60.9612C148.619 59.3447 150.655 58.379 152.75 57.9971C154.864 57.8088 157.161 57.8976 158.99 59.0999C160.093 59.7696 160.798 60.9423 161.158 62.1554C161.392 63.2905 161.303 64.4578 161.341 65.6117C161.303 69.1513 161.435 72.6964 161.274 76.228C160.343 76.1742 159.412 76.1769 158.484 76.2226C158.334 75.647 158.315 75.0553 158.285 74.4662C156.634 76.4324 153.834 76.9542 151.392 76.6772C150.843 76.5077 150.294 76.341 149.751 76.1661C148.234 75.3753 147.01 74.0305 146.502 72.3817C146.195 71.0046 146.273 69.5763 146.738 68.2422C147.529 66.5369 149.087 65.2028 150.951 64.8344C153.506 64.291 156.507 64.8666 158.272 66.9216C158.28 65.2136 158.813 63.0726 157.379 61.7708C156.803 61.1656 155.988 60.9154 155.222 60.6545C154.393 60.5927 153.565 60.5927 152.742 60.6653C151.182 61.0499 149.694 61.8434 148.667 63.0968C148.067 62.4728 147.548 61.7519 147.198 60.9612ZM150.679 67.8038C148.92 69.2536 148.974 72.2983 150.795 73.6781C152.177 74.8347 154.141 74.7567 155.776 74.2752C156.747 73.896 157.678 73.3285 158.285 72.4651C158.409 71.6124 158.312 70.741 158.347 69.8829C158.584 68.3794 156.916 67.6182 155.779 67.1125C155.625 67.0749 155.313 66.9969 155.16 66.9592C153.643 66.5907 151.887 66.7225 150.679 67.8038Z" fill="white"/>
<path d="M166.399 58.2067C167.381 58.1959 168.366 58.2121 169.35 58.1744C169.544 58.9195 169.407 59.6834 169.358 60.4365C169.638 60.3719 169.909 60.2778 170.114 60.0599C171.685 58.6747 173.783 57.8221 175.894 57.9243C177.406 57.9404 179.046 58.3762 180.071 59.5623C181.013 60.6086 181.265 62.0718 181.354 63.4301C181.357 67.3813 181.346 71.3325 181.36 75.2837C181.352 75.6011 181.3 75.9131 181.209 76.2224C180.278 76.1767 179.348 76.1767 178.422 76.2224C178.051 74.0357 178.428 71.8032 178.285 69.5976C178.474 68.2582 178.205 66.9187 178.288 65.5765C178.492 64.5867 178.258 63.5942 178.124 62.6151C177.699 61.5581 176.709 60.9529 175.66 60.6463C174.923 60.5979 174.183 60.5952 173.449 60.6543C171.924 61.0955 170.383 61.8486 169.479 63.2069C169.242 64.9713 169.56 66.7654 169.441 68.5433C169.323 69.5304 169.536 70.5148 169.463 71.5046C169.501 72.1287 169.476 72.7554 169.415 73.3794C169.323 74.3288 169.665 75.2945 169.339 76.2224C168.358 76.1767 167.378 76.1928 166.399 76.1874C166.402 70.1921 166.402 64.1994 166.399 58.2067Z" fill="white"/>
<path d="M186.469 60.9614C187.89 59.3476 189.926 58.3766 192.024 57.9974C194.146 57.8064 196.454 57.9005 198.288 59.1163C199.186 59.6623 199.81 60.5661 200.208 61.5236C200.733 62.7178 200.537 64.0573 200.631 65.3215C200.757 66.4942 200.561 67.6669 200.582 68.8423L200.706 69.0306C200.682 70.2141 200.623 71.3948 200.663 72.5783C200.72 73.7914 200.564 74.9991 200.569 76.2121C199.633 76.1825 198.697 76.1771 197.766 76.2202C197.57 75.7602 197.492 75.2546 197.882 74.8511C196.833 74.6978 196.233 75.884 195.262 76.1341C193.799 76.6936 192.225 76.8523 190.673 76.6774C188.403 76.2605 186.426 74.5821 185.765 72.3524C185.474 70.9752 185.547 69.5497 186.02 68.2183C186.736 66.7309 188 65.4882 189.603 65.0068C192.336 64.1541 195.633 64.7593 197.602 66.9326C197.543 65.5824 197.788 64.1837 197.417 62.8684C196.932 61.65 195.695 60.9803 194.493 60.6548C193.664 60.5929 192.836 60.5929 192.013 60.6656C191.467 60.8377 190.921 61.0125 190.383 61.1981C189.393 61.6097 188.726 62.5484 187.747 62.9303C187.26 62.3197 186.773 61.685 186.469 60.9614ZM190.084 67.6938C188.202 69.0924 188.191 72.2609 190.06 73.673C191.443 74.835 193.412 74.757 195.05 74.2755C196.015 73.8963 196.94 73.3314 197.551 72.4734C197.688 71.6288 197.581 70.7601 197.618 69.9074C197.871 68.3904 196.195 67.6212 195.052 67.1101C193.42 66.6287 191.467 66.5507 190.084 67.6938Z" fill="white"/>
<path d="M253.848 59.3259C256.312 57.7174 259.542 57.5157 262.275 58.5163C263.448 59.2022 264.819 59.9472 265.373 61.249C264.647 61.7574 264.053 62.4217 263.399 63.0135C262.654 61.8327 261.457 61.0096 260.112 60.6627C258.617 60.4878 257.017 60.6196 255.747 61.4965C253.684 62.7929 252.815 65.3831 252.955 67.7259C252.982 70.2354 254.383 72.7906 256.791 73.7374C257.861 74.0575 258.985 74.1381 260.096 73.9875C260.371 73.8907 260.65 73.8019 260.938 73.7185C261.912 73.3312 262.611 72.5485 263.335 71.8223C264.144 72.016 264.577 72.9547 265.295 73.3823C265.309 73.4738 265.336 73.6594 265.349 73.7535C264.053 75.2221 262.35 76.3787 260.381 76.6719C257.772 76.9785 254.932 76.4594 252.947 74.6357C250.975 72.9358 249.848 70.3241 249.905 67.7312C249.878 66.7334 249.943 65.7382 250.066 64.7483L250.187 64.5735C250.685 62.4379 252.041 60.547 253.848 59.3259Z" fill="white"/>
<path d="M270.078 59.2455C271.004 58.5543 272.131 58.245 273.236 57.9867C275.243 57.8173 277.359 57.9114 279.17 58.8851C280.028 59.3047 280.759 59.926 281.526 60.4909C281.184 61.244 280.622 61.8653 280.253 62.6023C279.726 62.492 279.39 62.0509 278.962 61.7739C278.15 61.2063 277.19 60.932 276.248 60.6684C275 60.5877 273.664 60.4586 272.521 61.0718C271.668 61.5345 270.861 62.4275 271.022 63.4684C271.122 64.1569 271.724 64.5873 272.316 64.8563C274.433 65.8219 276.821 65.9187 278.952 66.8574C280.377 67.5594 281.658 68.7671 281.951 70.3917C282.131 72.0835 281.676 73.926 280.315 75.0395C277.999 76.9654 274.707 77.0219 271.902 76.3871C271.45 76.2203 270.998 76.0589 270.549 75.9056C269.511 75.3919 268.556 74.7114 267.752 73.8803C267.59 72.9953 268.653 72.4601 268.941 71.6693C269.04 71.6559 269.239 71.6236 269.339 71.6101C271.135 73.6247 274.099 74.5097 276.714 73.8614C278.018 73.5763 279.204 72.3552 279.035 70.9512C278.997 70.1308 278.212 69.6789 277.615 69.2566C275.692 68.4336 273.583 68.2426 271.633 67.5137C271.496 67.4545 271.221 67.3416 271.084 67.2851C269.965 66.7471 268.863 66.0128 268.349 64.8374C268.271 64.5496 268.19 64.2645 268.104 63.9794C267.849 62.2015 268.564 60.2649 270.078 59.2455Z" fill="white"/>
<path d="M211.385 58.199C212.424 58.1963 213.462 58.2152 214.503 58.1748C215.937 61.3809 217.147 64.6812 218.497 67.9196C219.075 69.4662 219.804 70.959 220.27 72.5459C220.372 72.3846 220.479 72.2232 220.59 72.0645C222.376 67.4193 224.277 62.8199 226.128 58.199C227.209 58.2017 228.29 58.1963 229.374 58.2017C229 59.248 228.543 60.2647 228.134 61.3003C227.048 63.8985 225.975 66.5022 224.904 69.1058C223.82 71.7014 222.747 74.2996 221.679 76.9033C221.19 78.0491 220.735 79.2111 220.237 80.3542C219.527 81.9868 217.986 83.0708 216.265 83.4043C215.191 83.5065 214.107 83.4689 213.061 83.1972C213.131 82.2719 213.338 81.3655 213.462 80.4483C214.411 80.7361 215.528 81.0427 216.439 80.4725C217.219 79.9642 217.596 79.0819 217.921 78.2481C218.188 77.6026 218.476 76.9678 218.771 76.3384C218.371 75.4293 218.008 74.5094 217.634 73.5922C217.416 73.0839 217.206 72.5728 216.999 72.0618C216.552 70.9859 216.119 69.902 215.673 68.8288C215.493 68.3796 215.31 67.9358 215.124 67.492C214.941 67.0428 214.758 66.5936 214.57 66.1498C214.14 65.0658 213.688 63.9927 213.249 62.9141C213.067 62.4622 212.881 62.0157 212.695 61.5692C212.257 60.4476 211.724 59.3583 211.385 58.199Z" fill="white"/>
<path d="M242.786 58.2071C243.765 58.1963 244.747 58.2017 245.731 58.1936C245.739 64.1944 245.739 70.1978 245.731 76.1985C244.747 76.1905 243.765 76.1959 242.786 76.1851C242.789 70.1924 242.789 64.1997 242.786 58.2071Z" fill="white"/>
<path d="M34.2481 16.6995C39.2456 14.7333 44.7218 14.1792 50.0421 14.7468C57.4254 15.6344 64.4832 19.088 69.6663 24.4271C73.0903 27.8726 75.6751 32.1116 77.2916 36.6841C78.3191 39.667 78.9807 42.8005 79.0291 45.9609C79.0534 46.4773 79.0991 46.9911 79.1475 47.5075C79.0157 47.607 78.7548 47.806 78.623 47.9056C75.7531 46.8808 72.8078 46.0739 69.9245 45.0814C69.8303 45.0464 69.6394 44.9711 69.5452 44.9361C69.01 40.2829 67.0626 35.7965 64.0017 32.2487C60.4083 28.0017 55.2548 25.1318 49.7677 24.2442C42.1639 23.0015 34.0383 25.7773 28.8391 31.4741C28.5244 31.7431 28.2527 32.3106 27.7551 32.1089C25.2456 31.3477 22.7657 30.487 20.2508 29.7392C19.686 29.5725 19.1427 29.3465 18.6101 29.0964C22.4591 23.5529 27.9058 19.0772 34.2481 16.6995Z" fill="white"/>
<path d="M13.4798 41.8889C13.5283 41.4558 13.6896 41.047 13.8698 40.6543C16.8043 41.6737 19.7818 42.5721 22.7459 43.5027C22.4446 46.2086 22.286 48.9548 22.8131 51.6472C23.8003 57.3789 27.0306 62.675 31.6273 66.2281C35.6323 69.3239 40.6567 71.1583 45.7376 71.1422C51.7679 71.3278 57.7794 68.9151 62.1744 64.8133C64.1944 62.9547 65.8055 60.7007 67.1262 58.3042C67.2499 58.0567 67.3709 57.8093 67.4893 57.5618C70.5179 58.4683 73.5519 59.3801 76.5267 60.4533C76.2927 60.9831 76.0641 61.5157 75.822 62.0429C72.6213 68.5278 67.3037 73.9771 60.7919 77.1618C57.1877 78.98 53.2311 80.0774 49.2181 80.4863C47.2438 80.6019 45.2615 80.5777 43.2845 80.5132C36.0707 79.9134 29.0775 76.8713 23.7572 71.9545C18.9346 67.5595 15.4379 61.7013 13.9559 55.3401C12.8262 50.9586 12.8047 46.3457 13.4798 41.8889Z" fill="white"/>
<path d="M87.6709 19.037C88.7817 17.2107 90.8958 16.0003 93.053 16.1321C95.2881 16.0057 97.3673 17.4043 98.4835 19.2791C108.005 35.42 117.537 51.5583 127.064 67.6966C127.618 68.6461 128.267 69.5794 128.479 70.6795C129.222 73.4903 127.61 76.6534 124.966 77.8126C122.828 78.8132 120.114 78.4689 118.328 76.9143C117.465 76.223 116.889 75.2628 116.359 74.3106C109.038 61.9083 101.717 49.5034 94.3925 37.0984C93.9567 36.383 93.5425 35.6567 93.1525 34.9144C92.9131 35.0623 92.6979 35.2479 92.5742 35.5061C89.8495 40.2454 87.0092 44.9228 84.3141 49.6782C82.4636 49.1994 80.7206 48.2473 78.7841 48.1639C78.7437 48.0994 78.6603 47.9702 78.62 47.9057C78.7518 47.8062 79.0127 47.6071 79.1445 47.5076C79.0961 46.9912 79.0503 46.4775 79.0261 45.961C78.9777 42.8006 78.316 39.6671 77.2886 36.6842C80.7852 30.8233 84.1931 24.9086 87.6709 19.037Z" fill="white"/>
<path d="M76.5231 60.4534C76.8593 60.5717 77.2009 60.6766 77.5478 60.7681C77.0314 61.2684 76.4773 61.7391 75.8184 62.043C76.0604 61.5158 76.2891 60.9832 76.5231 60.4534Z" fill="white"/>
<path d="M54.5705 44.2902C56.0928 42.4504 58.7234 41.5978 61.0258 42.2783C63.9979 43.1901 66.9485 44.1692 69.9207 45.081C72.804 46.0735 75.7493 46.8804 78.6192 47.9052C78.6595 47.9697 78.7429 48.0988 78.7833 48.1634C80.7199 48.2468 82.4628 49.1989 84.3133 49.6777C87.7965 50.7267 91.2474 51.8779 94.7225 52.9511C96.9603 53.5885 98.7867 55.5628 99.1417 57.8759C99.2305 58.898 99.2681 59.9659 98.948 60.9584C98.2944 63.0025 96.5139 64.646 94.4239 65.1328C93.4368 65.2807 92.4147 65.3076 91.4357 65.1113C86.7932 63.7046 82.2019 62.1284 77.5487 60.7674C77.2017 60.6759 76.8601 60.571 76.5239 60.4527C73.5491 59.3795 70.5151 58.4677 67.4865 57.5612C67.3681 57.8087 67.2471 58.0562 67.1234 58.3036C67.0319 57.9943 66.9405 57.6823 66.8463 57.3757C63.7343 56.2756 60.5551 55.3638 57.4162 54.3363C55.4419 53.6908 53.82 52.007 53.2955 49.9897C52.7737 48.037 53.2256 45.8206 54.5705 44.2902Z" fill="white"/>
</svg>
