<svg width="86" height="23" viewBox="0 0 86 23" fill="none" xmlns="http://www.w3.org/2000/svg">
<path d="M84 5H64C62.8954 5 62 5.89543 62 7V18C62 19.1046 62.8954 20 64 20H84C85.1046 20 86 19.1046 86 18V7C86 5.89543 85.1046 5 84 5Z" fill="white"/>
<path d="M7.896 18V5.73604H10.896V18H7.896ZM9.396 4.20004C8.916 4.20004 8.5 4.02804 8.148 3.68404C7.804 3.33204 7.632 2.91605 7.632 2.43605C7.632 1.95605 7.804 1.54804 8.148 1.21204C8.492 0.868045 8.908 0.696045 9.396 0.696045C9.9 0.696045 10.32 0.864044 10.656 1.20004C10.992 1.53604 11.16 1.94805 11.16 2.43605C11.16 2.92405 10.988 3.34004 10.644 3.68404C10.308 4.02804 9.892 4.20004 9.396 4.20004ZM22.5169 18.288L18.2209 8.92805C18.1649 8.80805 18.1049 8.66805 18.0409 8.50805C17.9769 8.34805 17.9209 8.18804 17.8729 8.02804C17.8809 8.15604 17.8849 8.30805 17.8849 8.48405C17.8929 8.66005 17.8969 8.81604 17.8969 8.95204V18H14.7889V1.20004H17.8969L22.1569 10.728C22.2369 10.904 22.3089 11.08 22.3729 11.256C22.4449 11.424 22.5129 11.6 22.5769 11.784C22.6409 11.6 22.7049 11.42 22.7689 11.244C22.8329 11.068 22.9009 10.896 22.9729 10.728L27.3169 1.20004H30.2329V18H27.1249V8.92805C27.1249 8.78405 27.1249 8.62404 27.1249 8.44804C27.1329 8.27204 27.1369 8.12804 27.1369 8.01604C27.0889 8.16004 27.0289 8.31605 26.9569 8.48405C26.8929 8.64405 26.8289 8.79205 26.7649 8.92805L22.5169 18.288ZM37.746 18.288C36.41 18.288 35.35 17.928 34.566 17.208C33.79 16.48 33.402 15.496 33.402 14.256C33.402 13.456 33.602 12.756 34.002 12.156C34.41 11.548 34.974 11.08 35.694 10.752C36.422 10.416 37.27 10.248 38.238 10.248C38.774 10.248 39.29 10.3 39.786 10.404C40.29 10.5 40.73 10.64 41.106 10.824V10.056C41.106 9.36804 40.91 8.85205 40.518 8.50805C40.134 8.15605 39.566 7.98004 38.814 7.98004C38.214 7.98004 37.598 8.08804 36.966 8.30404C36.334 8.52004 35.694 8.84004 35.046 9.26404L34.146 6.90004C34.85 6.43604 35.634 6.08004 36.498 5.83204C37.362 5.57604 38.234 5.44804 39.114 5.44804C40.762 5.44804 41.994 5.84004 42.81 6.62404C43.626 7.40004 44.034 8.56004 44.034 10.104V18H41.106V17.016C40.69 17.432 40.194 17.748 39.618 17.964C39.05 18.18 38.426 18.288 37.746 18.288ZM38.442 15.756C38.938 15.756 39.414 15.66 39.87 15.468C40.334 15.268 40.746 14.988 41.106 14.628V13.176C40.762 13.008 40.378 12.88 39.954 12.792C39.538 12.696 39.122 12.648 38.706 12.648C37.962 12.648 37.374 12.792 36.942 13.08C36.518 13.36 36.306 13.752 36.306 14.256C36.306 14.728 36.494 15.096 36.87 15.36C37.246 15.624 37.77 15.756 38.442 15.756ZM54.7266 22.8V17.076C54.3906 17.476 53.9986 17.78 53.5506 17.988C53.1106 18.188 52.6066 18.288 52.0386 18.288C51.0146 18.288 50.1186 18.024 49.3506 17.496C48.5906 16.968 47.9986 16.224 47.5746 15.264C47.1586 14.304 46.9506 13.176 46.9506 11.88C46.9506 10.552 47.1626 9.40804 47.5866 8.44804C48.0106 7.48804 48.6106 6.74804 49.3866 6.22804C50.1626 5.70805 51.0826 5.44804 52.1466 5.44804C52.7066 5.44804 53.1906 5.54404 53.5986 5.73604C54.0146 5.92804 54.3906 6.22804 54.7266 6.63604V5.73604H57.7146V21.444L54.7266 22.8ZM52.4826 15.42C52.9626 15.42 53.3986 15.324 53.7906 15.132C54.1906 14.94 54.5026 14.668 54.7266 14.316V9.37204C54.4466 9.01204 54.1226 8.74404 53.7546 8.56804C53.3866 8.39204 52.9626 8.30404 52.4826 8.30404C51.6986 8.30404 51.0826 8.62004 50.6346 9.25204C50.1866 9.88404 49.9626 10.76 49.9626 11.88C49.9626 13.008 50.1826 13.88 50.6226 14.496C51.0626 15.112 51.6826 15.42 52.4826 15.42Z" fill="white"/>
<path d="M74.024 12.976C74.024 14.192 73.8853 15.168 73.608 15.904C73.3307 16.64 72.8827 17.1733 72.264 17.504C71.6453 17.8347 70.8187 18 69.784 18C68.76 18 67.9387 17.8347 67.32 17.504C66.7013 17.1733 66.2533 16.64 65.976 15.904C65.6987 15.168 65.56 14.192 65.56 12.976C65.56 11.7493 65.6987 10.768 65.976 10.032C66.2533 9.296 66.7013 8.76267 67.32 8.432C67.9387 8.10133 68.76 7.936 69.784 7.936C70.8187 7.936 71.6453 8.10133 72.264 8.432C72.8827 8.76267 73.3307 9.296 73.608 10.032C73.8853 10.768 74.024 11.7493 74.024 12.976ZM69.784 15.872C70.5093 15.872 70.984 15.6373 71.208 15.168C71.4427 14.688 71.56 13.9573 71.56 12.976C71.56 11.984 71.4427 11.2533 71.208 10.784C70.984 10.3147 70.5093 10.08 69.784 10.08C69.0693 10.08 68.5947 10.3147 68.36 10.784C68.136 11.2533 68.024 11.984 68.024 12.976C68.024 13.9573 68.136 14.688 68.36 15.168C68.5947 15.6373 69.0693 15.872 69.784 15.872ZM75.2501 10.848V8.752C75.6235 8.51733 76.1141 8.32533 76.7221 8.176C77.3301 8.02667 77.9915 7.952 78.7061 7.952C79.8475 7.952 80.7595 8.176 81.4421 8.624C82.1355 9.072 82.4821 9.82933 82.4821 10.896C82.4821 11.7387 82.2848 12.416 81.8901 12.928C81.5061 13.4293 80.8235 13.8667 79.8421 14.24C78.8928 14.6027 78.2368 14.912 77.8741 15.168C77.5221 15.4133 77.3461 15.6587 77.3461 15.904H82.5621V17.936H74.9781V16.144C74.9781 15.6 75.0688 15.136 75.2501 14.752C75.4421 14.368 75.7675 14.016 76.2261 13.696C76.6848 13.376 77.3195 13.0453 78.1301 12.704C78.7381 12.448 79.2128 12.2027 79.5541 11.968C79.9061 11.7227 80.0768 11.4293 80.0661 11.088C80.0555 10.6827 79.9008 10.4 79.6021 10.24C79.3141 10.0693 78.9035 9.984 78.3701 9.984C77.8581 9.984 77.3355 10.0747 76.8021 10.256C76.2688 10.4267 75.7995 10.624 75.3941 10.848H75.2501Z" fill="#144C66"/>
</svg>
