<svg width="105" height="28" viewBox="0 0 105 28" fill="none" xmlns="http://www.w3.org/2000/svg">
<path d="M2.37001 22.0001V6.67012H6.12001V22.0001H2.37001ZM4.24501 4.75012C3.64501 4.75012 3.12501 4.53512 2.68501 4.10512C2.25501 3.66512 2.04001 3.14512 2.04001 2.54512C2.04001 1.94512 2.25501 1.43512 2.68501 1.01512C3.11501 0.585116 3.63501 0.370117 4.24501 0.370117C4.87501 0.370117 5.40001 0.580116 5.82001 1.00012C6.24001 1.42012 6.45001 1.93512 6.45001 2.54512C6.45001 3.15512 6.23501 3.67512 5.80501 4.10512C5.38501 4.53512 4.86501 4.75012 4.24501 4.75012ZM20.6461 22.3601L15.2761 10.6601C15.2061 10.5101 15.1311 10.3351 15.0511 10.1351C14.9711 9.93512 14.9011 9.73512 14.8411 9.53512C14.8511 9.69512 14.8561 9.88512 14.8561 10.1051C14.8661 10.3251 14.8711 10.5201 14.8711 10.6901V22.0001H10.9861V1.00012H14.8711L20.1961 12.9101C20.2961 13.1301 20.3861 13.3501 20.4661 13.5701C20.5561 13.7801 20.6411 14.0001 20.7211 14.2301C20.8011 14.0001 20.8811 13.7751 20.9611 13.5551C21.0411 13.3351 21.1261 13.1201 21.2161 12.9101L26.6461 1.00012H30.2911V22.0001H26.4061V10.6601C26.4061 10.4801 26.4061 10.2801 26.4061 10.0601C26.4161 9.84012 26.4211 9.66012 26.4211 9.52012C26.3611 9.70012 26.2861 9.89512 26.1961 10.1051C26.1161 10.3051 26.0361 10.4901 25.9561 10.6601L20.6461 22.3601ZM39.6825 22.3601C38.0125 22.3601 36.6875 21.9101 35.7075 21.0101C34.7375 20.1001 34.2525 18.8701 34.2525 17.3201C34.2525 16.3201 34.5025 15.4451 35.0025 14.6951C35.5125 13.9351 36.2175 13.3501 37.1175 12.9401C38.0275 12.5201 39.0875 12.3101 40.2975 12.3101C40.9675 12.3101 41.6125 12.3751 42.2325 12.5051C42.8625 12.6251 43.4125 12.8001 43.8825 13.0301V12.0701C43.8825 11.2101 43.6375 10.5651 43.1475 10.1351C42.6675 9.69512 41.9575 9.47512 41.0175 9.47512C40.2675 9.47512 39.4975 9.61012 38.7075 9.88012C37.9175 10.1501 37.1175 10.5501 36.3075 11.0801L35.1825 8.12512C36.0625 7.54512 37.0425 7.10012 38.1225 6.79012C39.2025 6.47012 40.2925 6.31012 41.3925 6.31012C43.4525 6.31012 44.9925 6.80012 46.0125 7.78012C47.0325 8.75012 47.5425 10.2001 47.5425 12.1301V22.0001H43.8825V20.7701C43.3625 21.2901 42.7425 21.6851 42.0225 21.9551C41.3125 22.2251 40.5325 22.3601 39.6825 22.3601ZM40.5525 19.1951C41.1725 19.1951 41.7675 19.0751 42.3375 18.8351C42.9175 18.5851 43.4325 18.2351 43.8825 17.7851V15.9701C43.4525 15.7601 42.9725 15.6001 42.4425 15.4901C41.9225 15.3701 41.4025 15.3101 40.8825 15.3101C39.9525 15.3101 39.2175 15.4901 38.6775 15.8501C38.1475 16.2001 37.8825 16.6901 37.8825 17.3201C37.8825 17.9101 38.1175 18.3701 38.5875 18.7001C39.0575 19.0301 39.7125 19.1951 40.5525 19.1951ZM60.9082 28.0001V20.8451C60.4882 21.3451 59.9982 21.7251 59.4382 21.9851C58.8882 22.2351 58.2582 22.3601 57.5482 22.3601C56.2682 22.3601 55.1482 22.0301 54.1882 21.3701C53.2382 20.7101 52.4982 19.7801 51.9682 18.5801C51.4482 17.3801 51.1882 15.9701 51.1882 14.3501C51.1882 12.6901 51.4532 11.2601 51.9832 10.0601C52.5132 8.86012 53.2632 7.93512 54.2332 7.28512C55.2032 6.63512 56.3532 6.31012 57.6832 6.31012C58.3832 6.31012 58.9882 6.43012 59.4982 6.67012C60.0182 6.91012 60.4882 7.28512 60.9082 7.79512V6.67012H64.6432V26.3051L60.9082 28.0001ZM58.1032 18.7751C58.7032 18.7751 59.2482 18.6551 59.7382 18.4151C60.2382 18.1751 60.6282 17.8351 60.9082 17.3951V11.2151C60.5582 10.7651 60.1532 10.4301 59.6932 10.2101C59.2332 9.99012 58.7032 9.88012 58.1032 9.88012C57.1232 9.88012 56.3532 10.2751 55.7932 11.0651C55.2332 11.8551 54.9532 12.9501 54.9532 14.3501C54.9532 15.7601 55.2282 16.8501 55.7782 17.6201C56.3282 18.3901 57.1032 18.7751 58.1032 18.7751Z" fill="white"/>
<path d="M103 4H75C73.8954 4 73 4.89543 73 6V22C73 23.1046 73.8954 24 75 24H103C104.105 24 105 23.1046 105 22V6C105 4.89543 104.105 4 103 4Z" fill="white"/>
<path d="M88.28 14.72C88.28 16.24 88.1067 17.46 87.76 18.38C87.4133 19.3 86.8533 19.9667 86.08 20.38C85.3067 20.7933 84.2733 21 82.98 21C81.7 21 80.6733 20.7933 79.9 20.38C79.1267 19.9667 78.5667 19.3 78.22 18.38C77.8733 17.46 77.7 16.24 77.7 14.72C77.7 13.1867 77.8733 11.96 78.22 11.04C78.5667 10.12 79.1267 9.45333 79.9 9.04C80.6733 8.62667 81.7 8.42 82.98 8.42C84.2733 8.42 85.3067 8.62667 86.08 9.04C86.8533 9.45333 87.4133 10.12 87.76 11.04C88.1067 11.96 88.28 13.1867 88.28 14.72ZM82.98 18.34C83.8867 18.34 84.48 18.0467 84.76 17.46C85.0533 16.86 85.2 15.9467 85.2 14.72C85.2 13.48 85.0533 12.5667 84.76 11.98C84.48 11.3933 83.8867 11.1 82.98 11.1C82.0867 11.1 81.4933 11.3933 81.2 11.98C80.92 12.5667 80.78 13.48 80.78 14.72C80.78 15.9467 80.92 16.86 81.2 17.46C81.4933 18.0467 82.0867 18.34 82.98 18.34ZM90.3727 8.9C90.9593 8.71333 91.566 8.58667 92.1927 8.52C92.8327 8.44 93.5193 8.4 94.2527 8.4C95.3993 8.4 96.306 8.51333 96.9727 8.74C97.6393 8.95333 98.1127 9.28667 98.3927 9.74C98.686 10.1933 98.8327 10.7667 98.8327 11.46C98.8327 12.2733 98.6393 12.96 98.2527 13.52C97.866 14.0667 97.1993 14.4 96.2527 14.52V14.62C97.2393 14.6733 97.9393 14.9467 98.3527 15.44C98.7793 15.9333 98.9927 16.54 98.9927 17.26C98.9927 18.46 98.5927 19.3667 97.7927 19.98C97.006 20.58 95.7393 20.9 93.9927 20.94C93.0993 20.9533 92.3127 20.9067 91.6327 20.8C90.9527 20.6933 90.3327 20.5467 89.7727 20.36V17.86H89.8927C90.426 18.0333 90.966 18.16 91.5127 18.24C92.0593 18.32 92.6793 18.36 93.3727 18.36C94.306 18.36 94.9793 18.26 95.3927 18.06C95.806 17.86 96.0127 17.5133 96.0127 17.02C96.0127 16.5667 95.8527 16.26 95.5327 16.1C95.226 15.9267 94.6527 15.84 93.8127 15.84H92.2127V13.26H93.5527C94.5127 13.26 95.1593 13.18 95.4927 13.02C95.8393 12.8467 96.0127 12.54 96.0127 12.1C96.0127 11.6467 95.8193 11.3467 95.4327 11.2C95.0593 11.0533 94.3993 10.98 93.4527 10.98C92.9327 10.98 92.406 11.02 91.8727 11.1C91.3527 11.18 90.8793 11.2867 90.4527 11.42L90.3727 11.4V8.9Z" fill="#144C66"/>
</svg>
