<svg width="24" height="25" viewBox="0 0 24 25" fill="none" xmlns="http://www.w3.org/2000/svg">
<mask id="mask0_107_2956" style="mask-type:alpha" maskUnits="userSpaceOnUse" x="0" y="0" width="24" height="25">
<rect y="0.5" width="24" height="24" fill="#D9D9D9"/>
</mask>
<g mask="url(#mask0_107_2956)">
<path d="M21.4 14.75L14.25 21.9C14.05 22.1 13.825 22.25 13.575 22.35C13.325 22.45 13.075 22.5 12.825 22.5C12.575 22.5 12.325 22.45 12.075 22.35C11.825 22.25 11.6 22.1 11.4 21.9L2.575 13.075C2.39167 12.8917 2.25 12.6792 2.15 12.4375C2.05 12.1958 2 11.9417 2 11.675V4.5C2 3.95 2.19583 3.47917 2.5875 3.0875C2.97917 2.69583 3.45 2.5 4 2.5H11.175C11.4417 2.5 11.7 2.55417 11.95 2.6625C12.2 2.77083 12.4167 2.91667 12.6 3.1L21.4 11.925C21.6 12.125 21.7458 12.35 21.8375 12.6C21.9292 12.85 21.975 13.1 21.975 13.35C21.975 13.6 21.9292 13.8458 21.8375 14.0875C21.7458 14.3292 21.6 14.55 21.4 14.75ZM12.825 20.5L19.975 13.35L11.15 4.5H4V11.65L12.825 20.5ZM6.5 8.5C6.91667 8.5 7.27083 8.35417 7.5625 8.0625C7.85417 7.77083 8 7.41667 8 7C8 6.58333 7.85417 6.22917 7.5625 5.9375C7.27083 5.64583 6.91667 5.5 6.5 5.5C6.08333 5.5 5.72917 5.64583 5.4375 5.9375C5.14583 6.22917 5 6.58333 5 7C5 7.41667 5.14583 7.77083 5.4375 8.0625C5.72917 8.35417 6.08333 8.5 6.5 8.5Z" fill="#1C1B1F"/>
</g>
</svg>
