<svg width="24" height="25" viewBox="0 0 24 25" fill="none" xmlns="http://www.w3.org/2000/svg">
<mask id="mask0_107_3373" style="mask-type:alpha" maskUnits="userSpaceOnUse" x="0" y="0" width="24" height="25">
<rect y="0.875" width="24" height="24" fill="#D9D9D9"/>
</mask>
<g mask="url(#mask0_107_3373)">
<path d="M12 18.15L7.85002 20.65C7.66668 20.7667 7.47501 20.8167 7.27501 20.8C7.07501 20.7833 6.90002 20.7167 6.75002 20.6C6.60001 20.4833 6.48335 20.3375 6.40002 20.1625C6.31668 19.9875 6.30002 19.7917 6.35002 19.575L7.45002 14.85L3.77502 11.675C3.60835 11.525 3.50418 11.3542 3.46252 11.1625C3.42085 10.9708 3.43335 10.7833 3.50002 10.6C3.56668 10.4167 3.66668 10.2667 3.80002 10.15C3.93335 10.0333 4.11668 9.95833 4.35002 9.925L9.20002 9.5L11.075 5.05C11.1583 4.85 11.2875 4.7 11.4625 4.6C11.6375 4.5 11.8167 4.45 12 4.45C12.1833 4.45 12.3625 4.5 12.5375 4.6C12.7125 4.7 12.8417 4.85 12.925 5.05L14.8 9.5L19.65 9.925C19.8833 9.95833 20.0667 10.0333 20.2 10.15C20.3333 10.2667 20.4333 10.4167 20.5 10.6C20.5667 10.7833 20.5792 10.9708 20.5375 11.1625C20.4958 11.3542 20.3917 11.525 20.225 11.675L16.55 14.85L17.65 19.575C17.7 19.7917 17.6833 19.9875 17.6 20.1625C17.5167 20.3375 17.4 20.4833 17.25 20.6C17.1 20.7167 16.925 20.7833 16.725 20.8C16.525 20.8167 16.3333 20.7667 16.15 20.65L12 18.15ZM19.25 6.7L17.75 7.575C17.65 7.625 17.5542 7.62083 17.4625 7.5625C17.3708 7.50417 17.3417 7.41667 17.375 7.3L17.775 5.65L16.45 4.55C16.3667 4.46667 16.3417 4.37917 16.375 4.2875C16.4083 4.19583 16.4833 4.14167 16.6 4.125L18.35 3.975L19.025 2.4C19.0583 2.3 19.1333 2.25 19.25 2.25C19.3667 2.25 19.4417 2.3 19.475 2.4L20.15 3.975L21.9 4.125C22.0167 4.14167 22.0917 4.19583 22.125 4.2875C22.1583 4.37917 22.1334 4.46667 22.05 4.55L20.725 5.65L21.125 7.3C21.1583 7.41667 21.1292 7.50417 21.0375 7.5625C20.9458 7.62083 20.85 7.625 20.75 7.575L19.25 6.7Z" fill="#0A8F32"/>
</g>
</svg>
