<svg width="24" height="25" viewBox="0 0 24 25" fill="none" xmlns="http://www.w3.org/2000/svg">
<mask id="mask0_107_3337" style="mask-type:alpha" maskUnits="userSpaceOnUse" x="0" y="0" width="24" height="25">
<rect x="24" y="24.875" width="24" height="24" transform="rotate(-180 24 24.875)" fill="#D9D9D9"/>
</mask>
<g mask="url(#mask0_107_3337)">
<path d="M11.9999 9.92504C12.1332 9.92504 12.2582 9.94587 12.3749 9.98754C12.4916 10.0292 12.5999 10.1 12.6999 10.2L17.2999 14.8C17.4832 14.9834 17.5791 15.2125 17.5874 15.4875C17.5957 15.7625 17.4999 16 17.2999 16.2C17.1166 16.3834 16.8832 16.475 16.5999 16.475C16.3166 16.475 16.0832 16.3834 15.8999 16.2L11.9999 12.325L8.09989 16.2C7.91656 16.3834 7.68739 16.4792 7.41239 16.4875C7.13739 16.4959 6.89989 16.4 6.69989 16.2C6.51656 16.0167 6.42489 15.7834 6.42489 15.5C6.42489 15.2167 6.51656 14.9834 6.69989 14.8L11.2999 10.2C11.3999 10.1 11.5082 10.0292 11.6249 9.98754C11.7416 9.94587 11.8666 9.92504 11.9999 9.92504Z" fill="#1C1B1F"/>
</g>
</svg>
