<svg width="41" height="41" viewBox="0 0 41 41" fill="none" xmlns="http://www.w3.org/2000/svg">
<path d="M28.1526 12.6018C28.1601 12.6018 28.1701 12.6018 28.1801 12.6018C28.4413 12.6018 28.6838 12.683 28.8826 12.823L28.8788 12.8205C29.0238 12.9468 29.1213 13.1243 29.1451 13.3243V13.328C29.1701 13.4805 29.1838 13.6555 29.1838 13.8343C29.1838 13.9155 29.1814 13.9955 29.1751 14.0755V14.0643C28.8939 17.0255 27.6738 24.2068 27.0539 27.5218C26.7913 28.9255 26.2751 29.3955 25.7751 29.4405C24.6888 29.5418 23.8638 28.723 22.8113 28.033C21.1639 26.9518 20.2326 26.2793 18.6339 25.2255C16.7851 24.0093 17.9839 23.338 19.0364 22.2455C19.3126 21.958 24.1013 17.6018 24.1951 17.2068C24.2001 17.183 24.2026 17.1568 24.2026 17.1293C24.2026 17.0318 24.1663 16.943 24.1076 16.8755C24.0426 16.833 23.9613 16.8093 23.8763 16.8093C23.8201 16.8093 23.7663 16.8205 23.7163 16.8393L23.7188 16.838C23.5539 16.8755 20.9222 18.6147 15.8238 22.0555C15.2676 22.4943 14.5651 22.7718 13.8001 22.8043H13.7926C12.7088 22.673 11.7251 22.4318 10.7913 22.088L10.8838 22.118C9.71135 21.7355 8.7801 21.5343 8.8601 20.8868C8.9026 20.5501 9.36677 20.2055 10.2526 19.853C15.7093 17.4755 19.348 15.9084 21.1688 15.1518C23.1776 14.0855 25.5063 13.208 27.9551 12.6393L28.1514 12.6005L28.1526 12.6018ZM20.4126 1.33301C10.0351 1.35801 1.63135 9.77676 1.63135 20.158C1.63135 30.5543 10.0588 38.983 20.4564 38.983C30.8539 38.983 39.2813 30.5555 39.2813 20.158C39.2813 9.77676 30.8776 1.35801 20.5026 1.33301H20.5001C20.4709 1.33301 20.4418 1.33301 20.4126 1.33301Z" fill="white"/>
</svg>
