<svg width="41" height="41" viewBox="0 0 41 41" fill="none" xmlns="http://www.w3.org/2000/svg">
<g clip-path="url(#clip0_108_693)">
<path fill-rule="evenodd" clip-rule="evenodd" d="M32.142 28.2939C31.66 29.6583 29.744 30.7871 28.216 31.1172C27.17 31.3392 25.806 31.5149 21.21 29.6104C16.048 27.4717 8.88 19.8537 8.88 14.7842C8.88 12.2034 10.368 9.19824 12.97 9.19824C14.222 9.19824 14.498 9.22266 14.91 10.2109C15.392 11.3753 16.568 14.244 16.708 14.5381C17.286 15.7444 16.12 16.4507 15.274 17.501C15.004 17.8171 14.698 18.1589 15.04 18.7471C15.38 19.3232 16.556 21.2399 18.284 22.7783C20.516 24.7669 22.326 25.4018 22.974 25.6719C23.456 25.8719 24.032 25.8253 24.384 25.4492C24.83 24.9671 25.384 24.1671 25.948 23.3789C26.346 22.8147 26.852 22.7443 27.382 22.9443C27.74 23.0684 32.29 25.1814 32.482 25.5195C32.624 25.7656 32.624 26.9295 32.142 28.2939ZM20.504 0.0517578H20.494C9.46799 0.0517578 0.5 9.02246 0.5 20.0518C0.5 24.4251 1.91001 28.4824 4.30801 31.7734L1.81601 39.2051L9.50201 36.749C12.664 38.8417 16.438 40.0518 20.504 40.0518C31.53 40.0518 40.5 31.0811 40.5 20.0518C40.5 9.02246 31.53 0.0517578 20.504 0.0517578Z" fill="white"/>
</g>
<defs>
<clipPath id="clip0_108_693">
<rect width="40" height="40" fill="white" transform="translate(0.5 0.0517578)"/>
</clipPath>
</defs>
</svg>
