<svg width="41" height="41" viewBox="0 0 41 41" fill="none" xmlns="http://www.w3.org/2000/svg">
<g clip-path="url(#clip0_108_686)">
<path fill-rule="evenodd" clip-rule="evenodd" d="M16.4769 25.224V14.0004C20.4613 15.8752 23.5472 17.6864 27.1969 19.639C24.1867 21.3084 20.4613 23.1816 16.4769 25.224ZM38.682 8.41833C37.9947 7.51281 36.8233 6.80794 35.5762 6.57458C31.9105 5.87848 9.04197 5.8765 5.3783 6.57458C4.37822 6.76206 3.48767 7.21522 2.72267 7.9193C-0.500725 10.9111 0.509332 26.9552 1.28629 29.5541C1.61301 30.679 2.03538 31.4903 2.5673 32.0228C3.25262 32.7269 4.19093 33.2117 5.26872 33.4291C8.28691 34.0534 23.8361 34.4024 35.5124 33.5228C36.5882 33.3353 37.5405 32.8349 38.2915 32.1009C41.2719 29.1211 41.0687 12.176 38.682 8.41833Z" fill="white"/>
</g>
<defs>
<clipPath id="clip0_108_686">
<rect width="40" height="40" fill="white" transform="translate(0.5 0.0517578)"/>
</clipPath>
</defs>
</svg>
