<svg width="412" height="483" viewBox="0 0 412 483" fill="none" xmlns="http://www.w3.org/2000/svg">
<path d="M73.4062 348.301L65.4434 366.477C64.7285 368.117 63.9668 369.529 63.1582 370.713C62.3496 371.885 61.3242 372.787 60.082 373.42C58.8398 374.041 57.2109 374.352 55.1953 374.352C54.5625 374.352 53.877 374.305 53.1387 374.211C52.4004 374.129 51.7148 374 51.082 373.824V369.148C51.668 369.371 52.3008 369.535 52.9805 369.641C53.6719 369.734 54.3223 369.781 54.9316 369.781C55.7285 369.781 56.373 369.646 56.8652 369.377C57.3574 369.107 57.75 368.744 58.043 368.287C58.3359 367.83 58.582 367.32 58.7812 366.758L49.8867 348.301H55.6523L60.4512 359.428C60.5566 359.662 60.6914 359.979 60.8555 360.377C61.0312 360.764 61.2012 361.162 61.3652 361.572C61.541 361.971 61.6758 362.322 61.7695 362.627H61.9629C62.0566 362.334 62.1797 361.982 62.332 361.572C62.4961 361.15 62.666 360.723 62.8418 360.289C63.0176 359.844 63.1758 359.445 63.3164 359.094L67.7812 348.301H73.4062ZM93.6387 359.498C93.6387 360.553 93.3047 361.455 92.6367 362.205C91.9805 362.943 91.0078 363.418 89.7188 363.629V363.77C91.0781 363.934 92.1738 364.408 93.0059 365.193C93.8379 365.967 94.2539 366.945 94.2539 368.129C94.2539 369.254 93.9609 370.262 93.375 371.152C92.7891 372.031 91.8574 372.729 90.5801 373.244C89.3027 373.748 87.6328 374 85.5703 374H76.2188V354.348H85.5703C87.1055 354.348 88.4824 354.512 89.7012 354.84C90.9199 355.156 91.8809 355.689 92.584 356.439C93.2871 357.189 93.6387 358.209 93.6387 359.498ZM88.6992 367.848C88.6992 367.074 88.3945 366.518 87.7852 366.178C87.1875 365.826 86.2969 365.65 85.1133 365.65H81.5801V370.291H85.2188C86.2266 370.291 87.0586 370.104 87.7148 369.729C88.3711 369.354 88.6992 368.727 88.6992 367.848ZM88.207 359.92C88.207 359.311 87.9668 358.859 87.4863 358.566C87.0059 358.273 86.2969 358.127 85.3594 358.127H81.5801V362.012H84.7441C85.8809 362.012 86.7422 361.848 87.3281 361.52C87.9141 361.191 88.207 360.658 88.207 359.92ZM98.8594 374V354.348H104.221V361.941H106.805C108.809 361.941 110.461 362.152 111.762 362.574C113.074 362.996 114.047 363.641 114.68 364.508C115.312 365.363 115.629 366.441 115.629 367.742C115.629 369.008 115.336 370.109 114.75 371.047C114.164 371.984 113.238 372.711 111.973 373.227C110.707 373.742 109.049 374 106.998 374H98.8594ZM104.221 370.291H106.699C107.742 370.291 108.598 370.104 109.266 369.729C109.934 369.342 110.268 368.703 110.268 367.812C110.268 367.051 109.963 366.5 109.354 366.16C108.744 365.82 107.836 365.65 106.629 365.65H104.221V370.291ZM118.477 374V354.348H123.838V374H118.477ZM128.725 371.486C128.725 370.385 129.023 369.611 129.621 369.166C130.23 368.721 130.963 368.498 131.818 368.498C132.65 368.498 133.365 368.721 133.963 369.166C134.572 369.611 134.877 370.385 134.877 371.486C134.877 372.541 134.572 373.303 133.963 373.771C133.365 374.24 132.65 374.475 131.818 374.475C130.963 374.475 130.23 374.24 129.621 373.771C129.023 373.303 128.725 372.541 128.725 371.486ZM138.99 371.486C138.99 370.385 139.289 369.611 139.887 369.166C140.496 368.721 141.229 368.498 142.084 368.498C142.916 368.498 143.631 368.721 144.229 369.166C144.838 369.611 145.143 370.385 145.143 371.486C145.143 372.541 144.838 373.303 144.229 373.771C143.631 374.24 142.916 374.475 142.084 374.475C141.229 374.475 140.496 374.24 139.887 373.771C139.289 373.303 138.99 372.541 138.99 371.486ZM149.256 371.486C149.256 370.385 149.555 369.611 150.152 369.166C150.762 368.721 151.494 368.498 152.35 368.498C153.182 368.498 153.896 368.721 154.494 369.166C155.104 369.611 155.408 370.385 155.408 371.486C155.408 372.541 155.104 373.303 154.494 373.771C153.896 374.24 153.182 374.475 152.35 374.475C151.494 374.475 150.762 374.24 150.152 373.771C149.555 373.303 149.256 372.541 149.256 371.486ZM24.627 423.352C22.6816 423.352 21.0234 423 19.6523 422.297C18.2812 421.582 17.2383 420.48 16.5234 418.992C15.8086 417.504 15.4512 415.6 15.4512 413.279C15.4512 410.877 15.8555 408.92 16.6641 407.408C17.4844 405.885 18.6152 404.766 20.0566 404.051C21.5098 403.336 23.1914 402.979 25.1016 402.979C26.4609 402.979 27.6328 403.113 28.6172 403.383C29.6133 403.641 30.4805 403.951 31.2188 404.314L29.6367 408.463C28.793 408.123 28.0078 407.848 27.2812 407.637C26.5547 407.414 25.8281 407.303 25.1016 407.303C24.1641 407.303 23.3848 407.525 22.7637 407.971C22.1426 408.404 21.6797 409.061 21.375 409.939C21.0703 410.818 20.918 411.92 20.918 413.244C20.918 414.545 21.082 415.623 21.4102 416.479C21.7383 417.334 22.2129 417.973 22.834 418.395C23.4551 418.805 24.2109 419.01 25.1016 419.01C26.2148 419.01 27.2051 418.863 28.0723 418.57C28.9395 418.266 29.7832 417.844 30.6035 417.305V421.893C29.7832 422.408 28.9219 422.777 28.0195 423C27.1289 423.234 25.998 423.352 24.627 423.352ZM51.4336 407.373H45V423H39.6387V407.373H33.1875V403.348H51.4336V407.373ZM66.041 402.979C68.2559 402.979 70.043 403.84 71.4023 405.562C72.7734 407.285 73.459 409.811 73.459 413.139C73.459 415.365 73.1367 417.24 72.4922 418.764C71.8477 420.275 70.957 421.418 69.8203 422.191C68.6836 422.965 67.377 423.352 65.9004 423.352C64.9512 423.352 64.1367 423.234 63.457 423C62.7773 422.754 62.1973 422.443 61.7168 422.068C61.2363 421.682 60.8203 421.271 60.4688 420.838H60.1875C60.2812 421.307 60.3516 421.787 60.3984 422.279C60.4453 422.771 60.4688 423.252 60.4688 423.721V431.648H55.1074V403.348H59.4668L60.2227 405.896H60.4688C60.8203 405.369 61.248 404.883 61.752 404.438C62.2559 403.992 62.8594 403.641 63.5625 403.383C64.2773 403.113 65.1035 402.979 66.041 402.979ZM64.3184 407.268C63.3809 407.268 62.6367 407.461 62.0859 407.848C61.5352 408.234 61.1309 408.814 60.873 409.588C60.627 410.361 60.4922 411.34 60.4688 412.523V413.104C60.4688 414.369 60.5859 415.441 60.8203 416.32C61.0664 417.199 61.4707 417.867 62.0332 418.324C62.6074 418.781 63.3926 419.01 64.3887 419.01C65.209 419.01 65.8828 418.781 66.4102 418.324C66.9375 417.867 67.3301 417.199 67.5879 416.32C67.8574 415.43 67.9922 414.346 67.9922 413.068C67.9922 411.146 67.6934 409.699 67.0957 408.727C66.498 407.754 65.5723 407.268 64.3184 407.268ZM85.9395 402.943C88.5762 402.943 90.5977 403.518 92.0039 404.666C93.4102 405.814 94.1133 407.561 94.1133 409.904V423H90.3691L89.332 420.328H89.1914C88.6289 421.031 88.0547 421.605 87.4688 422.051C86.8828 422.496 86.209 422.824 85.4473 423.035C84.6855 423.246 83.7598 423.352 82.6699 423.352C81.5098 423.352 80.4668 423.129 79.541 422.684C78.627 422.238 77.9062 421.559 77.3789 420.645C76.8516 419.719 76.5879 418.547 76.5879 417.129C76.5879 415.043 77.3203 413.508 78.7852 412.523C80.25 411.527 82.4473 410.977 85.377 410.871L88.7871 410.766V409.904C88.7871 408.873 88.5176 408.117 87.9785 407.637C87.4395 407.156 86.6895 406.916 85.7285 406.916C84.7793 406.916 83.8477 407.051 82.9336 407.32C82.0195 407.59 81.1055 407.93 80.1914 408.34L78.416 404.719C79.459 404.168 80.625 403.734 81.9141 403.418C83.2148 403.102 84.5566 402.943 85.9395 402.943ZM88.7871 413.895L86.7129 413.965C84.9785 414.012 83.7715 414.322 83.0918 414.896C82.4238 415.471 82.0898 416.227 82.0898 417.164C82.0898 417.984 82.3301 418.57 82.8105 418.922C83.291 419.262 83.918 419.432 84.6914 419.432C85.8398 419.432 86.8066 419.092 87.5918 418.412C88.3887 417.732 88.7871 416.766 88.7871 415.512V413.895ZM105.012 403.348V410.906H112.5V403.348H117.861V423H112.5V414.896H105.012V423H99.6504V403.348H105.012ZM128.672 403.348V411.117C128.672 411.516 128.654 412.02 128.619 412.629C128.596 413.227 128.561 413.836 128.514 414.457C128.467 415.078 128.42 415.635 128.373 416.127C128.326 416.619 128.291 416.953 128.268 417.129L137.338 403.348H143.789V423H138.604V415.16C138.604 414.516 138.627 413.807 138.674 413.033C138.721 412.248 138.773 411.51 138.832 410.818C138.891 410.127 138.932 409.605 138.955 409.254L129.92 423H123.486V403.348H128.672ZM170.877 430.049H166.061V423H149.432V403.348H154.793V418.975H162.633V403.348H168.012V419.08H170.877V430.049ZM182.268 402.943C184.904 402.943 186.926 403.518 188.332 404.666C189.738 405.814 190.441 407.561 190.441 409.904V423H186.697L185.66 420.328H185.52C184.957 421.031 184.383 421.605 183.797 422.051C183.211 422.496 182.537 422.824 181.775 423.035C181.014 423.246 180.088 423.352 178.998 423.352C177.838 423.352 176.795 423.129 175.869 422.684C174.955 422.238 174.234 421.559 173.707 420.645C173.18 419.719 172.916 418.547 172.916 417.129C172.916 415.043 173.648 413.508 175.113 412.523C176.578 411.527 178.775 410.977 181.705 410.871L185.115 410.766V409.904C185.115 408.873 184.846 408.117 184.307 407.637C183.768 407.156 183.018 406.916 182.057 406.916C181.107 406.916 180.176 407.051 179.262 407.32C178.348 407.59 177.434 407.93 176.52 408.34L174.744 404.719C175.787 404.168 176.953 403.734 178.242 403.418C179.543 403.102 180.885 402.943 182.268 402.943ZM185.115 413.895L183.041 413.965C181.307 414.012 180.1 414.322 179.42 414.896C178.752 415.471 178.418 416.227 178.418 417.164C178.418 417.984 178.658 418.57 179.139 418.922C179.619 419.262 180.246 419.432 181.02 419.432C182.168 419.432 183.135 419.092 183.92 418.412C184.717 417.732 185.115 416.766 185.115 415.512V413.895ZM34.3125 452.348V460.117C34.3125 460.516 34.2949 461.02 34.2598 461.629C34.2363 462.227 34.2012 462.836 34.1543 463.457C34.1074 464.078 34.0605 464.635 34.0137 465.127C33.9668 465.619 33.9316 465.953 33.9082 466.129L42.9785 452.348H49.4297V472H44.2441V464.16C44.2441 463.516 44.2676 462.807 44.3145 462.033C44.3613 461.248 44.4141 460.51 44.4727 459.818C44.5312 459.127 44.5723 458.605 44.5957 458.254L35.5605 472H29.127V452.348H34.3125ZM63.0527 472.352C61.1074 472.352 59.4492 472 58.0781 471.297C56.707 470.582 55.6641 469.48 54.9492 467.992C54.2344 466.504 53.877 464.6 53.877 462.279C53.877 459.877 54.2812 457.92 55.0898 456.408C55.9102 454.885 57.041 453.766 58.4824 453.051C59.9355 452.336 61.6172 451.979 63.5273 451.979C64.8867 451.979 66.0586 452.113 67.043 452.383C68.0391 452.641 68.9062 452.951 69.6445 453.314L68.0625 457.463C67.2188 457.123 66.4336 456.848 65.707 456.637C64.9805 456.414 64.2539 456.303 63.5273 456.303C62.5898 456.303 61.8105 456.525 61.1895 456.971C60.5684 457.404 60.1055 458.061 59.8008 458.939C59.4961 459.818 59.3438 460.92 59.3438 462.244C59.3438 463.545 59.5078 464.623 59.8359 465.479C60.1641 466.334 60.6387 466.973 61.2598 467.395C61.8809 467.805 62.6367 468.01 63.5273 468.01C64.6406 468.01 65.6309 467.863 66.498 467.57C67.3652 467.266 68.209 466.844 69.0293 466.305V470.893C68.209 471.408 67.3477 471.777 66.4453 472C65.5547 472.234 64.4238 472.352 63.0527 472.352ZM78.3105 452.348V459.537C78.3105 460.393 78.5156 461.037 78.9258 461.471C79.3477 461.893 79.9336 462.104 80.6836 462.104C81.7148 462.104 82.6699 461.986 83.5488 461.752C84.4395 461.518 85.3359 461.213 86.2383 460.838V452.348H91.5996V472H86.2383V464.195C85.3828 464.641 84.416 465.051 83.3379 465.426C82.2715 465.801 81.0527 465.988 79.6816 465.988C77.6309 465.988 75.9961 465.467 74.7773 464.424C73.5586 463.369 72.9492 461.781 72.9492 459.66V452.348H78.3105ZM105.328 451.979C107.145 451.979 108.709 452.33 110.021 453.033C111.334 453.725 112.348 454.732 113.062 456.057C113.777 457.381 114.135 458.998 114.135 460.908V463.51H101.461C101.52 465.021 101.971 466.211 102.814 467.078C103.67 467.934 104.854 468.361 106.365 468.361C107.619 468.361 108.768 468.232 109.811 467.975C110.854 467.717 111.926 467.33 113.027 466.814V470.963C112.055 471.443 111.035 471.795 109.969 472.018C108.914 472.24 107.631 472.352 106.119 472.352C104.15 472.352 102.404 471.988 100.881 471.262C99.3691 470.535 98.1797 469.428 97.3125 467.939C96.457 466.451 96.0293 464.576 96.0293 462.314C96.0293 460.018 96.416 458.107 97.1895 456.584C97.9746 455.049 99.0645 453.9 100.459 453.139C101.854 452.365 103.477 451.979 105.328 451.979ZM105.363 455.793C104.32 455.793 103.453 456.127 102.762 456.795C102.082 457.463 101.689 458.512 101.584 459.941H109.107C109.096 459.145 108.949 458.436 108.668 457.814C108.398 457.193 107.988 456.701 107.438 456.338C106.898 455.975 106.207 455.793 105.363 455.793ZM125.648 451.979C127.066 451.979 128.391 452.166 129.621 452.541C130.852 452.904 131.848 453.473 132.609 454.246C133.371 455.008 133.752 455.992 133.752 457.199C133.752 458.383 133.395 459.326 132.68 460.029C131.965 460.721 131.016 461.219 129.832 461.523V461.699C130.664 461.898 131.414 462.168 132.082 462.508C132.762 462.848 133.301 463.316 133.699 463.914C134.098 464.512 134.297 465.297 134.297 466.27C134.297 467.359 133.951 468.367 133.26 469.293C132.568 470.207 131.508 470.945 130.078 471.508C128.66 472.07 126.838 472.352 124.611 472.352C123.557 472.352 122.561 472.305 121.623 472.211C120.697 472.117 119.848 471.982 119.074 471.807C118.301 471.619 117.627 471.396 117.053 471.139V466.709C117.861 467.084 118.857 467.43 120.041 467.746C121.236 468.062 122.508 468.221 123.855 468.221C124.828 468.221 125.707 468.15 126.492 468.01C127.289 467.869 127.916 467.635 128.373 467.307C128.842 466.967 129.076 466.516 129.076 465.953C129.076 465.426 128.871 464.992 128.461 464.652C128.062 464.301 127.447 464.043 126.615 463.879C125.795 463.703 124.752 463.615 123.486 463.615H121.412V459.906H123.381C125.162 459.906 126.539 459.76 127.512 459.467C128.484 459.174 128.971 458.635 128.971 457.85C128.971 457.217 128.66 456.742 128.039 456.426C127.418 456.109 126.393 455.951 124.963 455.951C124.037 455.951 123.018 456.062 121.904 456.285C120.791 456.496 119.748 456.801 118.775 457.199L117.193 453.455C118.33 453.021 119.561 452.67 120.885 452.4C122.221 452.119 123.809 451.979 125.648 451.979ZM156.094 472H150.732V456.373H145.793C145.547 459.256 145.254 461.711 144.914 463.738C144.574 465.766 144.141 467.418 143.613 468.695C143.086 469.961 142.43 470.887 141.645 471.473C140.859 472.059 139.893 472.352 138.744 472.352C138.111 472.352 137.543 472.305 137.039 472.211C136.547 472.117 136.096 471.977 135.686 471.789V467.5C135.943 467.605 136.219 467.693 136.512 467.764C136.805 467.822 137.104 467.852 137.408 467.852C137.748 467.852 138.07 467.717 138.375 467.447C138.68 467.178 138.967 466.715 139.236 466.059C139.506 465.391 139.758 464.471 139.992 463.299C140.238 462.127 140.461 460.645 140.66 458.852C140.859 457.059 141.047 454.891 141.223 452.348H156.094V472ZM169.787 451.943C172.424 451.943 174.445 452.518 175.852 453.666C177.258 454.814 177.961 456.561 177.961 458.904V472H174.217L173.18 469.328H173.039C172.477 470.031 171.902 470.605 171.316 471.051C170.73 471.496 170.057 471.824 169.295 472.035C168.533 472.246 167.607 472.352 166.518 472.352C165.357 472.352 164.314 472.129 163.389 471.684C162.475 471.238 161.754 470.559 161.227 469.645C160.699 468.719 160.436 467.547 160.436 466.129C160.436 464.043 161.168 462.508 162.633 461.523C164.098 460.527 166.295 459.977 169.225 459.871L172.635 459.766V458.904C172.635 457.873 172.365 457.117 171.826 456.637C171.287 456.156 170.537 455.916 169.576 455.916C168.627 455.916 167.695 456.051 166.781 456.32C165.867 456.59 164.953 456.93 164.039 457.34L162.264 453.719C163.307 453.168 164.473 452.734 165.762 452.418C167.062 452.102 168.404 451.943 169.787 451.943ZM172.635 462.895L170.561 462.965C168.826 463.012 167.619 463.322 166.939 463.896C166.271 464.471 165.938 465.227 165.938 466.164C165.938 466.984 166.178 467.57 166.658 467.922C167.139 468.262 167.766 468.432 168.539 468.432C169.688 468.432 170.654 468.092 171.439 467.412C172.236 466.732 172.635 465.766 172.635 464.512V462.895Z" fill="black"/>
<path fill-rule="evenodd" clip-rule="evenodd" d="M182.115 1.4247C162.318 4.5037 150.95 8.8147 134.447 19.5017C118.817 29.6227 105.758 44.6947 95.9739 63.9047L92.1299 71.4527L77.5379 71.0377C64.7129 70.6737 61.9179 70.8977 54.4469 72.8897C28.6599 79.7667 11.1579 96.1647 3.78388 120.357C2.41488 124.851 1.96688 129.495 2.00188 138.857C2.04288 149.859 2.38088 152.315 4.82088 159.347C11.5269 178.671 25.1229 193.293 43.6029 201.058C52.3109 204.716 69.6119 208.539 83.8139 209.941C99.8109 211.521 299.208 211.522 313.806 209.942C354.891 205.496 377.394 193.693 390.23 169.857C400.332 151.099 400.328 127.553 390.219 108.857C380.253 90.4257 365.26 78.3357 344.783 72.2197C340.384 70.9057 335.746 70.5117 325.947 70.6207C318.797 70.6997 311.856 70.8977 310.522 71.0607C308.431 71.3157 307.432 70.2087 303.266 63.0117C288.451 37.4197 272.289 20.9177 251.94 10.6067C233.745 1.3867 205.898 -2.2753 182.115 1.4247ZM217.941 5.3787C250.995 10.0187 276.695 27.8287 295.111 58.8567C297.886 63.5317 301.221 69.2977 302.522 71.6707L304.887 75.9837L309.917 75.1707C318.901 73.7177 336.371 74.2807 343.839 76.2647C367.168 82.4607 384.032 98.1577 390.976 120.138C394.546 131.44 394.508 147.163 390.884 158.046C384.434 177.414 366.458 194.779 345.579 201.813C328.746 207.483 334.989 207.24 207.884 207.176C88.4539 207.116 84.6489 207.01 65.4469 203.229C47.1339 199.622 35.5259 194.411 25.6409 185.36C12.3419 173.181 6.44688 159.574 6.44688 141.052C6.44688 129.009 8.22988 121.189 13.2339 111.277C24.3919 89.1787 44.5739 75.1157 67.7029 73.3197C75.1379 72.7427 87.6259 73.7557 93.0089 75.3727C94.8089 75.9127 95.5569 74.8997 98.9129 67.3687C119.327 21.5547 164.729 -2.0913 217.941 5.3787ZM188.386 91.2217C181.959 92.9547 178.301 95.8857 174.896 102.033C172 107.261 171.941 107.667 171.615 124.569C171.347 138.461 171.607 142.896 172.963 147.56C176.557 159.924 188.091 166.61 201.263 163.965C210.314 162.147 215.936 156.696 218.835 146.925C221.115 139.244 221.07 115.707 218.76 107.475C216.386 99.0147 210.052 92.5267 202.648 90.9707C196.181 89.6117 194.23 89.6457 188.386 91.2217ZM125.495 114.083C117.547 126.822 110.859 138.502 110.634 140.039C110.408 141.575 110.508 143.962 110.854 145.344L111.485 147.857H125.966H140.447V155.901V163.945L147.697 163.651L154.947 163.357L155.239 155.607L155.531 147.857H159.539H163.547L163.247 142.107L162.947 136.357L159.197 136.047L155.447 135.736V113.297V90.8567L147.697 90.8887L139.947 90.9197L125.495 114.083ZM254.146 97.6067C228.37 138.189 228.173 138.545 228.894 143.353L229.57 147.857H244.008H258.447V155.857V163.857H265.947H273.447V155.857V147.857H277.447H281.447V141.857V135.857H277.447H273.447V113.357V90.8567H265.94H258.434L254.146 97.6067ZM201.438 104.694C205.098 108.354 205.733 112.713 205.293 131.17C204.986 144.072 204.71 146.033 202.845 148.536C198.321 154.606 191.718 153.84 188.199 146.837C186.748 143.95 186.45 140.58 186.449 127.067C186.447 112.822 186.695 110.292 188.42 106.909C190.571 102.693 191.515 102.055 195.774 101.936C197.618 101.884 199.587 102.844 201.438 104.694ZM140.1 135.537C139.873 135.764 136.455 135.816 132.503 135.653L125.318 135.357L130.992 125.857C140.86 109.333 139.905 109.604 140.23 123.241C140.385 129.777 140.327 135.31 140.1 135.537ZM258.1 135.537C257.873 135.764 254.529 135.816 250.668 135.653L243.649 135.357L250.798 123.357L257.947 111.357L258.23 123.241C258.385 129.777 258.327 135.31 258.1 135.537ZM162.595 223.391C160.752 224.191 158.322 226.018 157.195 227.451C153.559 232.072 150.114 234.771 146.995 235.442C139.112 237.138 135.447 241.424 135.447 248.95C135.447 252.624 136.035 253.726 140.197 257.856C147.7 265.3 155.006 267.357 173.947 267.357C187.47 267.357 189.587 267.114 195.447 264.89C199.919 263.193 203.429 260.946 206.697 257.688C210.967 253.431 211.447 252.495 211.447 248.425C211.447 245.935 210.73 242.105 209.853 239.914C208.48 236.483 207.504 235.648 202.816 233.894C199.822 232.774 197.051 231.855 196.659 231.853C196.268 231.85 193.614 230.08 190.763 227.918C187.912 225.756 183.862 223.511 181.763 222.928C176.381 221.433 166.556 221.671 162.595 223.391ZM182.548 227.029C186.905 228.532 191.447 231.858 191.447 233.545C191.447 234.345 192.655 234.857 194.546 234.857C201.658 234.857 207.477 240.192 207.667 246.887C207.943 256.587 192.181 263.857 170.876 263.857C151.907 263.857 140.591 258.011 140.482 248.154C140.417 242.218 142.266 239.916 148.487 238.186C152.769 236.996 154.579 235.904 155.857 233.74C159.692 227.247 173.277 223.832 182.548 227.029ZM188.101 282.94C183.306 284.094 177.216 288.389 175.64 291.728C173.618 296.013 174.138 302.218 176.722 304.646C179.808 307.545 190.458 310.183 195.768 309.364C211.811 306.889 215.184 302.221 209.312 290.62C206.179 284.433 196.486 280.923 188.101 282.94ZM200.441 288.661C204.017 290.41 207.31 295.531 207.399 299.485C207.489 303.462 204.977 304.299 192.863 304.329C179.675 304.362 177.855 303.501 178.948 297.749C180.659 288.745 191.359 284.221 200.441 288.661ZM222.621 316.171C219.787 319.189 219.681 325.613 222.409 329.082C223.488 330.453 226.322 332.122 228.706 332.79C232.391 333.821 233.676 333.749 237.273 332.31C243.219 329.931 244.875 326.085 242.344 320.53C239.553 314.404 226.907 311.609 222.621 316.171ZM237.374 320.492C241.298 325.48 239.32 329.038 232.524 329.216C227.739 329.342 224.447 326.706 224.447 322.752C224.447 319.395 226.611 317.929 231.624 317.887C234.427 317.864 235.795 318.483 237.374 320.492ZM361.655 321.413C360.395 322.302 358.269 324.763 356.931 326.883L354.497 330.737L348.222 328.182C336.319 323.335 331.65 322.45 317.947 322.44C305.456 322.431 304.683 322.554 298.211 325.575C281.74 333.263 267.532 348.497 261.285 365.169C258.871 371.613 257.849 386.397 259.289 394.058C260.273 399.289 260.166 400.114 257.992 404.058C253.028 413.069 251.025 422.305 250.989 436.357C250.957 448.633 251.109 449.657 253.725 454.736C255.667 458.508 256.68 462.308 257.115 467.452C257.824 475.84 259.355 478.182 265.19 479.803C269.766 481.073 288.427 481.195 291.635 479.976C293.117 479.412 296.297 479.597 300.45 480.489C304.05 481.261 311.629 481.817 317.447 481.734C323.222 481.653 331.416 481.93 335.657 482.35C343.44 483.122 349.451 482.245 355.947 479.388C357.597 478.663 365.922 477.599 374.447 477.024C382.972 476.449 391.546 475.504 393.501 474.925C398.08 473.567 401.447 470.401 401.447 467.453C401.447 464.492 397.844 459.857 395.541 459.857C392.884 459.857 392.404 458.857 393.924 456.492C396.903 451.861 399.561 441.352 400.122 431.994C400.801 420.649 399.4 410.345 395.828 400.423C394.429 396.537 392.691 389.307 391.966 384.357C390.254 372.666 389.862 371.197 385.334 359.507C381.003 348.322 377.208 341.363 374.974 340.506C372.521 339.564 373.178 337.798 377.447 333.857C384.009 327.799 382.267 324.68 373.343 326.508L368.546 327.49L368.246 323.924C367.897 319.763 365.364 318.799 361.655 321.413ZM365.447 324.907C365.447 326.034 364.745 328.314 363.886 329.974C361.776 334.056 362.464 335.41 365.471 333.089C368.362 330.856 373.847 328.838 376.846 328.902C378.579 328.939 378.103 329.703 374.124 333.27L369.302 337.593L373.847 344.371C376.347 348.099 379.149 353.221 380.074 355.753C380.999 358.285 383.065 363.423 384.665 367.17C386.563 371.614 388.028 377.527 388.878 384.17C389.617 389.944 391.127 396.417 392.364 399.113C397.241 409.744 398.989 431.302 395.835 441.924C394.948 444.91 392.698 450.381 390.835 454.08C388.971 457.78 387.447 461.729 387.447 462.855C387.447 464.753 387.613 464.794 389.711 463.42C394.084 460.554 399.781 466.34 396.49 470.305C395.002 472.098 385.482 473.647 371.209 474.419L359.472 475.053L358.459 472.39C357.017 468.596 357.208 464.3 358.88 462.912C359.669 462.258 360.761 459.624 361.308 457.058C362.153 453.098 361.986 451.655 360.2 447.505C358.296 443.078 358.21 442.066 359.295 436.814C360.307 431.912 360.251 430.407 358.93 427.106C357.741 424.134 357.616 422.544 358.407 420.463C358.979 418.958 359.447 416.145 359.447 414.212C359.447 410.828 359.558 410.722 362.447 411.357C367.014 412.36 365.961 410.77 359.134 406.357C354.74 403.516 351.716 400.52 348.697 396.016C343.697 388.556 343.213 384.711 346.966 382.252C351.41 379.341 358.75 381.864 368.362 389.606C371.542 392.167 371.694 392.2 370.563 390.081C369.281 387.678 360.699 380.924 358.874 380.882C357.648 380.853 353.447 372.909 353.447 370.619C353.447 369.784 354.429 368.449 355.629 367.652C357.784 366.221 357.755 366.165 353.199 363.03C348.315 359.67 344.498 359.095 340.526 361.122C336.732 363.058 336.939 364.643 341.132 365.773L344.947 366.8L344.902 373.078C344.871 377.344 344.291 380.212 343.091 382.024C340.875 385.372 342.004 390.427 346.426 396.952C350.059 402.315 350.105 403.128 346.993 407.207C343.215 412.162 342.785 417.514 345.548 425.217C347.78 431.441 347.809 431.874 346.227 435.191C344.88 438.017 344.778 439.327 345.679 442.262C346.634 445.374 346.466 446.547 344.445 450.861C343.022 453.9 341.457 455.857 340.45 455.857C339.54 455.857 337.748 456.973 336.467 458.336L334.138 460.815L331.84 458.336C328.897 455.16 327.933 455.217 324.37 458.78C321.425 461.725 321.108 463.047 320.998 472.857L320.947 477.357L310.428 477.266C296.97 477.149 295.793 476.531 294.897 469.111C294.514 465.946 293.601 461.555 292.868 459.352C292.134 457.15 291.595 454.45 291.669 453.352C291.742 452.255 291.232 449.652 290.534 447.568C289.545 444.613 289.521 442.717 290.425 438.948C291.418 434.81 291.281 432.846 289.466 425.237C287.565 417.27 287.476 415.703 288.602 409.997C289.719 404.34 289.666 403.304 288.125 400.619C286.458 397.713 286.473 397.436 288.526 393.193C290.35 389.425 290.486 388.365 289.459 385.886C288.749 384.171 287.072 382.573 285.353 381.974C282.802 381.085 282.447 380.475 282.447 376.981C282.447 373.682 283.002 372.566 285.697 370.452C288.394 368.336 288.76 367.6 287.846 366.129C286.244 363.55 282.188 363.438 277.474 365.843C272.992 368.13 271.821 369.892 272.98 372.607C273.391 373.569 273.889 376.632 274.088 379.413C274.444 384.4 274.374 384.541 268.916 389.798C265.873 392.728 263.098 394.841 262.75 394.493C262.401 394.145 261.914 390.368 261.667 386.101C260.521 366.308 271.702 346.445 291.283 333.486C307.509 322.747 321.732 322.204 347.022 331.359C352.337 333.283 356.801 334.857 356.941 334.857C357.082 334.857 357.454 333.57 357.769 331.997C358.362 329.034 362.935 322.857 364.536 322.857C365.037 322.857 365.447 323.779 365.447 324.907ZM390.607 347.107C384.27 352.184 384.877 353.393 394.541 354.95C403.235 356.35 405.541 353.806 401.921 346.807C399.826 342.756 395.909 342.859 390.607 347.107ZM399.063 348.299C400.256 351.406 399.106 352.553 395.697 351.655C391.907 350.658 391.512 349.168 394.697 347.888C397.871 346.613 398.436 346.666 399.063 348.299ZM239.993 358.064C237.721 360.018 237.276 361.041 237.798 363.119C238.782 367.04 241.618 367.332 248.682 364.239C252.128 362.73 255.532 361.053 256.247 360.512C258.553 358.768 255.36 356.922 248.867 356.243C243.428 355.675 242.565 355.852 239.993 358.064ZM247.586 360.89C244.836 363.181 241.447 363.485 241.447 361.44C241.447 359.719 242.981 359.03 246.947 358.969L249.947 358.924L247.586 360.89ZM400.947 360.581C395.948 361.809 395.194 364.695 398.902 368.402C401.769 371.27 407.798 371.754 410.475 369.332C413.123 366.935 411.811 362.907 407.842 361.249C404.368 359.797 404.2 359.781 400.947 360.581ZM407.947 365.857C407.947 367.751 403.81 368.403 401.892 366.811C399.423 364.763 400.29 363.723 404.197 364.047C406.726 364.256 407.947 364.846 407.947 365.857ZM306.389 366.746C300.441 368.689 291.447 375.707 291.447 378.405C291.447 382.276 304.228 386.427 313.544 385.582C320.27 384.972 327.858 381.825 329.357 379.025C330.285 377.291 329.756 376.273 325.627 371.852C321.035 366.935 320.545 366.683 314.881 366.305C311.617 366.088 307.796 366.286 306.389 366.746ZM321.476 371.383C322.56 372.364 323.447 373.48 323.447 373.862C323.447 374.245 319.464 374.84 314.597 375.186C309.729 375.531 303.428 376.311 300.596 376.919C293.23 378.498 292.634 377.78 298.07 373.876C306.191 368.044 316.565 366.939 321.476 371.383ZM349.865 368.464C350.735 368.798 351.447 369.945 351.447 371.014C351.447 372.082 352.134 374.284 352.973 375.907C354.498 378.856 354.498 378.857 351.508 378.857C347.978 378.857 346.447 376.609 346.447 371.423C346.447 367.824 346.984 367.358 349.865 368.464ZM243.947 371.363C237.07 373.802 234.536 378.817 238.41 382.323C240.812 384.497 242.793 383.85 245.032 380.161C245.968 378.619 247.59 376.11 248.636 374.586C250.37 372.06 250.371 369.791 248.638 369.901C248.258 369.925 246.147 370.583 243.947 371.363ZM280.654 377.107C280.323 381.96 279.964 382.857 278.354 382.857C275.395 382.857 275.62 374.55 278.637 372.437C279.841 371.593 280.876 371.005 280.936 371.13C280.997 371.255 280.87 373.944 280.654 377.107ZM243.477 377.802C242.353 379.902 239.447 380.663 239.447 378.857C239.447 378.307 240.431 376.873 241.635 375.67C244.09 373.214 245.227 374.53 243.477 377.802ZM322.969 378.504C326.415 379.826 318.437 381.859 310.082 381.787C299.708 381.697 295.797 380.398 302.947 379.416C305.697 379.039 308.622 378.586 309.447 378.409C312.31 377.798 321.292 377.86 322.969 378.504ZM287.256 387.53C287.728 390.844 284.378 396.454 276.031 406.328C267.374 416.569 266.061 419.632 273.447 412.357C278.998 406.889 279.435 407.442 276.32 415.985L274.193 421.818L276.987 427.528C278.523 430.668 279.78 433.821 279.78 434.535C279.78 437.33 275.966 446.857 274.847 446.857C273.458 446.857 272.447 449.115 272.447 452.216C272.447 453.424 271.723 455.445 270.839 456.707L269.231 459.003L266.969 456.878C264.602 454.654 262.052 454.119 259.341 455.275C254.986 457.134 253.105 427.557 256.802 415.357C262.443 396.747 273.166 384.597 283.447 385.164C286.204 385.316 287.013 385.818 287.256 387.53ZM373.319 388.618C374.602 391.016 378.447 394.411 378.447 393.147C378.447 392.586 377.514 390.941 376.374 389.492C374.007 386.483 371.845 385.864 373.319 388.618ZM286.47 400.9C287.269 402.394 287.231 404.918 286.328 410.294C285.253 416.691 285.314 418.469 286.803 424.001C287.935 428.212 288.424 433.225 288.25 438.857C288.105 443.532 288.372 448.819 288.842 450.607C289.665 453.736 289.586 453.857 286.727 453.857C285.053 453.857 282.987 454.707 281.993 455.806C280.247 457.736 280.199 457.734 277.293 455.585C275.16 454.008 274.438 452.723 274.652 450.886C274.814 449.495 275.551 448.357 276.29 448.357C277.52 448.357 278.735 445.831 281.66 437.188C282.589 434.443 282.38 433.418 280.09 429.51C277.121 424.444 276.739 419.738 278.953 415.493C279.775 413.917 280.447 410.838 280.447 408.651C280.447 406.038 281.219 403.695 282.697 401.82C285.431 398.354 285.145 398.424 286.47 400.9ZM356.884 412.357C355.819 421.151 356.728 445.917 358.212 448.541C359.815 451.377 359.732 456.715 358.037 459.775C356.714 462.163 356.683 462.167 355.598 460.14C354.034 457.217 349.682 456.334 347.329 458.463C346.294 459.4 345.397 459.76 345.336 459.262C345.017 456.652 345.829 453.185 347.519 449.942C349.117 446.877 349.242 445.698 348.321 442.363C347.406 439.05 347.523 437.871 349.047 435.041C350.803 431.78 350.803 431.514 349.032 427.013C345.951 419.178 345.918 414.834 348.897 408.956L351.525 403.77L354.447 406.063C357.013 408.078 357.309 408.843 356.884 412.357ZM289.878 458.111C290.69 459.351 291.747 463.652 292.227 467.669C293.043 474.5 292.965 475.044 291.027 476.082C288.214 477.587 273.171 477.478 266.628 475.904C260.481 474.425 259.438 472.771 259.462 464.542C259.49 455.011 263.217 454.153 267.768 462.632C270.595 467.896 272.992 468.875 271.842 464.296C270.905 460.562 272.182 456.857 274.407 456.857C276.625 456.857 277.553 458.048 278.947 462.682C280.33 467.282 281.884 467.136 282.272 462.37C282.45 460.177 283.068 457.814 283.644 457.12C285.274 455.155 288.251 455.629 289.878 458.111ZM331.416 463.68C333.035 468.282 335.447 469.285 335.447 465.357C335.447 462.603 338.605 458.857 340.928 458.857C342.367 458.857 343.09 460.706 343.667 465.857C344.089 469.623 345.61 468.869 347.197 464.107C349.795 456.313 354.052 459.709 355.168 470.465C355.693 475.532 355.67 475.584 352.322 476.783C344.377 479.628 327.791 479.047 323.861 475.786C322.416 474.586 323.957 464.263 326.062 461.045C328.105 457.922 329.66 458.687 331.416 463.68Z" fill="#144C66"/>
</svg>
