<svg width="50" height="50" viewBox="0 0 50 50" fill="none" xmlns="http://www.w3.org/2000/svg">
<rect width="50" height="50" rx="2" fill="#144C66"/>
<path d="M22.16 38V17.56H27.16V38H22.16ZM24.66 15C23.86 15 23.1667 14.7133 22.58 14.14C22.0067 13.5533 21.72 12.86 21.72 12.06C21.72 11.26 22.0067 10.58 22.58 10.02C23.1533 9.44667 23.8467 9.16 24.66 9.16C25.5 9.16 26.2 9.44 26.76 10C27.32 10.56 27.6 11.2467 27.6 12.06C27.6 12.8733 27.3133 13.5667 26.74 14.14C26.18 14.7133 25.4867 15 24.66 15Z" fill="white"/>
</svg>
