<svg width="32" height="32" viewBox="0 0 32 32" fill="none" xmlns="http://www.w3.org/2000/svg">
<rect width="32" height="32" rx="3" fill="#144C66"/>
<g clip-path="url(#clip0_3187_11527)">
<path fill-rule="evenodd" clip-rule="evenodd" d="M25.5901 7.20355L22.8473 23.6604C22.8116 23.8675 22.6973 24.0282 22.5044 24.1425C22.4045 24.1997 22.2937 24.2282 22.1723 24.2282C22.0937 24.2282 22.008 24.2104 21.9152 24.1747L17.0617 22.1926L14.4689 25.3532C14.3403 25.5175 14.1653 25.5996 13.9439 25.5996C13.851 25.5996 13.7725 25.5853 13.7082 25.5568C13.5725 25.5068 13.4636 25.4228 13.3814 25.305C13.2993 25.1871 13.2582 25.0568 13.2582 24.9139V21.1747L22.5152 9.8285L11.0618 19.739L6.82975 18.0033C6.56547 17.9033 6.42261 17.7069 6.40118 17.4141C6.3869 17.1284 6.50118 16.9177 6.74403 16.7819L24.5723 6.49642C24.6794 6.43214 24.7937 6.39999 24.9151 6.39999C25.058 6.39999 25.1865 6.43928 25.3008 6.51785C25.5365 6.68927 25.633 6.91784 25.5901 7.20355Z" fill="white"/>
</g>
<defs>
<clipPath id="clip0_3187_11527">
<rect width="19.2" height="19.2" fill="white" transform="translate(6.39999 6.39999)"/>
</clipPath>
</defs>
</svg>
