<svg width="172" height="30" viewBox="0 0 172 30" fill="none" xmlns="http://www.w3.org/2000/svg">
<path d="M5.96605 22.8594L6.3798 23.0563C8.10398 24.0406 10.0349 24.5 11.9659 24.5C18.0347 24.5 23 19.775 23 14C23 11.2438 21.8276 8.55314 19.7587 6.58436C17.6898 4.61558 14.9312 3.5 11.9659 3.5C5.89714 3.5 0.931704 8.225 1.00071 14.0657C1.00071 16.0344 1.62138 17.9376 2.65579 19.5781L2.93162 19.9719L1.8283 23.8438L5.96605 22.8594Z" fill="#00E676"/>
<path d="M20.534 5.14864C18.3106 2.78382 15.237 1.5 12.0981 1.5C5.42785 1.5 0.0654365 7.10809 0.130779 13.9324C0.130779 16.0946 0.719333 18.1892 1.70032 20.0811L0 26.5L6.34331 24.8108C8.10897 25.8244 10.0707 26.2974 12.0327 26.2974C18.6376 26.2974 24 20.6892 24 13.865C24 10.5541 22.7575 7.44595 20.5341 5.14864H20.534ZM12.0981 24.2028C10.3324 24.2028 8.56674 23.7299 7.06264 22.7839L6.6703 22.5812L2.87742 23.5947L3.85831 19.7434L3.59676 19.3379C0.719333 14.5407 2.09265 8.18918 6.80108 5.21616C11.5095 2.24323 17.5913 3.66218 20.4687 8.52704C23.346 13.3919 21.9727 19.6757 17.2644 22.6487C15.7602 23.6622 13.9292 24.2027 12.0981 24.2027V24.2028ZM17.8528 16.7029L17.1335 16.365C17.1335 16.365 16.0872 15.892 15.4333 15.5542C15.3678 15.5542 15.3025 15.4866 15.237 15.4866C15.0408 15.4866 14.91 15.5542 14.7793 15.6218C14.7793 15.6218 14.7139 15.6893 13.7984 16.7704C13.7329 16.9055 13.6022 16.9731 13.4714 16.9731H13.4059C13.3406 16.9731 13.2098 16.9055 13.1444 16.838L12.8174 16.7029C12.0981 16.365 11.4442 15.9595 10.921 15.419C10.7902 15.2839 10.594 15.1488 10.4632 15.0137C10.0054 14.5407 9.54763 14.0001 9.22073 13.392L9.15529 13.2569C9.08995 13.1893 9.08995 13.1217 9.02452 12.9866C9.02452 12.8515 9.02452 12.7164 9.08995 12.6488C9.08995 12.6488 9.35151 12.3109 9.54763 12.1083C9.67851 11.973 9.74385 11.7704 9.87463 11.6353C10.0054 11.4325 10.0708 11.1623 10.0054 10.9596C9.94006 10.6217 9.1553 8.79738 8.95917 8.39201C8.8283 8.18927 8.69761 8.12176 8.5014 8.05415H7.78207C7.65119 8.05415 7.52051 8.12176 7.38963 8.12176L7.3242 8.18927C7.19342 8.25688 7.06264 8.39201 6.93186 8.45952C6.80108 8.59474 6.73565 8.72977 6.60487 8.86499C6.14709 9.4731 5.88553 10.2163 5.88553 10.9596C5.88553 11.5001 6.01631 12.0407 6.21253 12.5136L6.27797 12.7164C6.86652 14.0001 7.65119 15.1488 8.69761 16.1623L8.95917 16.4325C9.1553 16.6353 9.35151 16.7704 9.48229 16.973C10.8556 18.1893 12.4251 19.0677 14.1907 19.5407C14.3869 19.6082 14.6485 19.6082 14.8447 19.6758H15.4986C15.8256 19.6758 16.2179 19.5407 16.4796 19.4055C16.6757 19.2704 16.8065 19.2704 16.9373 19.1353L17.0681 19.0001C17.1989 18.865 17.3297 18.7974 17.4605 18.6623C17.5913 18.5272 17.722 18.3921 17.7875 18.2568C17.9183 17.9866 17.9836 17.6487 18.049 17.311V16.838C18.049 16.838 17.9836 16.7704 17.8528 16.7029Z" fill="white"/>
<path d="M39.2695 12V2.71973H46.1821V12H45.1157V3.67188H40.3486V12H39.2695ZM51.8506 4.91602C52.7181 4.91602 53.41 5.21436 53.9263 5.81104C54.4425 6.40771 54.7007 7.30485 54.7007 8.50244C54.7007 9.29378 54.5822 9.95817 54.3452 10.4956C54.1082 11.033 53.7739 11.4393 53.3423 11.7144C52.9149 11.9894 52.4092 12.127 51.8252 12.127C51.457 12.127 51.1333 12.0783 50.854 11.981C50.5747 11.8836 50.3356 11.7524 50.1367 11.5874C49.9378 11.4224 49.7728 11.2425 49.6416 11.0479H49.5654C49.5781 11.2129 49.5929 11.4118 49.6099 11.6445C49.631 11.8773 49.6416 12.0804 49.6416 12.2539V15.1104H48.5815V5.04297H49.4512L49.5908 6.07129H49.6416C49.777 5.8597 49.9421 5.66715 50.1367 5.49365C50.3314 5.31592 50.5684 5.17627 50.8477 5.07471C51.1312 4.96891 51.4655 4.91602 51.8506 4.91602ZM51.6665 5.80469C51.1841 5.80469 50.7948 5.89779 50.4985 6.08398C50.2065 6.27018 49.9928 6.54948 49.8574 6.92188C49.722 7.29004 49.6501 7.75342 49.6416 8.31201V8.51514C49.6416 9.10335 49.7051 9.60059 49.832 10.0068C49.9632 10.4131 50.1769 10.722 50.4731 10.9336C50.7736 11.1452 51.1756 11.251 51.6792 11.251C52.1108 11.251 52.4705 11.1346 52.7583 10.9019C53.0461 10.6691 53.2598 10.3454 53.3994 9.93066C53.5433 9.51172 53.6152 9.03141 53.6152 8.48975C53.6152 7.66878 53.4544 7.01709 53.1328 6.53467C52.8154 6.04801 52.3267 5.80469 51.6665 5.80469ZM57.5444 5.04297V9.4165C57.5444 9.50114 57.5423 9.61117 57.5381 9.74658C57.5339 9.87777 57.5275 10.0195 57.519 10.1719C57.5106 10.32 57.5021 10.4639 57.4937 10.6035C57.4894 10.7389 57.4831 10.8511 57.4746 10.9399L61.2705 5.04297H62.5654V12H61.5815V7.73438C61.5815 7.59896 61.5837 7.42546 61.5879 7.21387C61.5921 7.00228 61.5985 6.79492 61.6069 6.5918C61.6154 6.38444 61.6217 6.22363 61.626 6.10938L57.8428 12H56.5415V5.04297H57.5444ZM67.5928 12.127C66.9665 12.127 66.4142 11.9979 65.936 11.7397C65.4578 11.4816 65.0854 11.0881 64.8188 10.5591C64.5522 10.0301 64.4189 9.36361 64.4189 8.55957C64.4189 7.71745 64.5586 7.02979 64.8379 6.49658C65.1214 5.95915 65.5107 5.56136 66.0059 5.30322C66.501 5.04508 67.0638 4.91602 67.6943 4.91602C68.0413 4.91602 68.3757 4.95199 68.6973 5.02393C69.0231 5.09163 69.2897 5.17839 69.4971 5.28418L69.1797 6.1665C68.9681 6.08187 68.7227 6.0057 68.4434 5.93799C68.1683 5.87028 67.9102 5.83643 67.6689 5.83643C67.1865 5.83643 66.7845 5.9401 66.4629 6.14746C66.1455 6.35482 65.9064 6.65951 65.7456 7.06152C65.589 7.46354 65.5107 7.95866 65.5107 8.54688C65.5107 9.1097 65.5869 9.59001 65.7393 9.98779C65.8958 10.3856 66.1265 10.6903 66.4312 10.9019C66.7401 11.1092 67.1252 11.2129 67.5864 11.2129C67.9546 11.2129 68.2868 11.1748 68.583 11.0986C68.8792 11.0182 69.1479 10.9251 69.3892 10.8193V11.7588C69.1564 11.8773 68.8962 11.9683 68.6084 12.0317C68.3249 12.0952 67.9863 12.127 67.5928 12.127ZM71.0396 12V5.04297H72.0996V7.91211H74.0039C74.5964 7.91211 75.083 7.98617 75.4639 8.13428C75.849 8.28239 76.1346 8.50244 76.3208 8.79443C76.507 9.08643 76.6001 9.44824 76.6001 9.87988C76.6001 10.3115 76.507 10.686 76.3208 11.0034C76.1388 11.3208 75.8511 11.5662 75.4575 11.7397C75.0682 11.9132 74.5604 12 73.9341 12H71.0396ZM72.0996 11.1431H73.8325C74.3573 11.1431 74.7762 11.05 75.0894 10.8638C75.4025 10.6776 75.5591 10.3665 75.5591 9.93066C75.5591 9.50326 75.4131 9.20703 75.1211 9.04199C74.8291 8.87272 74.4102 8.78809 73.8643 8.78809H72.0996V11.1431ZM77.749 12V5.04297H78.8027V12H77.749ZM86.2485 12H85.1758V5.92529H83.062C82.9774 7.02132 82.8695 7.96077 82.7383 8.74365C82.6113 9.5223 82.4505 10.1592 82.2559 10.6543C82.0654 11.1452 81.8327 11.507 81.5576 11.7397C81.2868 11.9683 80.9631 12.0825 80.5864 12.0825C80.4722 12.0825 80.3643 12.0762 80.2627 12.0635C80.1611 12.0508 80.0744 12.0296 80.0024 12V11.2002C80.0575 11.2171 80.1146 11.2298 80.1738 11.2383C80.2373 11.2467 80.3029 11.251 80.3706 11.251C80.561 11.251 80.7345 11.1727 80.8911 11.0161C81.0519 10.8553 81.1958 10.6141 81.3228 10.2925C81.4539 9.97087 81.5703 9.56462 81.6719 9.07373C81.7734 8.57861 81.8623 7.99674 81.9385 7.32812C82.0189 6.65527 82.0887 5.89355 82.1479 5.04297H86.2485V12ZM91.0728 4.92871C91.9022 4.92871 92.5179 5.11491 92.9199 5.4873C93.3219 5.8597 93.5229 6.45426 93.5229 7.271V12H92.7549L92.5518 10.9717H92.501C92.3063 11.2256 92.1032 11.4393 91.8916 11.6128C91.68 11.7821 91.4346 11.9111 91.1553 12C90.8802 12.0846 90.5417 12.127 90.1396 12.127C89.7165 12.127 89.3398 12.0529 89.0098 11.9048C88.6839 11.7567 88.4258 11.5324 88.2354 11.2319C88.0492 10.9315 87.9561 10.5506 87.9561 10.0894C87.9561 9.39535 88.2311 8.86214 88.7812 8.48975C89.3314 8.11735 90.1693 7.91423 91.2949 7.88037L92.4946 7.82959V7.4043C92.4946 6.80339 92.3656 6.38232 92.1074 6.14111C91.8493 5.8999 91.4854 5.7793 91.0156 5.7793C90.6517 5.7793 90.3047 5.83219 89.9746 5.93799C89.6445 6.04378 89.3314 6.16862 89.0352 6.3125L88.7114 5.5127C89.0246 5.35189 89.3843 5.21436 89.7905 5.1001C90.1968 4.98584 90.6242 4.92871 91.0728 4.92871ZM92.4819 8.57227L91.4219 8.6167C90.5544 8.65055 89.9429 8.79232 89.5874 9.04199C89.2319 9.29167 89.0542 9.64502 89.0542 10.1021C89.0542 10.4998 89.1748 10.7939 89.416 10.9844C89.6572 11.1748 89.9767 11.27 90.3745 11.27C90.9924 11.27 91.498 11.0986 91.8916 10.7559C92.2852 10.4131 92.4819 9.89893 92.4819 9.21338V8.57227ZM96.6968 5.04297V9.4165C96.6968 9.50114 96.6947 9.61117 96.6904 9.74658C96.6862 9.87777 96.6799 10.0195 96.6714 10.1719C96.6629 10.32 96.6545 10.4639 96.646 10.6035C96.6418 10.7389 96.6354 10.8511 96.627 10.9399L100.423 5.04297H101.718V12H100.734V7.73438C100.734 7.59896 100.736 7.42546 100.74 7.21387C100.744 7.00228 100.751 6.79492 100.759 6.5918C100.768 6.38444 100.774 6.22363 100.778 6.10938L96.9951 12H95.6938V5.04297H96.6968ZM101.197 2.18018C101.159 2.60758 101.051 2.96517 100.874 3.25293C100.7 3.54069 100.444 3.75863 100.105 3.90674C99.7669 4.05062 99.3332 4.12256 98.8042 4.12256C98.2583 4.12256 97.8182 4.05273 97.4839 3.91309C97.1538 3.76921 96.9084 3.55339 96.7476 3.26562C96.591 2.97786 96.4979 2.61605 96.4683 2.18018H97.4585C97.505 2.64567 97.6299 2.96305 97.833 3.13232C98.0361 3.3016 98.3662 3.38623 98.8232 3.38623C99.2295 3.38623 99.549 3.29736 99.7817 3.11963C100.014 2.94189 100.154 2.62874 100.201 2.18018H101.197ZM108.7 5.93799H106.409V12H105.368V5.93799H103.108V5.04297H108.7V5.93799ZM112.756 4.91602C113.349 4.91602 113.857 5.0472 114.28 5.30957C114.703 5.57194 115.027 5.9401 115.251 6.41406C115.475 6.88379 115.587 7.43392 115.587 8.06445V8.71826H110.782C110.795 9.53499 110.998 10.1571 111.392 10.5845C111.785 11.0119 112.34 11.2256 113.055 11.2256C113.495 11.2256 113.884 11.1854 114.223 11.105C114.561 11.0246 114.912 10.9061 115.276 10.7495V11.6763C114.925 11.8328 114.576 11.9471 114.229 12.019C113.886 12.091 113.48 12.127 113.01 12.127C112.342 12.127 111.758 11.9915 111.258 11.7207C110.763 11.4456 110.378 11.0436 110.103 10.5146C109.828 9.98568 109.69 9.33822 109.69 8.57227C109.69 7.82324 109.815 7.17578 110.065 6.62988C110.319 6.07975 110.674 5.65658 111.131 5.36035C111.593 5.06413 112.134 4.91602 112.756 4.91602ZM112.744 5.7793C112.181 5.7793 111.732 5.96338 111.398 6.33154C111.064 6.69971 110.865 7.21387 110.801 7.87402H114.483C114.479 7.45931 114.413 7.09538 114.286 6.78223C114.163 6.46484 113.975 6.2194 113.721 6.0459C113.467 5.86816 113.141 5.7793 112.744 5.7793ZM121.814 5.04297V7.96289H125.693V5.04297H126.747V12H125.693V8.85791H121.814V12H120.754V5.04297H121.814ZM134.979 8.50879C134.979 9.08008 134.905 9.59001 134.757 10.0386C134.609 10.4871 134.396 10.8659 134.116 11.1748C133.837 11.4837 133.498 11.7207 133.101 11.8857C132.707 12.0465 132.261 12.127 131.761 12.127C131.296 12.127 130.868 12.0465 130.479 11.8857C130.094 11.7207 129.76 11.4837 129.476 11.1748C129.197 10.8659 128.979 10.4871 128.822 10.0386C128.67 9.59001 128.594 9.08008 128.594 8.50879C128.594 7.74707 128.723 7.09961 128.981 6.56641C129.239 6.02897 129.607 5.62061 130.085 5.34131C130.568 5.05778 131.141 4.91602 131.806 4.91602C132.44 4.91602 132.995 5.05778 133.469 5.34131C133.947 5.62484 134.317 6.03532 134.58 6.57275C134.846 7.10596 134.979 7.7513 134.979 8.50879ZM129.686 8.50879C129.686 9.06738 129.76 9.55192 129.908 9.9624C130.056 10.3729 130.284 10.6903 130.593 10.9146C130.902 11.1388 131.3 11.251 131.787 11.251C132.269 11.251 132.665 11.1388 132.974 10.9146C133.287 10.6903 133.517 10.3729 133.666 9.9624C133.814 9.55192 133.888 9.06738 133.888 8.50879C133.888 7.95443 133.814 7.47624 133.666 7.07422C133.517 6.66797 133.289 6.35482 132.98 6.13477C132.671 5.91471 132.271 5.80469 131.78 5.80469C131.057 5.80469 130.526 6.04378 130.187 6.52197C129.853 7.00016 129.686 7.66243 129.686 8.50879ZM142.33 6.78857C142.33 7.22445 142.203 7.5651 141.949 7.81055C141.695 8.05176 141.367 8.21468 140.965 8.29932V8.3501C141.401 8.40934 141.776 8.56592 142.089 8.81982C142.406 9.0695 142.565 9.45247 142.565 9.96875C142.565 10.3665 142.47 10.7178 142.279 11.0225C142.089 11.3271 141.791 11.5662 141.384 11.7397C140.978 11.9132 140.449 12 139.797 12H136.801V5.04297H139.772C140.271 5.04297 140.711 5.1001 141.092 5.21436C141.477 5.32438 141.78 5.50635 142 5.76025C142.22 6.01416 142.33 6.35693 142.33 6.78857ZM141.467 9.96875C141.467 9.55827 141.31 9.26204 140.997 9.08008C140.688 8.89811 140.237 8.80713 139.645 8.80713H137.861V11.1431H139.67C140.254 11.1431 140.699 11.0542 141.003 10.8765C141.312 10.6945 141.467 10.3919 141.467 9.96875ZM141.257 6.90918C141.257 6.5791 141.137 6.33366 140.896 6.17285C140.654 6.00781 140.259 5.92529 139.708 5.92529H137.861V7.9248H139.524C140.096 7.9248 140.527 7.84229 140.819 7.67725C141.111 7.51221 141.257 7.25618 141.257 6.90918ZM150.265 8.50879C150.265 9.08008 150.191 9.59001 150.042 10.0386C149.894 10.4871 149.681 10.8659 149.401 11.1748C149.122 11.4837 148.784 11.7207 148.386 11.8857C147.992 12.0465 147.546 12.127 147.046 12.127C146.581 12.127 146.153 12.0465 145.764 11.8857C145.379 11.7207 145.045 11.4837 144.761 11.1748C144.482 10.8659 144.264 10.4871 144.107 10.0386C143.955 9.59001 143.879 9.08008 143.879 8.50879C143.879 7.74707 144.008 7.09961 144.266 6.56641C144.524 6.02897 144.892 5.62061 145.371 5.34131C145.853 5.05778 146.426 4.91602 147.091 4.91602C147.726 4.91602 148.28 5.05778 148.754 5.34131C149.232 5.62484 149.602 6.03532 149.865 6.57275C150.131 7.10596 150.265 7.7513 150.265 8.50879ZM144.971 8.50879C144.971 9.06738 145.045 9.55192 145.193 9.9624C145.341 10.3729 145.569 10.6903 145.878 10.9146C146.187 11.1388 146.585 11.251 147.072 11.251C147.554 11.251 147.95 11.1388 148.259 10.9146C148.572 10.6903 148.803 10.3729 148.951 9.9624C149.099 9.55192 149.173 9.06738 149.173 8.50879C149.173 7.95443 149.099 7.47624 148.951 7.07422C148.803 6.66797 148.574 6.35482 148.265 6.13477C147.956 5.91471 147.556 5.80469 147.065 5.80469C146.342 5.80469 145.811 6.04378 145.472 6.52197C145.138 7.00016 144.971 7.66243 144.971 8.50879ZM154.873 12.127C154.247 12.127 153.694 11.9979 153.216 11.7397C152.738 11.4816 152.366 11.0881 152.099 10.5591C151.833 10.0301 151.699 9.36361 151.699 8.55957C151.699 7.71745 151.839 7.02979 152.118 6.49658C152.402 5.95915 152.791 5.56136 153.286 5.30322C153.781 5.04508 154.344 4.91602 154.975 4.91602C155.322 4.91602 155.656 4.95199 155.978 5.02393C156.303 5.09163 156.57 5.17839 156.777 5.28418L156.46 6.1665C156.248 6.08187 156.003 6.0057 155.724 5.93799C155.449 5.87028 155.19 5.83643 154.949 5.83643C154.467 5.83643 154.065 5.9401 153.743 6.14746C153.426 6.35482 153.187 6.65951 153.026 7.06152C152.869 7.46354 152.791 7.95866 152.791 8.54688C152.791 9.1097 152.867 9.59001 153.02 9.98779C153.176 10.3856 153.407 10.6903 153.711 10.9019C154.02 11.1092 154.405 11.2129 154.867 11.2129C155.235 11.2129 155.567 11.1748 155.863 11.0986C156.16 11.0182 156.428 10.9251 156.669 10.8193V11.7588C156.437 11.8773 156.176 11.9683 155.889 12.0317C155.605 12.0952 155.267 12.127 154.873 12.127ZM163.062 5.93799H160.77V12H159.729V5.93799H157.469V5.04297H163.062V5.93799ZM165.442 5.04297V9.4165C165.442 9.50114 165.44 9.61117 165.436 9.74658C165.431 9.87777 165.425 10.0195 165.417 10.1719C165.408 10.32 165.4 10.4639 165.391 10.6035C165.387 10.7389 165.381 10.8511 165.372 10.9399L169.168 5.04297H170.463V12H169.479V7.73438C169.479 7.59896 169.481 7.42546 169.485 7.21387C169.49 7.00228 169.496 6.79492 169.504 6.5918C169.513 6.38444 169.519 6.22363 169.523 6.10938L165.74 12H164.439V5.04297H165.442ZM40.1709 19.043V21.9629H44.0493V19.043H45.103V26H44.0493V22.8579H40.1709V26H39.1108V19.043H40.1709ZM49.9399 18.9287C50.7694 18.9287 51.3851 19.1149 51.7871 19.4873C52.1891 19.8597 52.3901 20.4543 52.3901 21.271V26H51.6221L51.4189 24.9717H51.3682C51.1735 25.2256 50.9704 25.4393 50.7588 25.6128C50.5472 25.7821 50.3018 25.9111 50.0225 26C49.7474 26.0846 49.4089 26.127 49.0068 26.127C48.5837 26.127 48.207 26.0529 47.877 25.9048C47.5511 25.7567 47.293 25.5324 47.1025 25.2319C46.9163 24.9315 46.8232 24.5506 46.8232 24.0894C46.8232 23.3953 47.0983 22.8621 47.6484 22.4897C48.1986 22.1174 49.0365 21.9142 50.1621 21.8804L51.3618 21.8296V21.4043C51.3618 20.8034 51.2327 20.3823 50.9746 20.1411C50.7165 19.8999 50.3525 19.7793 49.8828 19.7793C49.5189 19.7793 49.1719 19.8322 48.8418 19.938C48.5117 20.0438 48.1986 20.1686 47.9023 20.3125L47.5786 19.5127C47.8918 19.3519 48.2515 19.2144 48.6577 19.1001C49.064 18.9858 49.4914 18.9287 49.9399 18.9287ZM51.3491 22.5723L50.2891 22.6167C49.4215 22.6506 48.8101 22.7923 48.4546 23.042C48.0991 23.2917 47.9214 23.645 47.9214 24.1021C47.9214 24.4998 48.042 24.7939 48.2832 24.9844C48.5244 25.1748 48.8439 25.27 49.2417 25.27C49.8595 25.27 50.3652 25.0986 50.7588 24.7559C51.1523 24.4131 51.3491 23.8989 51.3491 23.2134V22.5723ZM68.6401 16.7197L66.1582 26H65.0728L63.2319 19.7539C63.1769 19.5762 63.124 19.3984 63.0732 19.2207C63.0267 19.0387 62.9823 18.8674 62.9399 18.7065C62.8976 18.5415 62.8617 18.3976 62.832 18.2749C62.8066 18.1479 62.7876 18.0527 62.7749 17.9893C62.7664 18.0527 62.7495 18.1458 62.7241 18.2686C62.703 18.3913 62.6733 18.533 62.6353 18.6938C62.6014 18.8547 62.5591 19.026 62.5083 19.208C62.4618 19.39 62.411 19.5741 62.356 19.7603L60.5659 26H59.4805L57.0176 16.7197H58.1411L59.6328 22.5405C59.6836 22.7352 59.7301 22.9277 59.7725 23.1182C59.819 23.3044 59.8592 23.4863 59.8931 23.6641C59.9312 23.8418 59.965 24.0153 59.9946 24.1846C60.0243 24.3538 60.0518 24.5189 60.0771 24.6797C60.0983 24.5146 60.1258 24.3433 60.1597 24.1655C60.1935 23.9836 60.2295 23.7995 60.2676 23.6133C60.3099 23.4271 60.3543 23.2388 60.4009 23.0483C60.4517 22.8579 60.5046 22.6675 60.5596 22.4771L62.229 16.7197H63.3398L65.0791 22.5215C65.1383 22.7204 65.1934 22.9172 65.2441 23.1118C65.2949 23.3065 65.3394 23.4969 65.3774 23.6831C65.4198 23.8651 65.4557 24.0407 65.4854 24.21C65.5192 24.375 65.5488 24.5316 65.5742 24.6797C65.6038 24.4723 65.6398 24.2544 65.6821 24.0259C65.7244 23.7974 65.7731 23.5583 65.8281 23.3086C65.8874 23.0589 65.9508 22.8008 66.0186 22.5342L67.5103 16.7197H68.6401ZM71.0015 16.123V19.0747C71.0015 19.244 70.9972 19.4154 70.9888 19.5889C70.9803 19.7581 70.9655 19.9147 70.9443 20.0586H71.0142C71.158 19.8132 71.34 19.6079 71.5601 19.4429C71.7843 19.2736 72.0382 19.1466 72.3218 19.062C72.6053 18.9731 72.9058 18.9287 73.2231 18.9287C73.7817 18.9287 74.2472 19.0176 74.6196 19.1953C74.9963 19.373 75.2777 19.6481 75.4639 20.0205C75.6543 20.3929 75.7495 20.8753 75.7495 21.4678V26H74.7085V21.5376C74.7085 20.9578 74.5752 20.5241 74.3086 20.2363C74.0462 19.9486 73.6421 19.8047 73.0962 19.8047C72.5799 19.8047 72.1673 19.9041 71.8584 20.103C71.5537 20.2977 71.3337 20.5854 71.1982 20.9663C71.0671 21.3472 71.0015 21.8127 71.0015 22.3628V26H69.9478V16.123H71.0015ZM80.5229 18.9287C81.3524 18.9287 81.9681 19.1149 82.3701 19.4873C82.7721 19.8597 82.9731 20.4543 82.9731 21.271V26H82.2051L82.002 24.9717H81.9512C81.7565 25.2256 81.5534 25.4393 81.3418 25.6128C81.1302 25.7821 80.8848 25.9111 80.6055 26C80.3304 26.0846 79.9919 26.127 79.5898 26.127C79.1667 26.127 78.79 26.0529 78.46 25.9048C78.1341 25.7567 77.876 25.5324 77.6855 25.2319C77.4993 24.9315 77.4062 24.5506 77.4062 24.0894C77.4062 23.3953 77.6813 22.8621 78.2314 22.4897C78.7816 22.1174 79.6195 21.9142 80.7451 21.8804L81.9448 21.8296V21.4043C81.9448 20.8034 81.8158 20.3823 81.5576 20.1411C81.2995 19.8999 80.9355 19.7793 80.4658 19.7793C80.1019 19.7793 79.7549 19.8322 79.4248 19.938C79.0947 20.0438 78.7816 20.1686 78.4854 20.3125L78.1616 19.5127C78.4748 19.3519 78.8345 19.2144 79.2407 19.1001C79.647 18.9858 80.0744 18.9287 80.5229 18.9287ZM81.9321 22.5723L80.8721 22.6167C80.0046 22.6506 79.3931 22.7923 79.0376 23.042C78.6821 23.2917 78.5044 23.645 78.5044 24.1021C78.5044 24.4998 78.625 24.7939 78.8662 24.9844C79.1074 25.1748 79.4269 25.27 79.8247 25.27C80.4425 25.27 80.9482 25.0986 81.3418 24.7559C81.7354 24.4131 81.9321 23.8989 81.9321 23.2134V22.5723ZM87.3911 25.2637C87.5646 25.2637 87.7424 25.2489 87.9243 25.2192C88.1063 25.1896 88.2544 25.1536 88.3687 25.1113V25.9302C88.2459 25.9852 88.0745 26.0317 87.8545 26.0698C87.6387 26.1079 87.4271 26.127 87.2197 26.127C86.8516 26.127 86.5173 26.0635 86.2168 25.9365C85.9163 25.8053 85.6751 25.5853 85.4932 25.2764C85.3154 24.9674 85.2266 24.54 85.2266 23.9941V19.8682H84.2363V19.354L85.2329 18.9414L85.6519 17.4307H86.2866V19.043H88.3242V19.8682H86.2866V23.9624C86.2866 24.3983 86.3861 24.7241 86.585 24.9399C86.7881 25.1558 87.0568 25.2637 87.3911 25.2637ZM94.2783 24.0957C94.2783 24.54 94.1662 24.9146 93.9419 25.2192C93.7218 25.5197 93.4045 25.7461 92.9897 25.8984C92.5793 26.0508 92.0884 26.127 91.5171 26.127C91.0304 26.127 90.6094 26.0889 90.2539 26.0127C89.8984 25.9365 89.5874 25.8286 89.3208 25.689V24.7178C89.6043 24.8574 89.9429 24.9844 90.3364 25.0986C90.73 25.2129 91.132 25.27 91.5425 25.27C92.1434 25.27 92.5793 25.1727 92.8501 24.978C93.1209 24.7834 93.2563 24.5189 93.2563 24.1846C93.2563 23.9941 93.2013 23.827 93.0913 23.6831C92.9855 23.535 92.8057 23.3932 92.5518 23.2578C92.2979 23.1182 91.9466 22.9658 91.498 22.8008C91.0537 22.6315 90.6686 22.4644 90.3428 22.2993C90.0212 22.13 89.7715 21.9248 89.5938 21.6836C89.4202 21.4424 89.3335 21.1292 89.3335 20.7441C89.3335 20.1559 89.5705 19.7052 90.0444 19.3921C90.5226 19.0747 91.1489 18.916 91.9233 18.916C92.3423 18.916 92.7337 18.9583 93.0977 19.043C93.4658 19.1234 93.8086 19.2334 94.126 19.373L93.7705 20.2173C93.4827 20.0946 93.1759 19.9909 92.8501 19.9062C92.5243 19.8216 92.1921 19.7793 91.8535 19.7793C91.3669 19.7793 90.9924 19.8597 90.73 20.0205C90.4718 20.1813 90.3428 20.4014 90.3428 20.6807C90.3428 20.8965 90.402 21.0742 90.5205 21.2139C90.6432 21.3535 90.8379 21.4847 91.1045 21.6074C91.3711 21.7301 91.7223 21.874 92.1582 22.0391C92.5941 22.1999 92.9707 22.367 93.2881 22.5405C93.6055 22.7098 93.8488 22.9172 94.0181 23.1626C94.1916 23.4038 94.2783 23.7148 94.2783 24.0957ZM101.953 26L100.81 23.0547H97.0903L95.9541 26H94.8623L98.4932 16.6816H99.4644L103.07 26H101.953ZM100.486 22.0962L99.4009 19.1699C99.3755 19.0938 99.3332 18.9689 99.2739 18.7954C99.2189 18.6219 99.1618 18.4421 99.1025 18.2559C99.0433 18.0697 98.9946 17.9194 98.9565 17.8052C98.9142 17.9787 98.8677 18.1522 98.8169 18.3257C98.7703 18.495 98.7238 18.6536 98.6772 18.8018C98.6307 18.9456 98.5905 19.0684 98.5566 19.1699L97.4521 22.0962H100.486ZM107.469 18.916C108.336 18.916 109.028 19.2144 109.544 19.811C110.061 20.4077 110.319 21.3049 110.319 22.5024C110.319 23.2938 110.2 23.9582 109.963 24.4956C109.726 25.033 109.392 25.4393 108.96 25.7144C108.533 25.9894 108.027 26.127 107.443 26.127C107.075 26.127 106.751 26.0783 106.472 25.981C106.193 25.8836 105.954 25.7524 105.755 25.5874C105.556 25.4224 105.391 25.2425 105.26 25.0479H105.184C105.196 25.2129 105.211 25.4118 105.228 25.6445C105.249 25.8773 105.26 26.0804 105.26 26.2539V29.1104H104.2V19.043H105.069L105.209 20.0713H105.26C105.395 19.8597 105.56 19.6672 105.755 19.4937C105.95 19.3159 106.187 19.1763 106.466 19.0747C106.749 18.9689 107.084 18.916 107.469 18.916ZM107.285 19.8047C106.802 19.8047 106.413 19.8978 106.117 20.084C105.825 20.2702 105.611 20.5495 105.476 20.9219C105.34 21.29 105.268 21.7534 105.26 22.312V22.5151C105.26 23.1034 105.323 23.6006 105.45 24.0068C105.581 24.4131 105.795 24.722 106.091 24.9336C106.392 25.1452 106.794 25.251 107.297 25.251C107.729 25.251 108.089 25.1346 108.376 24.9019C108.664 24.6691 108.878 24.3454 109.018 23.9307C109.161 23.5117 109.233 23.0314 109.233 22.4897C109.233 21.6688 109.073 21.0171 108.751 20.5347C108.434 20.048 107.945 19.8047 107.285 19.8047ZM115.429 18.916C116.296 18.916 116.988 19.2144 117.504 19.811C118.021 20.4077 118.279 21.3049 118.279 22.5024C118.279 23.2938 118.16 23.9582 117.923 24.4956C117.686 25.033 117.352 25.4393 116.92 25.7144C116.493 25.9894 115.987 26.127 115.403 26.127C115.035 26.127 114.711 26.0783 114.432 25.981C114.153 25.8836 113.914 25.7524 113.715 25.5874C113.516 25.4224 113.351 25.2425 113.22 25.0479H113.144C113.156 25.2129 113.171 25.4118 113.188 25.6445C113.209 25.8773 113.22 26.0804 113.22 26.2539V29.1104H112.16V19.043H113.029L113.169 20.0713H113.22C113.355 19.8597 113.52 19.6672 113.715 19.4937C113.91 19.3159 114.146 19.1763 114.426 19.0747C114.709 18.9689 115.044 18.916 115.429 18.916ZM115.245 19.8047C114.762 19.8047 114.373 19.8978 114.077 20.084C113.785 20.2702 113.571 20.5495 113.436 20.9219C113.3 21.29 113.228 21.7534 113.22 22.312V22.5151C113.22 23.1034 113.283 23.6006 113.41 24.0068C113.541 24.4131 113.755 24.722 114.051 24.9336C114.352 25.1452 114.754 25.251 115.257 25.251C115.689 25.251 116.049 25.1346 116.336 24.9019C116.624 24.6691 116.838 24.3454 116.978 23.9307C117.121 23.5117 117.193 23.0314 117.193 22.4897C117.193 21.6688 117.033 21.0171 116.711 20.5347C116.394 20.048 115.905 19.8047 115.245 19.8047Z" fill="#070707"/>
</svg>
