<svg width="86" height="23" viewBox="0 0 86 23" fill="none" xmlns="http://www.w3.org/2000/svg">
<rect x="62" y="5" width="24" height="15" rx="2" fill="white"/>
<path d="M7.896 18V5.736H10.896V18H7.896ZM9.396 4.2C8.916 4.2 8.5 4.028 8.148 3.684C7.804 3.332 7.632 2.916 7.632 2.436C7.632 1.956 7.804 1.548 8.148 1.212C8.492 0.868 8.908 0.696 9.396 0.696C9.9 0.696 10.32 0.863999 10.656 1.2C10.992 1.536 11.16 1.948 11.16 2.436C11.16 2.924 10.988 3.34 10.644 3.684C10.308 4.028 9.892 4.2 9.396 4.2ZM22.5169 18.288L18.2209 8.928C18.1649 8.808 18.1049 8.668 18.0409 8.508C17.9769 8.348 17.9209 8.188 17.8729 8.028C17.8809 8.156 17.8849 8.308 17.8849 8.484C17.8929 8.66 17.8969 8.816 17.8969 8.952V18H14.7889V1.2H17.8969L22.1569 10.728C22.2369 10.904 22.3089 11.08 22.3729 11.256C22.4449 11.424 22.5129 11.6 22.5769 11.784C22.6409 11.6 22.7049 11.42 22.7689 11.244C22.8329 11.068 22.9009 10.896 22.9729 10.728L27.3169 1.2H30.2329V18H27.1249V8.928C27.1249 8.784 27.1249 8.624 27.1249 8.448C27.1329 8.272 27.1369 8.128 27.1369 8.016C27.0889 8.16 27.0289 8.316 26.9569 8.484C26.8929 8.644 26.8289 8.792 26.7649 8.928L22.5169 18.288ZM37.746 18.288C36.41 18.288 35.35 17.928 34.566 17.208C33.79 16.48 33.402 15.496 33.402 14.256C33.402 13.456 33.602 12.756 34.002 12.156C34.41 11.548 34.974 11.08 35.694 10.752C36.422 10.416 37.27 10.248 38.238 10.248C38.774 10.248 39.29 10.3 39.786 10.404C40.29 10.5 40.73 10.64 41.106 10.824V10.056C41.106 9.368 40.91 8.852 40.518 8.508C40.134 8.156 39.566 7.98 38.814 7.98C38.214 7.98 37.598 8.088 36.966 8.304C36.334 8.52 35.694 8.84 35.046 9.264L34.146 6.9C34.85 6.436 35.634 6.08 36.498 5.832C37.362 5.576 38.234 5.448 39.114 5.448C40.762 5.448 41.994 5.84 42.81 6.624C43.626 7.4 44.034 8.56 44.034 10.104V18H41.106V17.016C40.69 17.432 40.194 17.748 39.618 17.964C39.05 18.18 38.426 18.288 37.746 18.288ZM38.442 15.756C38.938 15.756 39.414 15.66 39.87 15.468C40.334 15.268 40.746 14.988 41.106 14.628V13.176C40.762 13.008 40.378 12.88 39.954 12.792C39.538 12.696 39.122 12.648 38.706 12.648C37.962 12.648 37.374 12.792 36.942 13.08C36.518 13.36 36.306 13.752 36.306 14.256C36.306 14.728 36.494 15.096 36.87 15.36C37.246 15.624 37.77 15.756 38.442 15.756ZM54.7266 22.8V17.076C54.3906 17.476 53.9986 17.78 53.5506 17.988C53.1106 18.188 52.6066 18.288 52.0386 18.288C51.0146 18.288 50.1186 18.024 49.3506 17.496C48.5906 16.968 47.9986 16.224 47.5746 15.264C47.1586 14.304 46.9506 13.176 46.9506 11.88C46.9506 10.552 47.1626 9.408 47.5866 8.448C48.0106 7.488 48.6106 6.748 49.3866 6.228C50.1626 5.708 51.0826 5.448 52.1466 5.448C52.7066 5.448 53.1906 5.544 53.5986 5.736C54.0146 5.928 54.3906 6.228 54.7266 6.636V5.736H57.7146V21.444L54.7266 22.8ZM52.4826 15.42C52.9626 15.42 53.3986 15.324 53.7906 15.132C54.1906 14.94 54.5026 14.668 54.7266 14.316V9.372C54.4466 9.012 54.1226 8.744 53.7546 8.568C53.3866 8.392 52.9626 8.304 52.4826 8.304C51.6986 8.304 51.0826 8.62 50.6346 9.252C50.1866 9.884 49.9626 10.76 49.9626 11.88C49.9626 13.008 50.1826 13.88 50.6226 14.496C51.0626 15.112 51.6826 15.42 52.4826 15.42Z" fill="white"/>
<path d="M75.024 12.976C75.024 14.192 74.8853 15.168 74.608 15.904C74.3307 16.64 73.8827 17.1733 73.264 17.504C72.6453 17.8347 71.8187 18 70.784 18C69.76 18 68.9387 17.8347 68.32 17.504C67.7013 17.1733 67.2533 16.64 66.976 15.904C66.6987 15.168 66.56 14.192 66.56 12.976C66.56 11.7493 66.6987 10.768 66.976 10.032C67.2533 9.296 67.7013 8.76267 68.32 8.432C68.9387 8.10133 69.76 7.936 70.784 7.936C71.8187 7.936 72.6453 8.10133 73.264 8.432C73.8827 8.76267 74.3307 9.296 74.608 10.032C74.8853 10.768 75.024 11.7493 75.024 12.976ZM70.784 15.872C71.5093 15.872 71.984 15.6373 72.208 15.168C72.4427 14.688 72.56 13.9573 72.56 12.976C72.56 11.984 72.4427 11.2533 72.208 10.784C71.984 10.3147 71.5093 10.08 70.784 10.08C70.0693 10.08 69.5947 10.3147 69.36 10.784C69.136 11.2533 69.024 11.984 69.024 12.976C69.024 13.9573 69.136 14.688 69.36 15.168C69.5947 15.6373 70.0693 15.872 70.784 15.872ZM76.2181 11.936V9.216L78.0901 8.032H80.4901L80.5221 17.856H78.0901V10.8H78.0101L76.2981 11.936H76.2181Z" fill="#144C66"/>
</svg>
