<svg width="105" height="28" viewBox="0 0 105 28" fill="none" xmlns="http://www.w3.org/2000/svg">
<path d="M2.37 22V6.67H6.12V22H2.37ZM4.245 4.75C3.645 4.75 3.125 4.535 2.685 4.105C2.255 3.665 2.04 3.145 2.04 2.545C2.04 1.945 2.255 1.435 2.685 1.015C3.115 0.584999 3.635 0.37 4.245 0.37C4.875 0.37 5.4 0.579999 5.82 0.999999C6.24 1.42 6.45 1.935 6.45 2.545C6.45 3.155 6.235 3.675 5.805 4.105C5.385 4.535 4.865 4.75 4.245 4.75ZM20.6461 22.36L15.2761 10.66C15.2061 10.51 15.1311 10.335 15.0511 10.135C14.9711 9.935 14.9011 9.735 14.8411 9.535C14.8511 9.695 14.8561 9.885 14.8561 10.105C14.8661 10.325 14.8711 10.52 14.8711 10.69V22H10.9861V0.999999H14.8711L20.1961 12.91C20.2961 13.13 20.3861 13.35 20.4661 13.57C20.5561 13.78 20.6411 14 20.7211 14.23C20.8011 14 20.8811 13.775 20.9611 13.555C21.0411 13.335 21.1261 13.12 21.2161 12.91L26.6461 0.999999H30.2911V22H26.4061V10.66C26.4061 10.48 26.4061 10.28 26.4061 10.06C26.4161 9.84 26.4211 9.66 26.4211 9.52C26.3611 9.7 26.2861 9.895 26.1961 10.105C26.1161 10.305 26.0361 10.49 25.9561 10.66L20.6461 22.36ZM39.6825 22.36C38.0125 22.36 36.6875 21.91 35.7075 21.01C34.7375 20.1 34.2525 18.87 34.2525 17.32C34.2525 16.32 34.5025 15.445 35.0025 14.695C35.5125 13.935 36.2175 13.35 37.1175 12.94C38.0275 12.52 39.0875 12.31 40.2975 12.31C40.9675 12.31 41.6125 12.375 42.2325 12.505C42.8625 12.625 43.4125 12.8 43.8825 13.03V12.07C43.8825 11.21 43.6375 10.565 43.1475 10.135C42.6675 9.695 41.9575 9.475 41.0175 9.475C40.2675 9.475 39.4975 9.61 38.7075 9.88C37.9175 10.15 37.1175 10.55 36.3075 11.08L35.1825 8.125C36.0625 7.545 37.0425 7.1 38.1225 6.79C39.2025 6.47 40.2925 6.31 41.3925 6.31C43.4525 6.31 44.9925 6.8 46.0125 7.78C47.0325 8.75 47.5425 10.2 47.5425 12.13V22H43.8825V20.77C43.3625 21.29 42.7425 21.685 42.0225 21.955C41.3125 22.225 40.5325 22.36 39.6825 22.36ZM40.5525 19.195C41.1725 19.195 41.7675 19.075 42.3375 18.835C42.9175 18.585 43.4325 18.235 43.8825 17.785V15.97C43.4525 15.76 42.9725 15.6 42.4425 15.49C41.9225 15.37 41.4025 15.31 40.8825 15.31C39.9525 15.31 39.2175 15.49 38.6775 15.85C38.1475 16.2 37.8825 16.69 37.8825 17.32C37.8825 17.91 38.1175 18.37 38.5875 18.7C39.0575 19.03 39.7125 19.195 40.5525 19.195ZM60.9082 28V20.845C60.4882 21.345 59.9982 21.725 59.4382 21.985C58.8882 22.235 58.2582 22.36 57.5482 22.36C56.2682 22.36 55.1482 22.03 54.1882 21.37C53.2382 20.71 52.4982 19.78 51.9682 18.58C51.4482 17.38 51.1882 15.97 51.1882 14.35C51.1882 12.69 51.4532 11.26 51.9832 10.06C52.5132 8.86 53.2632 7.935 54.2332 7.285C55.2032 6.635 56.3532 6.31 57.6832 6.31C58.3832 6.31 58.9882 6.43 59.4982 6.67C60.0182 6.91 60.4882 7.285 60.9082 7.795V6.67H64.6432V26.305L60.9082 28ZM58.1032 18.775C58.7032 18.775 59.2482 18.655 59.7382 18.415C60.2382 18.175 60.6282 17.835 60.9082 17.395V11.215C60.5582 10.765 60.1532 10.43 59.6932 10.21C59.2332 9.99 58.7032 9.88 58.1032 9.88C57.1232 9.88 56.3532 10.275 55.7932 11.065C55.2332 11.855 54.9532 12.95 54.9532 14.35C54.9532 15.76 55.2282 16.85 55.7782 17.62C56.3282 18.39 57.1032 18.775 58.1032 18.775Z" fill="white"/>
<rect x="73" y="4" width="32" height="20" rx="2" fill="white"/>
<path d="M90.28 14.72C90.28 16.24 90.1067 17.46 89.76 18.38C89.4133 19.3 88.8533 19.9667 88.08 20.38C87.3067 20.7933 86.2733 21 84.98 21C83.7 21 82.6733 20.7933 81.9 20.38C81.1267 19.9667 80.5667 19.3 80.22 18.38C79.8733 17.46 79.7 16.24 79.7 14.72C79.7 13.1867 79.8733 11.96 80.22 11.04C80.5667 10.12 81.1267 9.45333 81.9 9.04C82.6733 8.62667 83.7 8.42 84.98 8.42C86.2733 8.42 87.3067 8.62667 88.08 9.04C88.8533 9.45333 89.4133 10.12 89.76 11.04C90.1067 11.96 90.28 13.1867 90.28 14.72ZM84.98 18.34C85.8867 18.34 86.48 18.0467 86.76 17.46C87.0533 16.86 87.2 15.9467 87.2 14.72C87.2 13.48 87.0533 12.5667 86.76 11.98C86.48 11.3933 85.8867 11.1 84.98 11.1C84.0867 11.1 83.4933 11.3933 83.2 11.98C82.92 12.5667 82.78 13.48 82.78 14.72C82.78 15.9467 82.92 16.86 83.2 17.46C83.4933 18.0467 84.0867 18.34 84.98 18.34ZM91.7727 13.42V10.02L94.1127 8.54H97.1127L97.1527 20.82H94.1127V12H94.0127L91.8727 13.42H91.7727Z" fill="#144C66"/>
</svg>
