<svg width="30" height="30" viewBox="0 0 30 30" fill="none" xmlns="http://www.w3.org/2000/svg">
<g clip-path="url(#clip0_3187_11694)">
<path d="M17.875 13.8437C17.875 16.0625 16.0625 17.875 13.8438 17.875C11.625 17.875 9.81255 16.0625 9.81255 13.8437C9.81255 11.625 11.625 9.81251 13.8438 9.81251C16.0625 9.81251 17.875 11.5937 17.875 13.8437ZM22.5 21.3437C22.5 21.0312 22.375 20.7499 22.1562 20.5312L19.0625 17.4375C19.7812 16.375 20.1875 15.125 20.1875 13.8437C20.1875 10.3438 17.3437 7.5 13.8437 7.5C10.3438 7.5 7.5 10.3438 7.5 13.8438C7.5 17.3438 10.3438 20.1875 13.8437 20.1875C15.125 20.1875 16.375 19.8125 17.4375 19.0625L20.5313 22.1562C20.75 22.375 21.0313 22.5 21.3437 22.5C21.9687 22.5 22.5 21.9688 22.5 21.3437Z" fill="white"/>
</g>
<defs>
<clipPath id="clip0_3187_11694">
<rect width="15" height="15" fill="white" transform="translate(7.5 7.5)"/>
</clipPath>
</defs>
</svg>
