<svg width="12" height="12" viewBox="0 0 12 12" fill="none" xmlns="http://www.w3.org/2000/svg">
<path fill-rule="evenodd" clip-rule="evenodd" d="M1.48018 6.00005C1.48018 3.73205 3.24818 1.48005 6.00018 1.48005C8.22258 1.48005 9.32178 3.12485 9.78978 4.00005H8.40018C8.29409 4.00005 8.19235 4.0422 8.11733 4.11721C8.04232 4.19223 8.00018 4.29397 8.00018 4.40005C8.00018 4.50614 8.04232 4.60788 8.11733 4.6829C8.19235 4.75791 8.29409 4.80005 8.40018 4.80005H10.8002C10.9063 4.80005 11.008 4.75791 11.083 4.6829C11.158 4.60788 11.2002 4.50614 11.2002 4.40005V2.00005C11.2002 1.89397 11.158 1.79223 11.083 1.71721C11.008 1.6422 10.9063 1.60005 10.8002 1.60005C10.6941 1.60005 10.5923 1.6422 10.5173 1.71721C10.4423 1.79223 10.4002 1.89397 10.4002 2.00005V3.45045C9.83698 2.45685 8.53298 0.680054 6.00018 0.680054C2.74978 0.680054 0.680176 3.34805 0.680176 6.00005C0.680176 8.65205 2.74978 11.3201 6.00018 11.3201C7.55538 11.3201 8.84978 10.7041 9.77138 9.76645C10.2604 9.26766 10.6483 8.67898 10.9138 8.03285C10.9337 7.98426 10.9439 7.93222 10.9438 7.87969C10.9436 7.82716 10.9331 7.77518 10.9129 7.7267C10.8926 7.67823 10.863 7.63422 10.8258 7.59719C10.7885 7.56015 10.7444 7.53081 10.6958 7.51085C10.6472 7.49089 10.5951 7.4807 10.5426 7.48085C10.4901 7.481 10.4381 7.4915 10.3896 7.51174C10.3412 7.53199 10.2971 7.56158 10.2601 7.59883C10.2231 7.63608 10.1937 7.68026 10.1738 7.72885C9.94772 8.27921 9.61739 8.78068 9.20098 9.20565C8.42418 9.99765 7.33218 10.5201 6.00018 10.5201C3.24818 10.5201 1.48018 8.26805 1.48018 6.00005Z" fill="black"/>
</svg>
