<svg width="24" height="25" viewBox="0 0 24 25" fill="none" xmlns="http://www.w3.org/2000/svg">
    <mask id="mask0_567_11845" style="mask-type:alpha" maskUnits="userSpaceOnUse" x="0" y="0" width="24" height="25">
        <rect y="0.5" width="24" height="24" fill="#D9D9D9"/>
    </mask>
    <g mask="url(#mask0_567_11845)">
        <path d="M7 21.5C6.45 21.5 5.97917 21.3042 5.5875 20.9125C5.19583 20.5208 5 20.05 5 19.5V6.5C4.71667 6.5 4.47917 6.40417 4.2875 6.2125C4.09583 6.02083 4 5.78333 4 5.5C4 5.21667 4.09583 4.97917 4.2875 4.7875C4.47917 4.59583 4.71667 4.5 5 4.5H9C9 4.21667 9.09583 3.97917 9.2875 3.7875C9.47917 3.59583 9.71667 3.5 10 3.5H14C14.2833 3.5 14.5208 3.59583 14.7125 3.7875C14.9042 3.97917 15 4.21667 15 4.5H19C19.2833 4.5 19.5208 4.59583 19.7125 4.7875C19.9042 4.97917 20 5.21667 20 5.5C20 5.78333 19.9042 6.02083 19.7125 6.2125C19.5208 6.40417 19.2833 6.5 19 6.5V19.5C19 20.05 18.8042 20.5208 18.4125 20.9125C18.0208 21.3042 17.55 21.5 17 21.5H7ZM12 14.4L13.9 16.3C14.0833 16.4833 14.3167 16.575 14.6 16.575C14.8833 16.575 15.1167 16.4833 15.3 16.3C15.4833 16.1167 15.575 15.8833 15.575 15.6C15.575 15.3167 15.4833 15.0833 15.3 14.9L13.4 13L15.3 11.1C15.4833 10.9167 15.575 10.6833 15.575 10.4C15.575 10.1167 15.4833 9.88333 15.3 9.7C15.1167 9.51667 14.8833 9.425 14.6 9.425C14.3167 9.425 14.0833 9.51667 13.9 9.7L12 11.6L10.1 9.7C9.91667 9.51667 9.68333 9.425 9.4 9.425C9.11667 9.425 8.88333 9.51667 8.7 9.7C8.51667 9.88333 8.425 10.1167 8.425 10.4C8.425 10.6833 8.51667 10.9167 8.7 11.1L10.6 13L8.7 14.9C8.51667 15.0833 8.425 15.3167 8.425 15.6C8.425 15.8833 8.51667 16.1167 8.7 16.3C8.88333 16.4833 9.11667 16.575 9.4 16.575C9.68333 16.575 9.91667 16.4833 10.1 16.3L12 14.4Z"
              fill="#1C1B1F"/>
    </g>
</svg>
